<svg width="32" height="32" viewBox="0 0 32 32" fill="none" xmlns="http://www.w3.org/2000/svg">
<g clip-path="url(#clip0_4076_528716)">
<path opacity="0.2" d="M20.0889 17.5323C19.9698 17.4597 19.8371 17.4125 19.6989 17.3936L16.8464 17.0086C16.6322 16.9795 16.4143 17.0208 16.2255 17.126C16.0366 17.2312 15.887 17.3948 15.7989 17.5923L14.0864 21.4348C14.0068 21.6136 13.9815 21.8118 14.0135 22.0049C14.0454 22.198 14.1334 22.3775 14.2664 22.5211L16.7339 25.0623C16.8409 25.1773 16.9193 25.3159 16.9627 25.4668C17.0061 25.6177 17.0134 25.7768 16.9839 25.9311L16.5877 27.9861C18.6779 27.8843 20.7053 27.2378 22.4685 26.1105C24.2316 24.9832 25.6694 23.4144 26.6389 21.5598L20.0889 17.5323Z" fill="#83AA63"/>
<path d="M16 28C22.6274 28 28 22.6274 28 16C28 9.37258 22.6274 4 16 4C9.37258 4 4 9.37258 4 16C4 22.6274 9.37258 28 16 28Z" stroke="#83AA63" stroke-width="2" stroke-linecap="round" stroke-linejoin="round"/>
<path d="M9.48535 15.4077L11.1504 12.5002C11.2382 12.3479 11.3647 12.2216 11.517 12.1338C11.6693 12.046 11.8421 11.9999 12.0179 12.0002H14.1066C14.2755 12.0005 14.4416 11.9574 14.5891 11.8752L16.1254 11.0302C16.1929 10.9938 16.2555 10.9489 16.3116 10.8964L19.6766 7.85518C19.844 7.7029 19.9548 7.49833 19.9909 7.27491C20.0271 7.05149 19.9863 6.82243 19.8754 6.62518L18.5629 4.27393" stroke="#83AA63" stroke-width="2" stroke-linecap="round" stroke-linejoin="round"/>
<path d="M8.47209 6.65381L6.99959 10.1351C6.90013 10.3707 6.89476 10.6356 6.98459 10.8751L8.42209 14.7088C8.48115 14.8654 8.5786 15.0048 8.70548 15.114C8.83237 15.2232 8.98464 15.2987 9.14834 15.3338L11.8271 15.9101C11.9757 15.9419 12.115 16.0072 12.2346 16.101C12.3541 16.1948 12.4508 16.3146 12.5171 16.4513L12.9921 17.4351C13.074 17.6041 13.2019 17.7466 13.3611 17.8463C13.5202 17.946 13.7043 17.9988 13.8921 17.9988H15.6171" stroke="#83AA63" stroke-width="2" stroke-linecap="round" stroke-linejoin="round"/>
<path opacity="0.2" d="M9.48459 15.4075L11.1496 12.5C11.2375 12.3478 11.364 12.2214 11.5163 12.1336C11.6686 12.0458 11.8413 11.9998 12.0171 12H14.1058C14.2747 12.0003 14.4408 11.9573 14.5883 11.875L16.1246 11.03C16.1922 10.9936 16.2548 10.9487 16.3108 10.8963L19.6758 7.85501C19.8433 7.70274 19.9541 7.49817 19.9902 7.27475C20.0263 7.05133 19.9855 6.82227 19.8746 6.62501L18.5621 4.27376C17.7201 4.09138 16.8611 3.99961 15.9996 4.00001C13.2605 3.99584 10.603 4.93269 8.47209 6.65376L6.99959 10.135C6.90013 10.3707 6.89476 10.6355 6.98459 10.875L8.42209 14.7088C8.48115 14.8654 8.5786 15.0047 8.70548 15.1139C8.83237 15.2231 8.98464 15.2987 9.14834 15.3338L9.48459 15.4075Z" fill="#83AA63"/>
<path d="M26.6364 21.5598L20.0889 17.5323C19.9698 17.4597 19.8371 17.4125 19.6989 17.3936L16.8464 17.0086C16.6322 16.9795 16.4143 17.0208 16.2255 17.126C16.0366 17.2312 15.887 17.3948 15.7989 17.5923L14.0864 21.4348C14.0068 21.6136 13.9815 21.8118 14.0135 22.0049C14.0454 22.198 14.1334 22.3775 14.2664 22.5211L16.7339 25.0623C16.8409 25.1773 16.9193 25.3159 16.9627 25.4668C17.0061 25.6177 17.0134 25.7768 16.9839 25.9311L16.5877 27.9861" stroke="#83AA63" stroke-width="2" stroke-linecap="round" stroke-linejoin="round"/>
</g>
<defs>
<clipPath id="clip0_4076_528716">
<rect width="32" height="32" fill="white"/>
</clipPath>
</defs>
</svg>
