<svg width="160" height="31" viewBox="0 0 160 31" fill="none" xmlns="http://www.w3.org/2000/svg">
<g clip-path="url(#clip0_3785_1463)">
<path d="M8.1694 16.7723L1.55586 21.9509C0.558923 19.9274 0 17.6506 0 15.2415C0 11.9678 1.03572 8.9337 2.79233 6.44934L4.72917 9.22342L8.28803 14.2469L8.96558 15.6453L8.1694 16.7723Z" fill="#50683C"/>
<path d="M10.4325 14.9996V15.6977L10.1519 16.6034L9.11844 17.8467L6.0455 20.5729L3.98091 24.0998L3.29423 24.7044C2.71478 23.9766 2.20376 23.1941 1.76575 22.366L8.4751 17.1121C8.49335 17.0984 8.50932 17.0825 8.52073 17.0642L9.41501 15.8004C9.46291 15.7319 9.47204 15.643 9.43554 15.5677L8.69183 14.0301C8.69183 14.0301 8.68042 14.0095 8.6713 13.9981L5.10332 8.96098L3.07522 6.06142C3.46761 5.54128 3.89194 5.04624 4.3482 4.58313L5.01434 7.08345L9.90549 13.7882L10.4325 14.9996Z" fill="#50683C"/>
<path d="M11.5708 15.8713L11.5731 14.7625L10.9001 13.2181L6.06142 6.58173L5.87207 5.86768L13.3525 16.3366L12.6909 16.9024L6.54734 21.9761L6.93745 21.3054L9.90772 18.6704L11.1761 17.1556L11.5708 15.8713Z" fill="#50683C"/>
<path d="M14.2217 15.5906L5.55951 3.46996C6.02718 3.08442 6.51766 2.72625 7.03096 2.40002L14.4475 12.7709L15.6521 14.4499L15.2095 14.7465L14.2217 15.5906Z" fill="#50683C"/>
<path d="M7.9778 22.852L6.90558 23.16L13.4256 17.7738L14.0347 17.2537L14.8742 18.3464L15.8438 19.6331L15.3214 19.2361L14.021 19.211L12.2256 19.6764L7.9778 22.852Z" fill="#50683C"/>
<path d="M18.7045 28.2313L15.3282 30.4829H15.2438C15.1867 30.4829 15.1297 30.4829 15.0749 30.4807C10.7085 30.435 6.78463 28.5529 4.03564 25.5713L4.71091 24.9781L8.49562 23.8899L12.7297 20.7235L14.1556 20.3539L14.9267 20.3699L18.3829 23.0002L21.1934 26.5728L19.0855 27.978L15.2574 23.0253C15.1799 22.9249 15.0362 22.9067 14.9358 22.9842C14.8377 23.0618 14.8194 23.2055 14.8947 23.3036L18.7045 28.2313Z" fill="#50683C"/>
<path d="M21.4763 26.9333L22.7242 28.5211C20.7737 29.6253 18.5563 30.3097 16.1928 30.4534L19.1608 28.4755L21.4763 26.9333Z" fill="#50683C"/>
<path d="M16.3297 15.3669L25.1241 26.8443C24.6724 27.2321 24.1979 27.5902 23.7029 27.921L19.2338 22.236L15.7821 17.6574L14.9016 16.5099L15.8757 15.6726L16.3297 15.3669Z" fill="#50683C"/>
<path d="M14.7852 2.97712L13.2659 0.488202L13.9571 0.0524703C14.0712 0.043345 14.1875 0.0342198 14.3016 0.0273758C14.6118 0.00684395 14.9267 0 15.2438 0C16.4985 0 17.7167 0.152848 18.8848 0.440294L14.7852 2.97712Z" fill="#50683C"/>
<path d="M20.3835 3.9239C20.2809 3.9969 20.2581 4.13835 20.3311 4.24101L23.0367 8.00518L23.8991 9.26903L20.947 11.272L20.0208 9.92605L19.0695 8.78539C19.033 8.74205 18.9828 8.71239 18.9258 8.70555L17.8558 8.55954L15.9715 5.9634C15.8985 5.86074 15.7547 5.83793 15.6544 5.91321C15.5517 5.98621 15.5289 6.12994 15.6019 6.2326L17.5433 8.9063C17.5798 8.95649 17.6368 8.99071 17.6984 8.99755L18.7752 9.14584L19.6558 10.2021L20.5683 11.5275L16.795 14.0872L15.3738 12.107L8.0188 1.81825C9.51306 1.01294 11.1579 0.447174 12.9008 0.177979L12.8324 0.221324C12.7274 0.289763 12.6955 0.426642 12.7594 0.533864L14.5137 3.41061C14.5456 3.46308 14.5981 3.49958 14.6574 3.51327C14.6734 3.51783 14.6917 3.52011 14.7099 3.52011C14.751 3.52011 14.792 3.5087 14.8285 3.48589L19.4915 0.600022H19.4938C19.5235 0.609148 19.5531 0.618273 19.5828 0.627398C22.966 1.6289 25.8564 3.77562 27.8092 6.61586L24.2778 9.01352L23.4109 7.74283L20.7029 3.97637C20.6299 3.87371 20.4862 3.84862 20.3835 3.9239Z" fill="#50683C"/>
<path d="M21.2642 16.0742L29.7119 10.4417C30.0974 11.6006 30.3461 12.8256 30.4396 14.094L23.1896 18.878L21.2642 16.0742Z" fill="#50683C"/>
<path d="M30.483 15.2415C30.483 19.4779 28.7583 23.306 25.9683 26.0709L18.3122 16.081L17.0688 14.4545L28.0625 6.99683C28.6648 7.93217 29.169 8.93595 29.5568 9.99676L20.8193 15.821C20.8193 15.821 20.8171 15.8232 20.8148 15.8232C20.7691 15.8552 20.7395 15.9031 20.7258 15.9533C20.7258 15.9578 20.7212 15.9624 20.7212 15.9692C20.7167 15.9829 20.7212 15.9989 20.7212 16.0149C20.7212 16.0286 20.719 16.0423 20.7212 16.0559C20.7212 16.0628 20.7281 16.0696 20.7304 16.0788C20.7349 16.0993 20.7418 16.1198 20.7555 16.1381C20.7555 16.1381 20.7562 16.1396 20.7577 16.1426L22.9387 19.3205C22.9478 19.3342 22.9592 19.3456 22.9706 19.357C22.9729 19.3593 22.9729 19.3616 22.9752 19.3616C22.982 19.3684 22.9911 19.373 23.0003 19.3798C23.0368 19.4049 23.0824 19.4209 23.128 19.4209C23.1737 19.4209 23.2147 19.4095 23.2535 19.3821L30.4693 14.621C30.4784 14.8263 30.483 15.0339 30.483 15.2415Z" fill="#50683C"/>
</g>
<path d="M44.4095 24.6363C42.5911 24.6363 41.1432 24.0414 40.0656 22.8517C39.0105 21.6394 38.483 19.967 38.483 17.8343V6.25076H42.7931V16.7568C42.7931 18.2609 43.0401 19.3721 43.534 20.0905C44.0503 20.7864 44.8248 21.1343 45.8574 21.1343C47.0247 21.1343 47.9227 20.7527 48.5513 19.9894C49.2023 19.2037 49.5278 18.0701 49.5278 16.5884V6.25076H53.838V24.2323H49.8982L49.7972 19.2823L50.3359 19.4507C50.0666 21.1568 49.4268 22.4476 48.4166 23.3231C47.4064 24.1986 46.0707 24.6363 44.4095 24.6363Z" fill="#50683C"/>
<path d="M65.5533 24.6363C63.7799 24.6363 62.287 24.3782 61.0748 23.8619C59.885 23.3455 58.9646 22.6272 58.3136 21.7068C57.6626 20.7864 57.2922 19.7425 57.2024 18.5752L61.6136 18.3731C61.7707 19.316 62.1636 20.0456 62.7921 20.5619C63.4207 21.0782 64.3523 21.3364 65.587 21.3364C66.5972 21.3364 67.3829 21.1792 67.9441 20.8649C68.5278 20.5282 68.8196 20.0119 68.8196 19.316C68.8196 18.9119 68.7186 18.5752 68.5166 18.3058C68.3146 18.0364 67.9329 17.8007 67.3717 17.5986C66.8105 17.3966 65.9799 17.1946 64.8799 16.9925C63.0391 16.6782 61.5911 16.2966 60.536 15.8476C59.4809 15.3762 58.7289 14.7925 58.2799 14.0966C57.8534 13.4007 57.6401 12.5364 57.6401 11.5038C57.6401 9.82012 58.2799 8.46197 59.5595 7.42932C60.8615 6.37423 62.7585 5.84668 65.2503 5.84668C66.8666 5.84668 68.2248 6.11607 69.3247 6.65484C70.4247 7.17116 71.2778 7.88952 71.8839 8.80992C72.5125 9.70788 72.9053 10.7405 73.0625 11.9079L68.7186 12.1099C68.6064 11.5038 68.4043 10.9762 68.1125 10.5273C67.8207 10.0783 67.4278 9.74155 66.9339 9.51706C66.4401 9.27012 65.8564 9.14666 65.1829 9.14666C64.1727 9.14666 63.4095 9.34869 62.8932 9.75277C62.3768 10.1569 62.1187 10.6956 62.1187 11.3691C62.1187 11.8405 62.2309 12.2334 62.4554 12.5477C62.7023 12.8619 63.0952 13.1201 63.634 13.3221C64.1727 13.5017 64.8911 13.6701 65.7891 13.8272C67.6748 14.1191 69.1564 14.5007 70.2339 14.9721C71.3339 15.4211 72.1084 16.0048 72.5574 16.7231C73.0288 17.419 73.2645 18.2609 73.2645 19.2486C73.2645 20.3935 72.939 21.37 72.288 22.1782C71.6594 22.9864 70.7615 23.6037 69.5941 24.0302C68.4492 24.4343 67.1023 24.6363 65.5533 24.6363Z" fill="#50683C"/>
<path d="M84.4069 24.6363C82.611 24.6363 81.0508 24.2547 79.7263 23.4914C78.4019 22.7057 77.3805 21.6057 76.6621 20.1915C75.9437 18.7772 75.5845 17.1272 75.5845 15.2415C75.5845 13.3558 75.9437 11.717 76.6621 10.3252C77.3805 8.91094 78.3906 7.81095 79.6927 7.02524C81.0172 6.23953 82.5549 5.84668 84.3059 5.84668C86.012 5.84668 87.5049 6.22831 88.7844 6.99157C90.0865 7.75483 91.0854 8.85482 91.7814 10.2915C92.4773 11.7283 92.8252 13.4568 92.8252 15.4772V16.4537H80.0631C80.1529 18.0252 80.5794 19.215 81.3427 20.0231C82.1284 20.8088 83.161 21.2017 84.4406 21.2017C85.4059 21.2017 86.2028 20.9884 86.8314 20.5619C87.4824 20.1129 87.9314 19.4956 88.1783 18.7099L92.5895 18.9792C92.0956 20.7302 91.1191 22.1108 89.66 23.121C88.2232 24.1312 86.4722 24.6363 84.4069 24.6363ZM80.0631 13.5578H88.3804C88.2906 12.0987 87.8753 11.0211 87.1345 10.3252C86.3936 9.60686 85.4508 9.24767 84.3059 9.24767C83.161 9.24767 82.2069 9.61808 81.4437 10.3589C80.7029 11.0997 80.2427 12.166 80.0631 13.5578Z" fill="#50683C"/>
<path d="M104.007 24.6363C102.233 24.6363 100.673 24.2547 99.326 23.4914C98.0015 22.7057 96.9689 21.6057 96.2281 20.1915C95.5097 18.7772 95.1505 17.1272 95.1505 15.2415C95.1505 13.3334 95.5097 11.6834 96.2281 10.2915C96.9689 8.87727 98.0015 7.7885 99.326 7.02524C100.673 6.23953 102.233 5.84668 104.007 5.84668C105.78 5.84668 107.329 6.23953 108.653 7.02524C109.978 7.7885 110.999 8.87727 111.718 10.2915C112.459 11.6834 112.829 13.3334 112.829 15.2415C112.829 17.1272 112.459 18.7772 111.718 20.1915C110.999 21.6057 109.978 22.7057 108.653 23.4914C107.329 24.2547 105.78 24.6363 104.007 24.6363ZM104.007 21.1343C105.398 21.1343 106.465 20.618 107.206 19.5854C107.969 18.5527 108.35 17.1048 108.35 15.2415C108.35 13.4007 107.969 11.964 107.206 10.9313C106.465 9.87624 105.398 9.34869 104.007 9.34869C102.615 9.34869 101.537 9.87624 100.774 10.9313C100.011 11.964 99.6291 13.4007 99.6291 15.2415C99.6291 17.1048 100.011 18.5527 100.774 19.5854C101.537 20.618 102.615 21.1343 104.007 21.1343Z" fill="#50683C"/>
<path d="M123.462 24.6363C121.689 24.6363 120.196 24.3782 118.984 23.8619C117.794 23.3455 116.873 22.6272 116.222 21.7068C115.571 20.7864 115.201 19.7425 115.111 18.5752L119.522 18.3731C119.679 19.316 120.072 20.0456 120.701 20.5619C121.329 21.0782 122.261 21.3364 123.496 21.3364C124.506 21.3364 125.292 21.1792 125.853 20.8649C126.437 20.5282 126.728 20.0119 126.728 19.316C126.728 18.9119 126.627 18.5752 126.425 18.3058C126.223 18.0364 125.842 17.8007 125.28 17.5986C124.719 17.3966 123.889 17.1946 122.789 16.9925C120.948 16.6782 119.5 16.2966 118.445 15.8476C117.39 15.3762 116.638 14.7925 116.189 14.0966C115.762 13.4007 115.549 12.5364 115.549 11.5038C115.549 9.82012 116.189 8.46197 117.468 7.42932C118.77 6.37423 120.667 5.84668 123.159 5.84668C124.775 5.84668 126.133 6.11607 127.233 6.65484C128.333 7.17116 129.187 7.88952 129.793 8.80992C130.421 9.70788 130.814 10.7405 130.971 11.9079L126.627 12.1099C126.515 11.5038 126.313 10.9762 126.021 10.5273C125.729 10.0783 125.337 9.74155 124.843 9.51706C124.349 9.27012 123.765 9.14666 123.092 9.14666C122.081 9.14666 121.318 9.34869 120.802 9.75277C120.286 10.1569 120.027 10.6956 120.027 11.3691C120.027 11.8405 120.14 12.2334 120.364 12.5477C120.611 12.8619 121.004 13.1201 121.543 13.3221C122.081 13.5017 122.8 13.6701 123.698 13.8272C125.583 14.1191 127.065 14.5007 128.143 14.9721C129.243 15.4211 130.017 16.0048 130.466 16.7231C130.938 17.419 131.173 18.2609 131.173 19.2486C131.173 20.3935 130.848 21.37 130.197 22.1782C129.568 22.9864 128.67 23.6037 127.503 24.0302C126.358 24.4343 125.011 24.6363 123.462 24.6363Z" fill="#50683C"/>
<path d="M134.537 24.2323V6.25076H138.443L138.578 10.662L138.174 10.4599C138.376 9.49461 138.724 8.67523 139.218 8.00177C139.734 7.30585 140.351 6.7783 141.07 6.41912C141.811 6.03749 142.619 5.84668 143.494 5.84668C145.021 5.84668 146.255 6.28443 147.198 7.15993C148.141 8.01299 148.736 9.19155 148.983 10.6956H148.411C148.613 9.64053 148.961 8.76502 149.454 8.06911C149.948 7.35075 150.566 6.80075 151.306 6.41912C152.07 6.03749 152.923 5.84668 153.866 5.84668C155.1 5.84668 156.167 6.11607 157.065 6.65484C157.962 7.17116 158.647 7.93442 159.119 8.94462C159.612 9.95481 159.859 11.2007 159.859 12.6823V24.2323H155.549V13.7936C155.549 12.3119 155.291 11.2007 154.775 10.4599C154.281 9.7191 153.518 9.34869 152.485 9.34869C151.789 9.34869 151.194 9.52828 150.7 9.88747C150.206 10.2466 149.825 10.7742 149.555 11.4701C149.308 12.1436 149.185 12.963 149.185 13.9283V24.2323H145.178V13.9283C145.178 12.4466 144.953 11.313 144.504 10.5273C144.055 9.74155 143.281 9.34869 142.181 9.34869C141.485 9.34869 140.89 9.52828 140.396 9.88747C139.925 10.2466 139.543 10.7742 139.251 11.4701C138.982 12.1436 138.847 12.963 138.847 13.9283V24.2323H134.537Z" fill="#50683C"/>
<defs>
<clipPath id="clip0_3785_1463">
<rect width="30.483" height="30.483" fill="white"/>
</clipPath>
</defs>
</svg>
