<svg width="162" height="32" viewBox="0 0 162 32" fill="none" xmlns="http://www.w3.org/2000/svg">
<circle cx="15.8247" cy="16" r="15.8247" fill="#1B1D22"/>
<path d="M45.5759 25.3949C43.7575 25.3949 42.3096 24.8 41.2321 23.6102C40.177 22.398 39.6494 20.7255 39.6494 18.5929V7.0093H43.9596V17.5153C43.9596 19.0194 44.2065 20.1306 44.7004 20.849C45.2167 21.5449 45.9912 21.8929 47.0238 21.8929C48.1912 21.8929 49.0891 21.5112 49.7177 20.748C50.3687 19.9623 50.6942 18.8286 50.6942 17.347V7.0093H55.0044V24.9908H51.0646L50.9636 20.0408L51.5024 20.2092C51.233 21.9153 50.5932 23.2061 49.583 24.0816C48.5728 24.9571 47.2371 25.3949 45.5759 25.3949Z" fill="#1B1D22"/>
<path d="M66.7198 25.3949C64.9463 25.3949 63.4535 25.1367 62.2413 24.6204C61.0515 24.1041 60.1311 23.3857 59.48 22.4653C58.829 21.5449 58.4586 20.501 58.3688 19.3337L62.78 19.1317C62.9372 20.0745 63.33 20.8041 63.9586 21.3204C64.5872 21.8367 65.5188 22.0949 66.7535 22.0949C67.7637 22.0949 68.5494 21.9378 69.1106 21.6235C69.6943 21.2868 69.9861 20.7704 69.9861 20.0745C69.9861 19.6704 69.8851 19.3337 69.683 19.0643C69.481 18.7949 69.0994 18.5592 68.5381 18.3572C67.9769 18.1551 67.1463 17.9531 66.0463 17.7511C64.2055 17.4368 62.7576 17.0551 61.7025 16.6062C60.6474 16.1347 59.8953 15.5511 59.4464 14.8552C59.0198 14.1593 58.8066 13.295 58.8066 12.2623C58.8066 10.5787 59.4464 9.22051 60.726 8.18787C62.028 7.13277 63.9249 6.60522 66.4167 6.60522C68.033 6.60522 69.3912 6.87461 70.4912 7.41338C71.5912 7.9297 72.4442 8.64807 73.0504 9.56847C73.6789 10.4664 74.0718 11.4991 74.2289 12.6664L69.8851 12.8684C69.7728 12.2623 69.5708 11.7348 69.279 11.2858C68.9871 10.8368 68.5943 10.5001 68.1004 10.2756C67.6065 10.0287 67.0228 9.9052 66.3494 9.9052C65.3392 9.9052 64.5759 10.1072 64.0596 10.5113C63.5433 10.9154 63.2851 11.4542 63.2851 12.1276C63.2851 12.5991 63.3974 12.9919 63.6219 13.3062C63.8688 13.6205 64.2616 13.8786 64.8004 14.0807C65.3392 14.2603 66.0576 14.4286 66.9555 14.5858C68.8412 14.8776 70.3228 15.2592 71.4004 15.7307C72.5004 16.1796 73.2748 16.7633 73.7238 17.4817C74.1952 18.1776 74.431 19.0194 74.431 20.0072C74.431 21.1521 74.1054 22.1286 73.4544 22.9367C72.8259 23.7449 71.9279 24.3622 70.7606 24.7888C69.6157 25.1928 68.2688 25.3949 66.7198 25.3949Z" fill="#1B1D22"/>
<path d="M85.5734 25.3949C83.7775 25.3949 82.2173 25.0133 80.8928 24.25C79.5683 23.4643 78.5469 22.3643 77.8285 20.95C77.1102 19.5357 76.751 17.8858 76.751 16.0001C76.751 14.1144 77.1102 12.4756 77.8285 11.0838C78.5469 9.66949 79.5571 8.5695 80.8591 7.78379C82.1836 6.99808 83.7213 6.60522 85.4724 6.60522C87.1785 6.60522 88.6713 6.98685 89.9509 7.75011C91.2529 8.51337 92.2519 9.61337 92.9478 11.0501C93.6437 12.4868 93.9917 14.2154 93.9917 16.2358V17.2123H81.2295C81.3193 18.7837 81.7458 19.9735 82.5091 20.7817C83.2948 21.5674 84.3275 21.9602 85.607 21.9602C86.5723 21.9602 87.3693 21.747 87.9978 21.3204C88.6489 20.8714 89.0978 20.2541 89.3448 19.4684L93.756 19.7378C93.2621 21.4888 92.2856 22.8694 90.8264 23.8796C89.3897 24.8898 87.6387 25.3949 85.5734 25.3949ZM81.2295 14.3164H89.5468C89.457 12.8572 89.0417 11.7797 88.3009 11.0838C87.5601 10.3654 86.6172 10.0062 85.4724 10.0062C84.3275 10.0062 83.3734 10.3766 82.6101 11.1174C81.8693 11.8582 81.4091 12.9246 81.2295 14.3164Z" fill="#1B1D22"/>
<path d="M105.173 25.3949C103.4 25.3949 101.839 25.0133 100.492 24.25C99.168 23.4643 98.1353 22.3643 97.3945 20.95C96.6762 19.5357 96.317 17.8858 96.317 16.0001C96.317 14.0919 96.6762 12.4419 97.3945 11.0501C98.1353 9.63581 99.168 8.54705 100.492 7.78379C101.839 6.99808 103.4 6.60522 105.173 6.60522C106.946 6.60522 108.495 6.99808 109.82 7.78379C111.144 8.54705 112.166 9.63581 112.884 11.0501C113.625 12.4419 113.995 14.0919 113.995 16.0001C113.995 17.8858 113.625 19.5357 112.884 20.95C112.166 22.3643 111.144 23.4643 109.82 24.25C108.495 25.0133 106.946 25.3949 105.173 25.3949ZM105.173 21.8929C106.565 21.8929 107.631 21.3765 108.372 20.3439C109.135 19.3113 109.517 17.8633 109.517 16.0001C109.517 14.1593 109.135 12.7225 108.372 11.6899C107.631 10.6348 106.565 10.1072 105.173 10.1072C103.781 10.1072 102.704 10.6348 101.94 11.6899C101.177 12.7225 100.796 14.1593 100.796 16.0001C100.796 17.8633 101.177 19.3113 101.94 20.3439C102.704 21.3765 103.781 21.8929 105.173 21.8929Z" fill="#1B1D22"/>
<path d="M124.629 25.3949C122.855 25.3949 121.362 25.1367 120.15 24.6204C118.96 24.1041 118.04 23.3857 117.389 22.4653C116.738 21.5449 116.367 20.501 116.278 19.3337L120.689 19.1317C120.846 20.0745 121.239 20.8041 121.867 21.3204C122.496 21.8367 123.428 22.0949 124.662 22.0949C125.672 22.0949 126.458 21.9378 127.019 21.6235C127.603 21.2868 127.895 20.7704 127.895 20.0745C127.895 19.6704 127.794 19.3337 127.592 19.0643C127.39 18.7949 127.008 18.5592 126.447 18.3572C125.886 18.1551 125.055 17.9531 123.955 17.7511C122.114 17.4368 120.666 17.0551 119.611 16.6062C118.556 16.1347 117.804 15.5511 117.355 14.8552C116.929 14.1593 116.715 13.295 116.715 12.2623C116.715 10.5787 117.355 9.22051 118.635 8.18787C119.937 7.13277 121.834 6.60522 124.325 6.60522C125.942 6.60522 127.3 6.87461 128.4 7.41338C129.5 7.9297 130.353 8.64807 130.959 9.56847C131.588 10.4664 131.98 11.4991 132.138 12.6664L127.794 12.8684C127.682 12.2623 127.48 11.7348 127.188 11.2858C126.896 10.8368 126.503 10.5001 126.009 10.2756C125.515 10.0287 124.932 9.9052 124.258 9.9052C123.248 9.9052 122.485 10.1072 121.968 10.5113C121.452 10.9154 121.194 11.4542 121.194 12.1276C121.194 12.5991 121.306 12.9919 121.531 13.3062C121.778 13.6205 122.17 13.8786 122.709 14.0807C123.248 14.2603 123.966 14.4286 124.864 14.5858C126.75 14.8776 128.232 15.2592 129.309 15.7307C130.409 16.1796 131.184 16.7633 131.633 17.4817C132.104 18.1776 132.34 19.0194 132.34 20.0072C132.34 21.1521 132.014 22.1286 131.363 22.9367C130.735 23.7449 129.837 24.3622 128.669 24.7888C127.524 25.1928 126.177 25.3949 124.629 25.3949Z" fill="#1B1D22"/>
<path d="M135.704 24.9908V7.0093H139.61L139.744 11.4205L139.34 11.2185C139.542 10.2532 139.89 9.43377 140.384 8.76031C140.9 8.0644 141.518 7.53685 142.236 7.17767C142.977 6.79604 143.785 6.60522 144.661 6.60522C146.187 6.60522 147.422 7.04298 148.365 7.91848C149.308 8.77153 149.902 9.9501 150.149 11.4542H149.577C149.779 10.3991 150.127 9.52357 150.621 8.82766C151.115 8.10929 151.732 7.5593 152.473 7.17767C153.236 6.79604 154.089 6.60522 155.032 6.60522C156.267 6.60522 157.333 6.87461 158.231 7.41338C159.129 7.9297 159.814 8.69296 160.285 9.70316C160.779 10.7134 161.026 11.9593 161.026 13.4409V24.9908H156.716V14.5521C156.716 13.0705 156.458 11.9593 155.941 11.2185C155.447 10.4776 154.684 10.1072 153.651 10.1072C152.956 10.1072 152.361 10.2868 151.867 10.646C151.373 11.0052 150.991 11.5327 150.722 12.2287C150.475 12.9021 150.351 13.7215 150.351 14.6868V24.9908H146.344V14.6868C146.344 13.2052 146.12 12.0715 145.671 11.2858C145.222 10.5001 144.447 10.1072 143.347 10.1072C142.651 10.1072 142.057 10.2868 141.563 10.646C141.091 11.0052 140.71 11.5327 140.418 12.2287C140.148 12.9021 140.014 13.7215 140.014 14.6868V24.9908H135.704Z" fill="#1B1D22"/>
</svg>
