<svg width="1440" height="642" viewBox="0 0 1440 642" fill="none" xmlns="http://www.w3.org/2000/svg">
<path opacity="0.15" d="M1652.88 319.234H1648.47L1639.64 327.896V362.548L1630.81 371.21V423.187L1621.98 431.85H1613.15L1604.32 434.738H1595.49L1589.61 440.513L1586.67 442.679L1577.84 446.291H1569.01L1560.18 444.848L1551.35 440.516V431.85L1542.52 423.187L1533.7 417.413L1529.28 414.525L1524.87 412.794H1516.04L1507.2 411.637H1489.55L1480.72 405.862L1471.88 397.199L1463.06 388.536V371.21L1471.88 362.548L1463.06 353.885L1454.23 349.551L1445.4 346.952H1436.57L1427.74 345.221H1418.91L1410.08 353.884V362.547L1407.14 371.209L1405.67 379.873V388.536L1401.25 397.199V405.862L1398.31 414.525L1395.37 423.187L1392.42 427.519L1388.01 431.85L1383.6 440.513V466.501L1374.77 475.164V483.827L1365.94 492.49L1363 501.152L1357.11 506.927L1354.9 509.815L1348.28 518.477V527.141L1345.34 535.803L1339.45 544.466L1333.57 553.129V579.116L1335.04 587.78L1330.62 596.442L1321.79 600.774H1295.3L1286.48 599.329L1277.65 596.442L1268.82 587.78V553.129L1277.65 544.466L1268.82 535.803L1259.99 527.141L1251.16 522.809L1242.33 520.21L1237.91 518.479L1233.5 514.148L1229.09 509.816L1224.67 501.154L1218.79 492.491L1215.84 488.16L1212.9 483.829V466.501L1215.84 457.838L1224.67 449.176L1233.5 440.513L1237.91 431.85L1242.33 423.187L1251.16 414.525L1259.99 410.193L1268.82 408.749H1277.65L1286.48 410.193L1295.3 411.637L1304.13 414.525H1312.96L1321.79 411.637L1330.62 408.749L1339.45 408.027L1348.28 405.862H1357.11L1361.52 397.199L1357.11 388.536L1348.28 384.205L1345.34 379.874L1343.87 371.21L1342.4 362.548L1341.66 353.885L1342.4 345.222L1339.45 336.559L1348.28 327.896H1357.11L1365.94 329.627L1374.77 330.783H1392.43L1396.84 327.895L1401.26 323.564L1405.67 319.232L1410.09 310.569V301.91L1411.56 293.247L1410.09 284.584V275.922L1404.2 267.258L1401.26 265.093H1392.42L1383.59 265.526L1374.76 267.257H1357.11L1348.28 262.925L1339.45 258.593H1330.62L1321.79 249.931L1312.96 247.045L1304.13 241.269L1295.3 232.605L1286.47 223.939V197.953L1277.64 189.29L1268.81 180.627L1259.99 171.964L1254.1 163.301L1251.16 158.97L1249.39 154.638V137.313L1251.16 128.65L1259.99 124.319L1268.81 122.875L1277.64 119.987L1286.47 115.656L1290.89 111.324L1295.3 106.993L1299.72 102.661L1304.13 93.998L1308.55 85.3354L1312.96 76.672L1321.79 68.0094L1330.62 59.3461L1335.03 50.6835L1330.62 42.0201L1321.79 33.3568H1304.13L1295.3 37.6881L1286.48 39.1316H1268.82L1259.99 37.6881H1242.33L1233.5 33.356H1224.67L1215.84 24.6934H1198.18L1189.35 27.5819L1180.52 33.3568V42.0201L1177.59 50.6835L1171.7 59.3461V85.3354L1162.87 93.998V102.661L1156.98 111.324L1154.04 119.987V128.65H1136.38L1127.55 137.313L1118.72 145.976V154.638L1127.55 163.301H1109.89L1105.48 171.964L1101.06 180.627V189.29L1109.89 197.953L1118.72 200.119H1127.55L1136.38 197.953L1145.21 195.065H1171.69L1174.64 197.953L1180.52 202.284L1184.94 206.616L1187.15 215.279L1189.35 219.61L1192.3 223.941L1193.76 232.605L1195.23 241.267L1198.18 244.155L1207.01 245.599L1215.84 249.931L1224.66 258.593V275.919L1221.72 284.582V310.571L1220.25 319.234L1215.84 327.896L1207.01 336.559L1198.18 340.89L1193.76 345.222L1189.35 348.109L1180.52 353.885L1171.7 362.548L1162.87 366.879H1145.21L1136.38 362.548L1127.55 353.885L1118.72 345.222L1109.89 336.559H1101.06L1092.23 345.222V353.885L1096.65 362.548L1092.23 371.21V379.874H1083.4L1074.58 388.536L1080.46 397.199L1083.4 405.862V431.85L1081.2 440.513V457.838L1077.52 466.501L1074.58 475.164H1065.75L1056.92 466.501L1048.09 457.838L1039.26 454.951H1030.43L1021.6 455.672L1012.77 457.838L1003.94 466.501L995.113 475.164V492.49L986.284 501.152L977.455 503.318L968.625 501.152L964.211 492.49L959.797 483.827V475.162L950.967 466.5L942.138 457.837H933.309L924.48 460.725L915.651 466.5H897.992L889.164 457.837H880.334L871.505 466.501L862.676 469.389L856.79 475.164L853.847 476.895L845.018 482.381L840.603 483.826L836.189 486.713L827.359 492.488L818.53 495.377H809.7L800.871 496.821H774.384L769.969 492.49V483.827L765.555 479.496L761.141 475.164L756.725 472.998L747.897 472.277L739.067 466.501H730.238L725.824 475.164L721.409 483.827V492.49L716.995 501.152V509.815L718.464 518.477L721.408 522.809L725.822 527.141L730.237 531.472L739.066 535.803H774.383L783.211 538.69L789.097 544.466L792.041 547.354L797.927 553.129L800.869 556.016L806.756 561.791L807.492 570.454L809.699 579.116L818.528 583.448L827.357 582.004L836.186 579.116H845.016L853.844 582.004L862.674 583.448L871.505 587.78H880.334V613.768L884.748 622.43L889.164 626.761L893.578 631.093L897.992 639.755V648.418L889.164 657.081H871.505L862.676 652.749L853.847 648.418L845.018 646.253H836.189L827.359 648.418L818.53 652.749H800.871L792.042 648.418L783.213 645.53L774.384 642.643H765.555L761.141 639.755L756.725 635.424L752.311 631.093L747.897 628.205L739.067 622.43L730.238 618.099L721.409 613.768H712.58L703.751 616.654H694.922L686.093 618.099H677.264L668.434 622.43V639.759L672.849 648.422L677.264 652.753L680.207 657.084L686.093 662.86L690.508 665.747L694.922 674.409H712.58V683.072H686.093L677.264 688.27L673.732 691.732L671.378 700.394L670.642 709.057L668.434 713.388L659.605 717.719L650.776 722.05L641.946 726.381V735.044L639.004 743.707L641.946 752.369V761.032L650.776 769.694H659.605V804.345L650.776 813.007H615.46L606.631 804.345L602.216 795.682V787.019L597.801 782.688L593.387 778.357L588.973 774.026L584.558 769.694L580.143 765.363L575.729 761.032L571.314 752.369H562.485L553.655 743.707L544.826 752.369L535.997 761.032L527.168 769.694V778.357L518.339 787.019L509.51 795.682H491.852L483.023 787.019L474.194 778.357L469.779 769.694L465.365 765.363L460.951 761.032L456.536 752.369H447.705L438.876 743.707H430.048L421.22 739.375L412.39 737.932L407.976 735.044L403.561 730.713L399.146 726.381V709.056L394.732 700.394L385.903 691.731L377.074 687.4L372.659 683.068L368.245 674.406L359.415 665.743V657.081L350.587 652.749H324.099L319.685 657.081L315.27 661.412L306.441 665.743L297.612 674.406L288.782 683.068V691.731H279.954L271.124 683.068H253.466L244.637 691.731V700.394H226.979V691.731L222.564 683.068L224.034 674.406L226.976 665.743L235.806 657.081H253.464L262.293 652.749L271.122 648.418V639.759L275.537 631.097V613.771L279.951 609.44L288.78 605.109L297.609 596.446V579.116L288.781 570.454V561.788L297.61 558.9L306.439 557.457H315.268L324.097 556.013L332.927 553.126L341.756 544.466V535.803L332.927 531.472L328.512 527.141L324.097 524.253L315.268 518.477L313.061 509.815L312.325 501.152L315.268 498.264L324.097 492.49H350.585L354.999 483.827V466.501L350.585 462.17L341.756 457.838H324.099L315.27 454.951L309.384 449.176L306.441 444.845L302.026 440.513L297.612 436.181H288.781L279.952 433.582L271.123 431.851H244.635V397.199L235.806 388.536V379.874L226.976 371.21L218.147 362.548L209.318 353.885L200.491 356.776L194.605 362.551L191.663 366.882L187.247 371.213L182.831 379.874L174.004 388.536V414.525L178.419 423.187L179.888 431.85L178.419 440.513L174.004 449.176L169.589 457.838L165.175 466.501L156.346 475.162H147.517L138.688 472.275H121.03L116.614 475.162L112.2 478.05L103.371 483.826L98.9564 492.488L94.5421 501.151L98.9564 509.813V518.476L97.487 527.139L94.5483 535.802L85.7127 544.466H76.8809L68.0515 535.803L59.2252 527.141H50.3966L41.5672 522.809L32.7378 524.253H6.25108L-2.57834 522.809L-11.4077 518.477V509.815L-2.57834 501.152L6.25108 492.49V483.827L15.0797 475.162H23.906L32.7347 466.5L34.9426 457.837L35.6781 449.174L32.7347 440.512L23.906 431.85L15.0797 423.187L23.906 414.525V388.536H41.5672L50.3966 379.874V371.21L41.5672 366.879L32.7378 362.548V345.222L41.5672 341.76L50.3966 339.45H59.2252L68.0546 340.893L72.4689 345.225L76.8809 349.551L85.7096 353.882L94.539 358.213L98.9533 353.882L103.368 349.551L107.783 345.219L112.197 340.887L116.611 336.556L121.026 332.225L125.441 327.893L129.856 323.565L132.799 319.234L129.856 310.571L121.03 301.91L112.2 297.579L107.786 293.247L103.371 290.36L94.5421 284.584H85.7127L76.8809 275.919H68.0546L59.2252 280.251H41.5672L32.7378 275.919L30.5306 267.256V258.593L32.7378 249.931L35.6812 241.267L41.5672 232.605V215.279L32.7378 206.616H23.906L15.0797 209.503L6.25108 210.948H-2.57834L-11.4077 209.503L-15.8221 206.616L-20.2364 202.284L-24.6515 197.953V171.964L-26.8586 163.301L-29.0658 160.413L-34.9518 154.638L-37.8952 152.472L-44.5167 145.975L-46.7239 143.81L-53.3461 137.312L-55.5533 134.425L-61.4393 128.649L-64.3819 124.318L-67.3253 119.987L-68.7947 111.323L-71.4434 102.661L-73.2113 98.3278L-77.6256 93.9957V85.3331L-79.095 76.6698L-82.0438 68.0087V59.3423L-84.251 50.6797L-88.3498 42.0163L-90.8725 36.2408L-92.3418 33.353L-96.1676 24.6904L-97.4924 16.027L-99.6995 13.1393L-106.763 7.36444L-108.528 5.92017L-117.358 1.58887H-121.772" stroke="white" stroke-width="2" stroke-linecap="round" stroke-linejoin="round"/>
</svg>
