<svg width="396" height="436" viewBox="0 0 396 436" fill="none" xmlns="http://www.w3.org/2000/svg">
<g opacity="0.3" clip-path="url(#clip0_3320_1094)">
<path fill-rule="evenodd" clip-rule="evenodd" d="M-60.6325 101.39C-60.6541 102.609 -60.1182 103.772 -59.1772 104.548L-54.5356 108.373C-54.3765 108.504 -54.2278 108.647 -54.0908 108.801L-50.2982 113.065C-49.6587 113.784 -48.7814 114.249 -47.8273 114.373L-44.4378 114.816C-43.2529 114.97 -42.1993 115.647 -41.5653 116.659L-39.5464 119.884C-38.7228 121.2 -37.2124 121.92 -35.6717 121.732L-28.9927 120.917C-27.72 120.762 -26.4501 121.226 -25.5775 122.165L-17.1591 131.229C-16.1969 132.265 -15.853 133.732 -16.2547 135.087L-16.6541 136.435C-17.2051 138.295 -16.3426 140.282 -14.6078 141.149L-14.1857 141.36C-13.6466 141.63 -13.1754 142.018 -12.8073 142.495L-7.93134 148.816C-7.64379 149.189 -7.42431 149.61 -7.283 150.059L-5.83893 154.648C-5.23721 156.561 -6.30999 158.597 -8.22752 159.182L-8.65711 159.313C-9.03553 159.429 -9.37298 159.65 -9.62957 159.951C-10.5087 160.983 -10.1765 162.567 -8.95678 163.159L-7.8152 163.713C-7.28109 163.972 -6.83409 164.381 -6.5289 164.89L-5.96687 165.828C-5.42832 166.727 -5.26376 167.801 -5.50855 168.819L-6.49382 172.919C-6.73319 173.915 -7.34554 174.781 -8.20466 175.339L-9.5028 176.182C-10.7264 176.976 -11.4203 178.374 -11.3137 179.829L-10.9002 185.469C-10.7985 186.855 -9.98461 188.089 -8.75037 188.729L-4.78433 190.783C-4.10669 191.134 -3.54358 191.671 -3.16145 192.332L1.55499 200.484C1.6803 200.701 1.78501 200.929 1.86774 201.165L3.7199 206.453C4.12611 207.613 5.04282 208.521 6.20607 208.917L10.9734 210.54L16.0877 212.97C17.5947 213.686 18.499 215.262 18.3567 216.924L18.1133 219.766C18.0237 220.813 17.5254 221.783 16.7263 222.466L12.1896 226.342C11.4872 226.942 11.0142 227.767 10.851 228.676L10.1617 232.516C10.0447 233.169 10.0915 233.84 10.298 234.469L14.6834 247.842C14.7962 248.186 14.9552 248.513 15.156 248.814L20.0934 256.22L26.1557 264.982C27.161 266.435 29.1321 266.838 30.6276 265.898C31.0845 265.61 31.4639 265.215 31.7326 264.747L34.6934 259.59L39.2621 253.44C39.5473 253.057 39.899 252.727 40.3005 252.467L47.0871 248.077C47.3107 247.933 47.5193 247.766 47.7098 247.58L53.0434 242.37L56.0909 239.948C57.0466 239.189 58.455 239.466 59.0522 240.53C59.4256 241.196 59.3834 242.017 58.9436 242.641L55.4702 247.57C55.1042 248.089 54.6199 248.514 54.0572 248.809L47.2617 252.37C46.9574 252.529 46.6749 252.727 46.4213 252.959L42.7334 256.326C42.5339 256.508 42.3534 256.71 42.1946 256.929L35.8134 265.71L33.1203 268.687C31.9115 270.023 31.7454 272.003 32.7148 273.522L35.6934 278.19L37.7389 282.273C38.0372 282.868 38.1821 283.529 38.1606 284.194L37.857 293.571C37.8287 294.446 38.0884 295.306 38.5961 296.02L41.4829 300.076C41.7021 300.384 41.8766 300.721 42.001 301.078L43.4588 305.259C43.5218 305.439 43.5976 305.615 43.6858 305.785L50.0881 318.114C50.3098 318.541 50.4527 319.005 50.5098 319.482L51.3394 326.416C51.4697 327.504 51.1476 328.598 50.4485 329.442L49.1851 330.968C48.0663 332.319 46.1979 332.783 44.5767 332.113L30.8103 326.425C30.3238 326.223 29.8818 325.928 29.5095 325.556L22.3766 318.423C21.8578 317.904 21.4917 317.253 21.3183 316.54L18.0934 303.28L17.0521 299.879C16.3469 297.576 13.7814 296.414 11.5853 297.403L6.22971 299.814C3.9983 300.819 3.285 303.64 4.77087 305.585C6.05871 307.27 5.71713 309.683 4.01222 310.945L-1.81952 315.26C-3.53635 316.531 -3.95223 318.926 -2.76418 320.701L0.863373 326.12L4.196 330.102C5.55396 331.724 5.41357 334.124 3.87566 335.577L0.815929 338.467C-0.984238 340.168 -0.821957 343.08 1.15608 344.57L8.48338 350.09L10.9402 352.462C11.6081 353.107 12.4796 353.5 13.4051 353.573L23.7652 354.387C25.2671 354.506 26.5752 355.458 27.1495 356.85L33.191 371.503C33.442 372.111 33.5388 372.773 33.4729 373.428L32.8161 379.951C32.7361 380.746 32.4204 381.498 31.9095 382.111L27.9138 386.907C27.7738 387.076 27.6202 387.232 27.4545 387.375L18.9755 394.696C17.6387 395.85 17.2171 397.744 17.9381 399.356L25.6834 416.675C26.0279 417.445 26.12 418.305 25.9465 419.13L23.6532 430.046C23.0781 432.784 25.4181 435.251 28.1819 434.821L36.6381 433.507C36.8413 433.476 37.0467 433.46 37.2523 433.46H41.8922C43.5726 433.46 44.8746 431.99 44.6716 430.322C44.5951 429.693 44.3072 429.108 43.8552 428.664L36.8134 421.74L31.5734 416.24L26.8114 410.46C26.4955 410.077 26.2538 409.638 26.0986 409.166L24.2686 403.6C23.6749 401.794 24.5835 399.837 26.3462 399.125C27.9387 398.482 29.7636 399.05 30.7099 400.483L37.6806 411.04C37.9339 411.424 38.2514 411.761 38.6192 412.037L45.5797 417.255C46.515 417.956 47.0967 419.031 47.172 420.198L47.7116 428.559C47.8347 430.466 49.2887 432.019 51.1829 432.268L62.9268 433.809C64.3107 433.991 65.6036 433.083 65.9034 431.72L67.1046 419.262C67.1304 418.995 67.1291 418.725 67.1009 418.458L66.2688 410.586C66.0592 408.604 67.3412 406.77 69.2749 406.286L69.8174 406.15C71.1144 405.825 72.1633 404.874 72.6129 403.614L74.7805 397.542C74.9346 397.111 75.0134 396.656 75.0134 396.197V389.607C75.0134 388.522 74.5731 387.484 73.7934 386.731L67.5234 380.67L63.6215 376.023C62.7827 375.025 62.4836 373.68 62.8199 372.42L63.4589 370.026C63.6701 369.234 63.6334 368.397 63.3536 367.628L61.8137 363.391C61.7072 363.098 61.6353 362.794 61.5995 362.484L60.3557 351.716C60.3078 351.301 60.3251 350.882 60.4069 350.472L61.5334 344.84L62.0257 339.845C62.1821 338.258 63.2667 336.915 64.7857 336.428L69.2734 334.99L73.0631 333.652C74.7963 333.04 75.8894 331.325 75.7128 329.496L75.0728 322.866C75.0406 322.532 74.7337 322.294 74.4023 322.346C73.7076 322.455 73.45 321.468 74.1093 321.224L77.2851 320.046C77.3504 320.022 77.4182 320.005 77.4873 319.997L85.063 319.017C86.2618 318.862 86.4233 317.192 85.2764 316.81C84.4974 316.551 84.2413 315.577 84.7921 314.968L87.2547 312.246C87.9573 311.469 88.9683 311.044 90.0148 311.085L96.9354 311.358C97.4622 311.379 97.9879 311.296 98.4823 311.113L107.104 307.92C107.586 307.742 108.029 307.472 108.408 307.126L111.399 304.402C111.932 303.916 112.324 303.296 112.533 302.605L113.416 299.693C113.757 298.568 114.575 297.651 115.653 297.183L118.217 296.072C119.013 295.727 119.9 295.65 120.743 295.852L131.423 298.42L141.043 301.53L148.387 303.841C149.289 304.124 150.262 304.08 151.133 303.714L154.07 302.484C154.652 302.241 155.146 301.826 155.488 301.295C156.376 299.918 156.047 298.088 154.736 297.106L152.795 295.651C152.372 295.334 152.015 294.935 151.747 294.478L149.653 290.92L148.939 289.746C148.029 288.25 148.758 286.296 150.426 285.761C151.993 285.259 153.642 286.259 153.92 287.881L153.967 288.152C154.081 288.817 154.42 289.423 154.927 289.868L158.649 293.136C159.138 293.566 159.724 293.869 160.357 294.021L165.446 295.238C166.869 295.578 168.363 295.115 169.344 294.03L170.863 292.35L172.989 289.702C173.704 288.81 174.004 287.655 173.812 286.528L173.232 283.113C173.003 281.76 172.096 280.62 170.83 280.091L166.873 278.44L160.563 276.063C160.366 275.989 160.188 275.871 160.043 275.718C159.214 274.843 159.812 273.399 161.017 273.367L162.45 273.328C162.658 273.323 162.865 273.349 163.064 273.406L168.822 275.056C169.428 275.229 169.984 275.544 170.445 275.973L173.844 279.137C174.729 279.961 175.939 280.341 177.136 280.169L183.473 279.263C183.812 279.215 184.155 279.21 184.495 279.249L188.701 279.731C189.211 279.79 189.728 279.75 190.223 279.613L193.132 278.808C193.991 278.571 194.736 278.033 195.232 277.292C195.705 276.586 195.922 275.738 195.846 274.89L195.747 273.783C195.493 270.946 198.201 268.76 200.92 269.607L201.72 269.856C202.441 270.081 203.083 270.505 203.573 271.079L207.862 276.104C207.916 276.168 207.965 276.236 208.008 276.308C208.63 277.34 207.868 278.653 206.663 278.625L205.418 278.596C204.728 278.579 204.07 278.886 203.639 279.425L201.683 281.869C201.132 282.557 200.824 283.408 200.806 284.289L200.713 288.936C200.707 289.264 200.66 289.59 200.573 289.907L199.717 293.05C199.628 293.375 199.583 293.711 199.583 294.047V296.943C199.583 298.046 198.518 298.837 197.461 298.517C196.988 298.373 196.604 298.024 196.417 297.567L193.333 290.05L192.75 288.747C192.117 287.332 190.725 286.411 189.176 286.381L186.899 286.337C185.977 286.32 185.077 286.621 184.352 287.19L170.594 297.992C170.037 298.429 169.606 299.007 169.345 299.666L167.358 304.688C167.202 305.08 166.986 305.445 166.717 305.77L161.152 312.475C160.657 313.072 160.346 313.8 160.257 314.571L159.778 318.715C159.69 319.476 159.822 320.246 160.159 320.933L162.223 325.146C162.859 326.445 164.148 327.3 165.593 327.38L166.077 327.407C167.149 327.466 168.151 327.956 168.857 328.765L169.886 329.944C170.983 331.202 170.674 333.147 169.24 334.002C168.468 334.463 167.516 334.505 166.706 334.114L163.882 332.752C162.444 332.059 160.732 332.286 159.526 333.331L157.161 335.379C156.983 335.532 156.785 335.66 156.572 335.757C154.756 336.591 152.751 335.041 153.1 333.073L153.957 328.242C154.001 327.995 154.022 327.743 154.019 327.492L153.909 318.875C153.899 318.064 153.642 317.276 153.173 316.614L151.621 314.423C150.788 313.247 149.387 312.61 147.954 312.755L141.298 313.43C140.715 313.489 140.127 313.42 139.574 313.227L136.073 312.003C133.94 311.257 131.613 312.426 130.937 314.582L127.975 324.023C127.631 325.121 126.83 326.017 125.778 326.483L119.168 329.41C118.853 329.549 118.521 329.648 118.181 329.702L110.033 331.008C109.097 331.158 108.138 330.971 107.328 330.48L104.595 328.825C104.1 328.525 103.676 328.122 103.352 327.642L101.956 325.575C101.057 324.245 99.4496 323.58 97.8734 323.889L83.2434 326.75C80.9313 327.235 80.5795 330.389 82.7063 331.418C83.1395 331.627 83.6274 331.708 84.1048 331.648L84.1661 331.64C86.1229 331.393 87.6746 333.261 87.0731 335.139L86.5331 336.825C86.3428 337.419 86.3007 338.051 86.4104 338.665L86.8579 341.17C87.0229 342.094 87.5076 342.93 88.227 343.533L90.6244 345.541C91.3116 346.117 91.6434 347.013 91.4968 347.897C91.2804 349.202 90.0959 350.121 88.7779 350.007L86.107 349.774C85.6251 349.732 85.1403 349.808 84.6942 349.995L83.0917 350.666C81.7077 351.246 81.4576 353.1 82.6386 354.026C82.7942 354.148 82.9305 354.293 83.043 354.455L87.3323 360.663C87.519 360.933 87.7382 361.18 87.985 361.396L90.8215 363.885C92.4446 365.309 94.9049 365.188 96.3803 363.612L96.9756 362.975C97.1471 362.792 97.3009 362.593 97.4351 362.381L99.9385 358.425C100.29 357.87 100.499 357.237 100.547 356.582L100.654 355.143C100.775 353.521 101.866 352.133 103.413 351.633L104.787 351.189C104.991 351.123 105.2 351.074 105.411 351.041L109.23 350.456C110.258 350.298 111.185 349.746 111.813 348.917L114.333 345.59L120.15 339.297C120.345 339.086 120.517 338.855 120.662 338.607L123.084 334.482C123.514 333.749 124.383 333.397 125.201 333.623C126.351 333.941 126.916 335.237 126.367 336.295L120.835 346.956C120.577 347.453 120.217 347.891 119.779 348.24L114.953 352.09L107.213 356.7L101.137 361.238C100.948 361.379 100.772 361.537 100.611 361.709L96.581 366.012C94.9828 367.718 95.1824 370.425 97.0137 371.879L101.987 375.827C103.443 376.982 103.911 378.989 103.117 380.669L101.056 385.028C100.53 386.14 100.546 387.432 101.097 388.532L103.223 392.77L106.376 401.584C106.679 402.43 107.257 403.149 108.019 403.626L125.348 414.482C126.694 415.325 128.411 415.293 129.724 414.399L132.807 412.298C133.457 411.856 133.962 411.232 134.259 410.504L138.233 400.77L143.15 392.19C143.713 391.21 144.664 390.512 145.768 390.271L154.209 388.429C154.662 388.331 155.128 388.311 155.588 388.372L168.553 390.092C168.846 390.13 169.142 390.137 169.436 390.11L176.945 389.436C177.137 389.419 177.33 389.415 177.523 389.426L179.378 389.528C180.651 389.599 181.814 390.271 182.51 391.339L183.241 392.462C184.466 394.342 183.903 396.863 181.995 398.045L178.613 400.14L169.927 405.992C168.308 407.082 167.713 409.181 168.518 410.959L171.741 418.078C172.219 419.134 173.131 419.93 174.242 420.261L179.603 421.86L180.967 422.25C183.107 422.861 184.336 425.101 183.703 427.235L183.376 428.334C182.852 430.099 183.601 431.994 185.19 432.924L187.814 434.461C188.64 434.944 189.611 435.116 190.552 434.944L196.675 433.829C197.948 433.598 199.03 432.765 199.579 431.593L200.717 429.17C201.187 428.168 202.05 427.406 203.103 427.065L208.374 425.353C209.986 424.83 211.093 423.347 211.137 421.653L211.144 421.39C211.175 420.188 210.651 419.024 209.739 418.241C208.995 417.602 208.032 417.25 207.051 417.267L201.823 417.36L198.734 417.003C197.333 416.841 196.131 415.93 195.595 414.626L195.574 414.575C194.919 412.98 195.419 411.144 196.792 410.101C197.311 409.707 197.922 409.453 198.568 409.363L202.587 408.802C203.392 408.69 204.144 408.335 204.742 407.784L207.566 405.186C208.195 404.608 208.49 403.753 208.352 402.91C208.048 401.056 209.794 399.527 211.591 400.073L211.813 400.14L217.299 401.488C218.553 401.796 219.444 402.906 219.475 404.197C219.512 405.804 220.868 407.065 222.474 406.985L229.045 406.661C229.455 406.64 229.859 406.557 230.244 406.414L234.803 404.715C235.596 404.419 236.275 403.88 236.742 403.174L238.831 400.019C240.307 397.788 238.973 394.778 236.329 394.373C235.882 394.305 235.427 394.32 234.986 394.417L226.486 396.29C224.575 396.711 222.64 395.688 221.912 393.871L220.659 390.742C220.343 389.955 220.287 389.087 220.497 388.265L220.899 386.689C221.687 383.608 218.346 381.12 215.62 382.757C214.438 383.467 213.772 384.796 213.912 386.167L214.427 391.24C214.575 392.705 213.654 394.066 212.239 394.473L211.444 394.702C209.2 395.347 207.261 393.015 208.305 390.926C208.888 389.761 208.548 388.345 207.5 387.571L206.814 387.064C206.569 386.882 206.354 386.662 206.18 386.412L204.971 384.676C204.08 383.396 205.099 381.66 206.651 381.816C207.297 381.88 207.928 381.598 208.31 381.073L215.496 371.2C216.44 369.902 216.518 368.166 215.693 366.79L213.128 362.51C212.257 361.058 212.936 359.172 214.532 358.607C215.264 358.349 215.847 357.786 216.131 357.064L217.173 354.423C218.481 351.105 215.122 347.863 211.853 349.289L210.121 350.044C209.673 350.24 209.265 350.516 208.916 350.858L204.082 355.611C202.73 356.94 200.593 357.033 199.131 355.826C197.438 354.427 197.327 351.87 198.894 350.332L209.267 340.145C209.712 339.708 210.048 339.173 210.25 338.582L212.826 331.031C213.283 329.692 214.413 328.694 215.799 328.406L232.081 325.026C232.546 324.929 232.989 324.751 233.391 324.499L240.475 320.063C241.858 319.197 242.576 317.578 242.289 315.971L239.117 298.176C238.972 297.359 239.084 296.517 239.438 295.766L244.396 285.265C245.399 283.14 248.009 282.334 250.036 283.522L259.195 288.892C259.797 289.244 260.48 289.434 261.178 289.441L270.881 289.54C271.52 289.547 272.151 289.4 272.722 289.112L286.953 281.94L298.395 277.174C300.373 276.35 302.649 277.231 303.557 279.172L305.702 283.76C306.232 284.894 307.263 285.714 308.487 285.977L325.746 289.676C327.746 290.105 329.747 288.955 330.385 287.012L331.635 283.201C331.72 282.941 331.779 282.673 331.809 282.401L333.95 263.34C334.068 262.296 334.591 261.339 335.408 260.678L340.405 256.633C342.066 255.288 344.491 255.487 345.911 257.084L353.783 265.939C354.159 266.361 354.62 266.7 355.136 266.931L363.126 270.513C365.473 271.566 368.189 270.161 368.687 267.638L369.953 261.22L374.334 247.842C374.492 247.358 374.741 246.909 375.068 246.519L380.004 240.622C380.611 239.897 381.454 239.411 382.385 239.249L394.1 237.207C396.015 236.874 397.413 235.211 397.413 233.267V230.542C397.413 228.473 395.837 226.746 393.777 226.558L391.809 226.379C390.278 226.239 388.962 225.233 388.425 223.792L386.332 218.179C386.233 217.914 386.163 217.639 386.122 217.359L384.284 204.743C384.218 204.284 384.231 203.818 384.324 203.364L385.915 195.586C386.16 194.389 386.94 193.369 388.031 192.818L399.413 187.07L411.477 182.759C412.462 182.407 413.27 181.684 413.728 180.744L416.732 174.575C417.229 173.554 418.138 172.792 419.23 172.48L426.593 170.38C428.788 169.754 430.015 167.421 429.287 165.258L425.717 154.646C425.341 153.526 425.478 152.298 426.093 151.289L427.633 148.762C428.032 148.108 428.234 147.353 428.216 146.587L427.921 133.833C427.891 132.544 427.242 131.349 426.177 130.622L421.279 127.279C420.788 126.944 420.378 126.504 420.079 125.991L414.804 116.95C413.894 115.392 412.054 114.635 410.311 115.103L396.05 118.935C395.473 119.09 394.868 119.113 394.281 119.004L388.18 117.87C387.929 117.823 387.684 117.753 387.447 117.66L379.284 114.451C378.057 113.968 377.146 112.912 376.85 111.628L374.909 103.222C374.774 102.635 374.773 102.025 374.906 101.437L377.075 91.8836C377.507 89.9816 376.504 88.0453 374.702 87.3008L371.103 85.8144C370.758 85.6722 370.396 85.5788 370.025 85.5369L360.961 84.5116C360.716 84.4839 360.475 84.4338 360.24 84.3617L347.904 80.5854C347.147 80.3537 346.476 79.9025 345.976 79.2891L336.669 67.8805C335.731 66.7301 335.507 65.1546 336.087 63.7882L338.514 58.075C338.906 57.1521 338.937 56.1157 338.601 55.171L335.318 45.9374C334.35 43.2157 330.905 42.3858 328.804 44.3683L324.967 47.9882C324.588 48.346 324.143 48.6261 323.656 48.813L308.011 54.8223C306.514 55.397 304.819 55.0229 303.704 53.8717L300.56 50.6273C298.895 48.9089 299.101 46.1227 301.001 44.668L316.523 32.7829C316.939 32.4641 317.289 32.0665 317.552 31.6128L326.064 16.9243C326.991 15.326 326.702 13.3013 325.366 12.0255L308.173 -4.39L297.209 -17.0933C296.203 -18.2586 294.618 -18.7433 293.133 -18.3399L282.7 -15.5068C281.521 -15.1866 280.553 -14.3454 280.071 -13.2227L277.338 -6.8463C276.937 -5.9108 276.907 -4.85758 277.256 -3.90119L281.565 7.93096C281.976 9.05709 282.869 9.93996 284 10.3366L286.183 11.1022C286.851 11.3365 287.57 11.3893 288.265 11.255L296.044 9.75314C297.375 9.49617 298.744 9.94365 299.666 10.9369C300.671 12.0189 300.984 13.5729 300.476 14.9594L299.61 17.3267C299.259 18.2858 298.554 19.0742 297.641 19.5305L290.573 23.06L286.214 25.0894C285.553 25.3973 284.988 25.8801 284.582 26.4855L282.631 29.3903C281.052 31.7409 277.598 31.7521 276.004 29.4118L275.733 29.0136C274.699 27.4955 274.832 25.4683 276.055 24.0981L279.643 20.0791C281.077 18.4726 280.982 16.0191 279.428 14.5284L276.46 11.6813C276.216 11.448 276.004 11.185 275.826 10.8983L269.837 1.21294C269.436 0.564507 268.858 0.0441666 268.172 -0.286787L253.099 -7.54971C252.46 -7.85769 251.751 -7.99014 251.043 -7.93347L236.809 -6.79287C236.619 -6.77765 236.428 -6.77602 236.238 -6.78803L216.316 -8.0446C215.341 -8.10607 214.378 -7.80893 213.607 -7.20918L204.822 -0.371983C204.02 0.252459 203.01 0.547939 201.998 0.454399L191.343 -0.530001L179.179 -0.850462C176.125 -0.930897 174.112 2.30228 175.531 5.00687L176.155 6.19486C176.379 6.62144 176.678 7.00408 177.038 7.32434L184.483 13.95L192.815 22.8841C193.158 23.2514 193.566 23.5509 194.02 23.767L196.285 24.8467C197.932 25.6315 198.84 27.4315 198.491 29.2224L194.967 47.3123C194.662 48.8823 195.32 50.4835 196.643 51.3836L201.232 54.5079C202.575 55.4224 204.339 55.4332 205.693 54.5354L209.965 51.7037C211.712 50.5459 214.056 50.9324 215.338 52.5897L218.848 57.1247C218.985 57.3012 219.136 57.4661 219.3 57.6174L228.663 66.25L230.062 67.2516C231.336 68.1643 231.959 69.7369 231.657 71.2748L230.903 75.11L229.463 86.3793C229.278 87.8235 229.893 89.2539 231.067 90.114L238.984 95.9101C239.256 96.1092 239.501 96.3419 239.715 96.6027L241.762 99.1007C243.412 101.116 242.727 104.146 240.371 105.255L238.893 105.95L233.735 107.786C232.375 108.27 230.859 107.984 229.77 107.037L227.772 105.301C227.139 104.75 226.712 104 226.562 103.174L226.066 100.435C225.777 98.84 223.865 98.1624 222.637 99.2197C221.278 100.389 219.173 99.4236 219.173 97.631V95.58L218.547 89.5379C218.467 88.7566 218.617 87.9688 218.981 87.2727L219.792 85.7218C221.367 82.7087 218.385 79.3453 215.205 80.5483C214.463 80.8287 213.832 81.3397 213.403 82.0061L207.325 91.4484C207.158 91.7086 206.961 91.9484 206.738 92.1632L204.677 94.1502C203.895 94.9041 203.453 95.9436 203.453 97.0299V98.9726C203.453 99.4536 203.54 99.9306 203.709 100.381L204.141 101.529C205.057 103.963 203.442 106.61 200.859 106.911L198.453 107.19L192.463 107.44L185.011 108.258C183.95 108.375 182.98 108.91 182.316 109.745L181.371 110.934C180.508 112.019 180.269 113.474 180.739 114.778L180.787 114.913C181.57 117.088 184.028 118.148 186.148 117.226L188.389 116.25C189.4 115.81 190.548 115.806 191.562 116.241L194.363 117.442C196.1 118.187 197.079 120.047 196.709 121.9L196.592 122.487C196.283 124.039 195.087 125.263 193.543 125.608L187.275 127.01C186.831 127.109 186.372 127.132 185.92 127.077L176.777 125.967C175.491 125.811 174.695 124.487 175.161 123.278C175.811 121.592 174.055 119.983 172.432 120.777L164.885 124.47C162.505 125.635 161.895 128.751 163.66 130.727L166.861 134.311C167.283 134.783 167.812 135.149 168.403 135.377L177.25 138.794C178.051 139.103 178.731 139.662 179.19 140.387L181.746 144.428C182.915 146.276 182.383 148.72 180.552 149.915L177.933 151.626C176.196 152.76 175.615 155.034 176.594 156.862L178.492 160.409C178.652 160.708 178.85 160.986 179.081 161.236L190.219 173.291C191.287 174.447 192.933 174.869 194.425 174.37L204.16 171.114C205.934 170.521 207.881 171.236 208.85 172.836L211.437 177.107C211.919 177.904 212.109 178.844 211.972 179.766L211.201 184.961C211.037 186.069 210.415 187.058 209.487 187.686L204.882 190.804C204.268 191.22 203.551 191.457 202.81 191.488L183.956 192.294C183.557 192.311 183.157 192.268 182.77 192.167L165.944 187.751C165.487 187.631 165.055 187.432 164.668 187.161L154.706 180.199C153.324 179.234 152.696 177.505 153.136 175.878L155.917 165.577C156.637 162.91 154.501 160.334 151.747 160.546L142.376 161.271C139.507 161.492 137.803 164.581 139.147 167.126L139.307 167.428C139.626 168.033 140.095 168.545 140.668 168.917L145.668 172.158C147.525 173.362 148.051 175.846 146.842 177.7L145.846 179.227C145.477 179.793 144.97 180.256 144.373 180.574L137.749 184.094C136.338 184.844 135.508 186.362 135.639 187.955L136.101 193.565C136.149 194.141 136.321 194.701 136.605 195.204L139.582 200.474C139.801 200.862 140.084 201.211 140.418 201.505L144.159 204.807C144.884 205.447 145.352 206.328 145.478 207.287L145.604 208.253C145.789 209.668 145.206 211.075 144.074 211.945L139.075 215.782C137.507 216.986 137.12 219.189 138.183 220.856L138.854 221.907C139.529 222.964 140.896 223.336 142.014 222.768L142.387 222.578C144.125 221.693 146.09 223.289 145.58 225.172C145.394 225.862 145.546 226.601 145.991 227.16L148.653 230.51L154.532 236.571C155.305 237.368 156.373 237.808 157.482 237.786L160.305 237.73C162.769 237.682 164.432 235.194 163.535 232.898C163.434 232.64 163.304 232.395 163.146 232.167L159.785 227.325C159.365 226.72 159.121 226.011 159.078 225.276L158.643 217.78L157.076 209.245C156.89 208.23 157.383 207.211 158.295 206.728C159.587 206.044 161.184 206.683 161.646 208.07L167.003 224.15L170.493 233.51L171.876 239.169C172.462 241.565 170.761 243.914 168.302 244.106L163.383 244.49L151.746 244.704C150.508 244.727 149.35 245.322 148.611 246.315L138.659 259.688C138.338 260.118 137.935 260.48 137.472 260.751L132.224 263.826C130.596 264.779 128.524 264.466 127.251 263.074L121.034 256.279C120.412 255.601 119.576 255.157 118.666 255.022L110.51 253.819C109.09 253.609 107.891 252.655 107.369 251.317L106.213 248.36L102.771 233.764C102.368 232.056 100.898 230.81 99.1467 230.692L93.2535 230.295C92.9082 230.272 92.5614 230.293 92.2217 230.359L82.2356 232.3C80.4728 232.643 78.6978 231.769 77.8947 230.163L76.5257 227.425C76.2672 226.908 76.1238 226.341 76.1054 225.763L75.7743 215.382C75.767 215.154 75.7792 214.927 75.8107 214.701L77.2634 204.3L77.4296 198.41C77.4793 196.646 76.3683 195.059 74.6948 194.502L68.8934 192.57L56.1047 188.193C55.1764 187.876 54.3971 187.228 53.9153 186.373L51.0993 181.377C50.0296 179.479 47.6378 178.786 45.7194 179.819L40.1774 182.801C39.5337 183.147 38.9972 183.663 38.6262 184.293L35.6186 189.399C34.2747 191.68 31.125 192.05 29.2893 190.141L24.5888 185.255C23.7908 184.426 23.3889 183.292 23.4856 182.146L24.1931 173.762C24.2829 172.699 24.7942 171.715 25.6133 171.03L33.828 164.162C35.5851 162.693 34.2505 159.847 31.9976 160.259C30.8966 160.46 29.8173 159.813 29.4747 158.748L26.4634 149.38L20.328 131.59C20.1728 131.14 19.9387 130.722 19.6365 130.354L11.7716 120.787C11.1782 120.065 10.8563 119.158 10.8616 118.224L10.9675 99.6065C10.9714 98.9331 11.1452 98.2715 11.4728 97.6832L15.3359 90.746C16.3341 88.9534 15.8142 86.6962 14.1322 85.521L12.2962 84.2381C11.3769 83.5958 10.7694 82.5969 10.622 81.4851L8.72528 67.1842C8.5024 65.5036 7.24429 64.1461 5.58547 63.7962L-10.9103 60.3172C-11.8497 60.119 -12.6865 59.5896 -13.268 58.8256L-22.0862 47.2378C-22.7328 46.3881 -23.6923 45.8322 -24.7511 45.6938L-32.3883 44.6959C-33.7504 44.518 -35.1085 45.0514 -35.9855 46.1088L-40.712 51.8081C-41.4169 52.658 -42.4417 53.1787 -43.5437 53.247L-49.8383 53.6368C-52.0804 53.7757 -53.7685 55.733 -53.5764 57.9711L-53.2467 61.8134C-53.2005 62.3522 -53.0455 62.876 -52.7911 63.3532L-50.0605 68.4751C-49.0243 70.4187 -49.7544 72.8343 -51.6936 73.8786L-56.1053 76.2545C-57.2421 76.8667 -58.0134 77.99 -58.1766 79.2708L-59.0466 86.1L-60.5366 95.96L-60.6325 101.39Z" fill="#CCDCBF"/>
</g>
<defs>
<clipPath id="clip0_3320_1094">
<rect width="491.29" height="454.71" fill="white" transform="translate(-60.6666 -19)"/>
</clipPath>
</defs>
</svg>
