<svg width="1440" height="704" viewBox="0 0 1440 704" fill="none" xmlns="http://www.w3.org/2000/svg">
<path opacity="0.6" d="M-12.999 275.645H-9.28462L-1.85521 283.135V313.096L5.57358 320.586V365.527L13.003 373.016H20.4292L27.8587 375.513H35.2881L40.2409 380.507L42.7137 382.379L50.1431 385.503H57.5719L65.0013 384.255L72.4307 380.51V373.016L79.8595 365.527L87.2889 360.533L91.0033 358.037L94.7183 356.54H102.147L109.58 355.54H124.438L131.867 350.547L139.299 343.056L146.728 335.566V320.586L139.299 313.096L146.728 305.606L154.155 301.858L161.584 299.611H169.013L176.442 298.114H183.874L191.303 305.605V313.095L193.779 320.585L195.016 328.076V335.566L198.73 343.056V350.547L201.207 358.037L203.683 365.527L206.16 369.272L209.874 373.016L213.589 380.507V402.977L221.018 410.467V417.957L228.447 425.447L230.92 432.937L235.873 437.93L237.731 440.427L243.302 447.917V455.408L245.779 462.898L250.732 470.388L255.684 477.878V500.347L254.448 507.838L258.162 515.328L265.592 519.073H287.881L295.31 517.824L302.739 515.328L310.168 507.838V477.878L302.739 470.388L310.168 462.898L317.597 455.408L325.027 451.662L332.456 449.415L336.17 447.918L339.885 444.174L343.599 440.429L347.314 432.939L352.267 425.449L354.743 421.704L357.22 417.959V402.977L354.743 395.487L347.314 387.997L339.885 380.507L336.17 373.016L332.456 365.527L325.027 358.037L317.597 354.292L310.168 353.043H302.739L295.31 354.292L287.881 355.54L280.451 358.037H273.023L265.593 355.54L258.164 353.043L250.735 352.419L243.305 350.547H235.876L232.162 343.056L235.876 335.566L243.305 331.821L245.782 328.076L247.019 320.586L248.255 313.096L248.874 305.606L248.255 298.115L250.732 290.625L243.302 283.135H235.873L228.444 284.632L221.015 285.631H206.156L202.442 283.134L198.727 279.389L195.013 275.644L191.298 268.153V260.667L190.062 253.176L191.298 245.686V238.196L196.251 230.706L198.724 228.833H206.162L213.591 229.208L221.02 230.704H235.878L243.305 226.959L250.735 223.214H258.164L265.593 215.724L273.025 213.228L280.453 208.235L287.881 200.743L295.311 193.251V170.782L302.741 163.292L310.17 155.802L317.599 148.312L322.552 140.821L325.029 137.076L326.514 133.331V118.351L325.029 110.861L317.599 107.116L310.17 105.868L302.741 103.371L295.311 99.6258L291.597 95.8802L287.883 92.1352L284.168 88.3902L280.453 80.8996L276.739 73.4097L273.025 65.9191L265.595 58.4292L258.166 50.9386L254.451 43.4486L258.166 35.9581L265.595 28.4675H280.453L287.881 32.2124L295.31 33.4605H310.168L317.597 32.2124H332.456L339.885 28.4668H347.314L354.743 20.9769H369.602L377.031 23.4744L384.461 28.4675V35.9581L386.933 43.4486L391.886 50.9386V73.4097L399.316 80.8996V88.3902L404.268 95.8802L406.745 103.371V110.861H421.606L429.037 118.351L436.466 125.841V133.331L429.037 140.821H443.895L447.61 148.312L451.324 155.802V163.292L443.895 170.782L436.466 172.655H429.037L421.608 170.782L414.178 168.285H391.891L389.415 170.782L384.462 174.527L380.748 178.273L378.89 185.763L377.032 189.508L374.556 193.253L373.32 200.743L372.084 208.233L369.608 210.73L362.178 211.978L354.749 215.724L347.32 223.214V238.194L349.796 245.684V268.155L351.032 275.645L354.747 283.135L362.176 290.625L369.606 294.37L373.32 298.115L377.031 300.612L384.461 305.606L391.889 313.096L399.319 316.841H414.177L421.606 313.096L429.036 305.606L436.465 298.115L443.894 290.625H451.323L458.752 298.115V305.606L455.038 313.096L458.752 320.586V328.076H466.182L473.61 335.566L468.658 343.056L466.182 350.547V373.016L468.039 380.507V395.487L471.134 402.977L473.607 410.467H481.037L488.466 402.977L495.895 395.487L503.324 392.99H510.757L518.186 393.614L525.616 395.487L533.045 402.977L540.474 410.467V425.447L547.903 432.937L555.332 434.81L562.762 432.937L566.476 425.447L570.19 417.957V410.466L577.62 402.976L585.049 395.486H592.478L599.907 397.983L607.336 402.976H622.195L629.624 395.486H637.053L644.483 402.977L651.911 405.474L656.864 410.467L659.341 411.964L666.77 416.707L670.485 417.956L674.199 420.452L681.628 425.446L689.058 427.944H696.487L703.917 429.192H726.204L729.919 425.447V417.957L733.633 414.212L737.347 410.467L741.062 408.595L748.491 407.971L755.921 402.977H763.35L767.064 410.467L770.779 417.957V425.447L774.493 432.937V440.427L773.257 447.917L770.78 451.662L767.066 455.408L763.351 459.153L755.922 462.898H726.205L718.776 465.394L713.823 470.388L711.347 472.885L706.394 477.878L703.918 480.374L698.965 485.368L698.346 492.858L696.489 500.347L689.059 504.092L681.63 502.844L674.201 500.347H666.771L659.343 502.844L651.913 504.092L644.483 507.838H637.053V530.308L633.339 537.798L629.624 541.543L625.909 545.288L622.195 552.778V560.268L629.624 567.758H644.483L651.911 564.013L659.341 560.268L666.77 558.395H674.199L681.628 560.268L689.058 564.013H703.917L711.345 560.268L718.775 557.771L726.204 555.275H733.633L737.347 552.778L741.062 549.033L744.777 545.288L748.491 542.791L755.921 537.798L763.35 534.053L770.779 530.308H778.208L785.637 532.803H793.067L800.496 534.053H807.925L815.354 537.798V552.781L811.64 560.271L807.925 564.016L805.449 567.761L800.496 572.755L796.781 575.251L793.067 582.741H778.208V590.231H800.496L807.925 594.725L810.897 597.718L812.877 605.208L813.497 612.698L815.354 616.443L822.784 620.187L830.213 623.932L837.642 627.677V635.167L840.118 642.657L837.642 650.147V657.637L830.213 665.127H822.784V695.087L830.213 702.576H859.929L867.358 695.087L871.073 687.597V680.107L874.788 676.362L878.502 672.617L882.216 668.872L885.931 665.127L889.646 661.382L893.36 657.637L897.075 650.147H904.504L911.934 642.657L919.363 650.147L926.792 657.637L934.222 665.127V672.617L941.65 680.107L949.08 687.597H963.937L971.367 680.107L978.796 672.617L982.511 665.127L986.225 661.382L989.939 657.637L993.654 650.147H1001.08L1008.51 642.657H1015.94L1023.37 638.912L1030.8 637.664L1034.51 635.167L1038.23 631.422L1041.94 627.677V612.697L1045.66 605.207L1053.09 597.717L1060.52 593.972L1064.23 590.227L1067.95 582.737L1075.38 575.247V567.758L1082.8 564.013H1105.09L1108.81 567.758L1112.52 571.503L1119.95 575.247L1127.38 582.737L1134.81 590.227V597.717H1142.24L1149.67 590.227H1164.53L1171.95 597.717V605.207H1186.81V597.717L1190.53 590.227L1189.29 582.737L1186.81 575.247L1179.39 567.758H1164.53L1157.1 564.013L1149.67 560.268V552.781L1145.95 545.291V530.311L1142.24 526.566L1134.81 522.821L1127.38 515.331V500.347L1134.81 492.858V485.365L1127.38 482.868L1119.95 481.62H1112.52L1105.09 480.372L1097.66 477.875L1090.23 470.388V462.898L1097.66 459.153L1101.38 455.408L1105.09 452.911L1112.52 447.917L1114.38 440.427L1115 432.937L1112.52 430.44L1105.09 425.447H1082.81L1079.09 417.957V402.977L1082.81 399.232L1090.23 395.487H1105.09L1112.52 392.99L1117.47 387.997L1119.95 384.252L1123.67 380.507L1127.38 376.761H1134.81L1142.24 374.514L1149.67 373.018H1171.96V343.056L1179.39 335.566V328.076L1186.81 320.586L1194.24 313.096L1201.67 305.606L1209.1 308.105L1214.05 313.098L1216.53 316.843L1220.24 320.588L1223.96 328.076L1231.39 335.566V358.037L1227.67 365.527L1226.44 373.016L1227.67 380.507L1231.39 387.997L1235.1 395.487L1238.82 402.977L1246.25 410.466H1253.68L1261.1 407.969H1275.96L1279.68 410.466L1283.39 412.962L1290.82 417.956L1294.54 425.446L1298.25 432.936L1294.54 440.426V447.916L1295.77 455.406L1298.25 462.896L1305.68 470.388H1313.11L1320.54 462.898L1327.97 455.408H1335.4L1342.83 451.662L1350.25 452.911H1372.54L1379.97 451.662L1387.4 447.917V440.427L1379.97 432.937L1372.54 425.447V417.957L1365.11 410.466H1357.69L1350.26 402.976L1348.4 395.486L1347.78 387.996L1350.26 380.506L1357.69 373.016L1365.11 365.527L1357.69 358.037V335.566H1342.83L1335.4 328.076V320.586L1342.83 316.841L1350.25 313.096V298.115L1342.83 295.122L1335.4 293.125H1327.97L1320.54 294.373L1316.82 298.118L1313.11 301.858L1305.68 305.603L1298.25 309.348L1294.54 305.603L1290.82 301.858L1287.11 298.113L1283.39 294.368L1279.68 290.623L1275.97 286.878L1272.25 283.133L1268.54 279.39L1266.06 275.645L1268.54 268.155L1275.96 260.667L1283.39 256.922L1287.11 253.176L1290.82 250.68L1298.25 245.686H1305.68L1313.11 238.194H1320.54L1327.97 241.939H1342.83L1350.25 238.194L1352.11 230.704V223.214L1350.25 215.724L1347.78 208.233L1342.83 200.743V185.763L1350.25 178.273H1357.69L1365.11 180.769L1372.54 182.018H1379.97L1387.4 180.769L1391.12 178.273L1394.83 174.527L1398.54 170.782V148.312L1400.4 140.821L1402.26 138.324L1407.21 133.331L1409.69 131.458L1415.26 125.841L1417.12 123.968L1422.69 118.351L1424.55 115.854L1429.5 110.86L1431.98 107.115L1434.45 103.37L1435.69 95.8795L1437.92 88.3896L1439.4 84.6433L1443.12 80.8977V73.4078L1444.36 65.9172L1446.84 58.4285V50.9353L1448.69 43.4454L1452.14 35.9548L1454.27 30.9611L1455.5 28.4642L1458.72 20.9743L1459.84 13.4837L1461.69 10.9868L1467.64 5.99373L1469.12 4.74497L1476.55 1H1480.27" stroke="#EAEAEB" stroke-width="2" stroke-linecap="round" stroke-linejoin="round"/>
</svg>
