<svg width="580" height="643" viewBox="0 0 580 643" fill="none" xmlns="http://www.w3.org/2000/svg">
<g clip-path="url(#clip0_2791_3164)">
<path fill-rule="evenodd" clip-rule="evenodd" d="M0.0481796 170.166C0.0177392 171.889 0.775129 173.532 2.10526 174.628L8.66594 180.035C8.89076 180.221 9.10093 180.423 9.29455 180.641L14.6553 186.668C15.5592 187.684 16.7992 188.34 18.1478 188.516L22.9387 189.142C24.6134 189.36 26.1026 190.316 26.9988 191.748L29.8523 196.306C31.0165 198.165 33.1514 199.183 35.3291 198.918L44.7696 197.766C46.5684 197.547 48.3634 198.203 49.5967 199.53L61.4957 212.341C62.8558 213.805 63.3418 215.878 62.7741 217.795L62.2095 219.7C61.4306 222.329 62.6498 225.137 65.1018 226.363L65.6985 226.662C66.4604 227.043 67.1264 227.591 67.6468 228.265L74.5387 237.2C74.9451 237.727 75.2554 238.322 75.4551 238.956L77.4962 245.443C78.3467 248.147 76.8304 251.025 74.1201 251.852L73.5129 252.037C72.978 252.2 72.501 252.513 72.1383 252.939C70.8957 254.397 71.3653 256.636 73.0893 257.473L74.7029 258.256C75.4578 258.622 76.0896 259.2 76.521 259.92L77.3154 261.245C78.0766 262.515 78.3092 264.033 77.9632 265.473L76.5706 271.268C76.2322 272.675 75.3667 273.9 74.1524 274.688L72.3175 275.88C70.588 277.003 69.6072 278.978 69.7579 281.035L70.3424 289.007C70.486 290.966 71.6365 292.711 73.381 293.614L78.9868 296.517C79.9447 297.013 80.7406 297.773 81.2807 298.707L87.9472 310.23C88.1243 310.536 88.2723 310.859 88.3892 311.192L91.0071 318.666C91.5813 320.306 92.877 321.59 94.5212 322.15L101.26 324.443L108.488 327.878C110.618 328.889 111.897 331.117 111.696 333.467L111.352 337.483C111.225 338.964 110.521 340.334 109.391 341.299L102.979 346.779C101.986 347.627 101.317 348.793 101.087 350.078L100.112 355.506C99.9469 356.428 100.013 357.376 100.305 358.266L106.503 377.167C106.663 377.654 106.888 378.116 107.172 378.542L114.15 389.01L122.719 401.394C124.14 403.448 126.926 404.018 129.04 402.689C129.686 402.282 130.222 401.724 130.602 401.062L134.787 393.773L141.244 385.081C141.647 384.538 142.145 384.073 142.712 383.705L152.305 377.501C152.621 377.296 152.915 377.061 153.185 376.798L160.723 369.433L165.031 366.01C166.382 364.937 168.372 365.328 169.217 366.833C169.744 367.774 169.685 368.935 169.063 369.817L164.154 376.783C163.636 377.517 162.952 378.117 162.156 378.534L152.551 383.568C152.121 383.793 151.722 384.073 151.363 384.4L146.151 389.16C145.869 389.417 145.614 389.703 145.389 390.011L136.37 402.423L132.563 406.631C130.855 408.52 130.62 411.319 131.99 413.466L136.2 420.063L139.091 425.834C139.513 426.676 139.718 427.609 139.687 428.55L139.258 441.803C139.218 443.04 139.585 444.256 140.303 445.265L144.383 450.998C144.693 451.433 144.94 451.91 145.116 452.415L147.176 458.323C147.265 458.579 147.372 458.827 147.497 459.067L156.546 476.494C156.86 477.098 157.062 477.753 157.142 478.428L158.315 488.228C158.499 489.766 158.044 491.312 157.056 492.506L155.27 494.662C153.689 496.572 151.048 497.228 148.756 496.281L129.298 488.24C128.61 487.956 127.986 487.539 127.46 487.013L117.377 476.931C116.644 476.198 116.127 475.277 115.882 474.269L111.323 455.527L109.852 450.72C108.855 447.465 105.229 445.822 102.124 447.22L94.5546 450.628C91.4007 452.048 90.3924 456.036 92.4927 458.784C94.3129 461.166 93.8301 464.577 91.4203 466.361L83.1775 472.46C80.7508 474.256 80.163 477.641 81.8422 480.15L86.9696 487.81L91.6801 493.438C93.5995 495.731 93.4011 499.123 91.2273 501.176L86.9025 505.262C84.3581 507.666 84.5875 511.781 87.3833 513.888L97.7401 521.69L101.213 525.044C102.157 525.955 103.388 526.51 104.697 526.613L119.34 527.765C121.463 527.932 123.312 529.277 124.124 531.246L132.663 551.956C133.018 552.817 133.155 553.751 133.062 554.678L132.133 563.898C132.02 565.021 131.574 566.084 130.852 566.95L125.204 573.73C125.006 573.968 124.789 574.189 124.555 574.391L112.57 584.738C110.681 586.369 110.085 589.047 111.104 591.326L122.051 615.805C122.538 616.894 122.669 618.108 122.423 619.275L119.182 634.705C118.369 638.574 121.676 642.061 125.583 641.454L137.535 639.597C137.823 639.552 138.113 639.53 138.404 639.53H144.962C147.337 639.53 149.177 637.452 148.89 635.094C148.782 634.205 148.375 633.378 147.736 632.75L137.783 622.964L130.377 615.19L123.646 607.021C123.199 606.479 122.858 605.858 122.638 605.191L120.052 597.323C119.212 594.771 120.497 592.005 122.988 590.999C125.239 590.09 127.819 590.893 129.156 592.919L139.009 607.841C139.367 608.383 139.816 608.859 140.336 609.249L150.174 616.625C151.496 617.616 152.318 619.136 152.425 620.784L153.187 632.603C153.361 635.298 155.416 637.493 158.094 637.844L174.693 640.023C176.649 640.28 178.477 638.997 178.9 637.07L180.598 619.462C180.635 619.084 180.633 618.703 180.593 618.325L179.417 607.199C179.121 604.397 180.933 601.805 183.666 601.12L184.433 600.928C186.266 600.469 187.749 599.124 188.384 597.345L191.448 588.762C191.666 588.152 191.777 587.509 191.777 586.861V577.545C191.777 576.013 191.155 574.545 190.053 573.48L181.19 564.914L175.675 558.346C174.49 556.934 174.067 555.033 174.542 553.252L175.445 549.868C175.744 548.75 175.692 547.567 175.296 546.479L173.12 540.491C172.969 540.077 172.868 539.646 172.817 539.208L171.059 523.988C170.991 523.402 171.016 522.809 171.131 522.231L172.724 514.27L173.419 507.21C173.641 504.966 175.174 503.068 177.321 502.38L183.664 500.347L189.02 498.456C191.47 497.591 193.015 495.167 192.765 492.581L191.861 483.21C191.815 482.738 191.382 482.402 190.913 482.475C189.931 482.63 189.567 481.235 190.499 480.889L194.988 479.225C195.08 479.191 195.176 479.167 195.274 479.155L205.982 477.771C207.676 477.552 207.904 475.19 206.283 474.651C205.182 474.284 204.82 472.908 205.599 472.047L209.079 468.199C210.072 467.101 211.501 466.501 212.981 466.559L222.763 466.945C223.507 466.975 224.25 466.857 224.949 466.598L237.135 462.085C237.816 461.833 238.442 461.452 238.979 460.963L243.206 457.113C243.959 456.426 244.513 455.549 244.809 454.573L246.057 450.456C246.539 448.867 247.695 447.57 249.219 446.909L252.843 445.338C253.968 444.85 255.221 444.742 256.413 445.028L271.51 448.657L285.107 453.053L295.487 456.319C296.762 456.72 298.137 456.657 299.369 456.141L303.519 454.402C304.342 454.057 305.041 453.471 305.524 452.721C306.778 450.774 306.314 448.189 304.461 446.799L301.718 444.744C301.119 444.295 300.615 443.731 300.236 443.086L297.277 438.057L296.268 436.397C294.981 434.282 296.011 431.52 298.369 430.765C300.584 430.055 302.915 431.469 303.308 433.761L303.374 434.145C303.535 435.084 304.014 435.94 304.731 436.569L309.991 441.189C310.683 441.796 311.512 442.225 312.406 442.439L319.599 444.16C321.61 444.641 323.723 443.986 325.109 442.453L327.256 440.078L330.26 436.334C331.271 435.074 331.695 433.442 331.425 431.849L330.605 427.021C330.28 425.109 328.998 423.497 327.208 422.75L321.616 420.417L312.697 417.057C312.418 416.952 312.167 416.785 311.962 416.569C310.79 415.332 311.635 413.291 313.339 413.246L315.365 413.192C315.658 413.184 315.951 413.221 316.233 413.302L324.37 415.633C325.227 415.879 326.013 416.323 326.665 416.93L331.469 421.402C332.72 422.567 334.43 423.103 336.122 422.861L345.079 421.58C345.558 421.511 346.044 421.505 346.524 421.56L352.468 422.242C353.19 422.325 353.92 422.268 354.62 422.074L358.732 420.937C359.946 420.601 360.999 419.841 361.7 418.795C362.369 417.796 362.675 416.597 362.568 415.4L362.428 413.835C362.068 409.825 365.896 406.735 369.74 407.932L370.871 408.284C371.889 408.601 372.798 409.201 373.49 410.012L379.551 417.115C379.628 417.205 379.698 417.301 379.759 417.403C380.638 418.862 379.561 420.718 377.857 420.678L376.098 420.637C375.123 420.614 374.192 421.047 373.583 421.809L370.818 425.263C370.039 426.236 369.604 427.438 369.579 428.684L369.447 435.251C369.438 435.716 369.372 436.177 369.25 436.625L368.039 441.068C367.914 441.527 367.85 442.001 367.85 442.477V446.569C367.85 448.129 366.344 449.247 364.851 448.794C364.182 448.591 363.64 448.098 363.375 447.452L359.016 436.827L358.192 434.984C357.297 432.986 355.329 431.683 353.14 431.641L349.922 431.579C348.618 431.554 347.347 431.98 346.322 432.785L326.876 448.052C326.088 448.671 325.479 449.487 325.11 450.419L322.301 457.517C322.082 458.071 321.776 458.587 321.395 459.046L313.53 468.524C312.83 469.368 312.39 470.397 312.264 471.485L311.588 477.343C311.463 478.418 311.65 479.507 312.127 480.479L315.043 486.433C315.943 488.27 317.764 489.477 319.807 489.591L320.491 489.629C322.006 489.713 323.423 490.405 324.42 491.549L325.874 493.215C327.426 494.993 326.988 497.742 324.962 498.951C323.87 499.602 322.525 499.662 321.38 499.11L317.388 497.184C315.356 496.204 312.936 496.526 311.231 498.002L307.888 500.897C307.637 501.113 307.357 501.294 307.056 501.432C304.489 502.61 301.655 500.419 302.148 497.638L303.36 490.809C303.422 490.46 303.451 490.105 303.447 489.749L303.292 477.57C303.278 476.424 302.915 475.309 302.252 474.373L300.058 471.276C298.881 469.614 296.901 468.714 294.874 468.92L285.466 469.874C284.643 469.957 283.812 469.859 283.031 469.586L278.082 467.856C275.067 466.803 271.778 468.454 270.822 471.501L266.636 484.846C266.149 486.397 265.018 487.664 263.53 488.323L254.187 492.46C253.742 492.657 253.273 492.796 252.792 492.873L241.275 494.719C239.952 494.93 238.598 494.666 237.452 493.972L233.589 491.633C232.889 491.21 232.29 490.639 231.832 489.961L229.859 487.04C228.589 485.159 226.316 484.22 224.088 484.656L203.41 488.7C200.142 489.385 199.644 493.844 202.651 495.298C203.263 495.594 203.952 495.708 204.627 495.623L204.714 495.612C207.48 495.263 209.673 497.903 208.823 500.558L208.06 502.941C207.791 503.781 207.731 504.674 207.886 505.542L208.519 509.082C208.752 510.388 209.437 511.57 210.454 512.422L213.842 515.261C214.814 516.074 215.283 517.341 215.075 518.591C214.77 520.436 213.095 521.735 211.232 521.572L207.457 521.244C206.776 521.184 206.091 521.291 205.46 521.555L203.195 522.505C201.239 523.324 200.886 525.945 202.555 527.254C202.775 527.426 202.967 527.631 203.126 527.861L209.189 536.635C209.453 537.017 209.763 537.365 210.112 537.671L214.121 541.189C216.415 543.202 219.893 543.031 221.978 540.802L222.819 539.903C223.062 539.644 223.279 539.363 223.469 539.063L227.007 533.472C227.504 532.687 227.799 531.793 227.868 530.867L228.019 528.833C228.189 526.539 229.731 524.578 231.919 523.871L233.861 523.244C234.149 523.151 234.444 523.081 234.743 523.035L240.141 522.207C241.594 521.985 242.903 521.205 243.791 520.033L247.354 515.33L255.575 506.435C255.851 506.137 256.094 505.81 256.299 505.46L259.723 499.629C260.331 498.594 261.558 498.096 262.715 498.416C264.34 498.865 265.139 500.696 264.362 502.192L256.543 517.26C256.178 517.963 255.67 518.582 255.051 519.076L248.23 524.517L237.29 531.033L228.702 537.448C228.435 537.647 228.186 537.869 227.958 538.113L222.262 544.195C220.003 546.607 220.285 550.433 222.873 552.488L229.903 558.068C231.961 559.701 232.623 562.537 231.5 564.913L228.587 571.074C227.844 572.646 227.865 574.472 228.645 576.026L231.65 582.016L236.107 594.474C236.534 595.67 237.352 596.687 238.429 597.361L262.923 612.706C264.825 613.897 267.252 613.851 269.107 612.587L273.466 609.619C274.384 608.993 275.098 608.111 275.518 607.083L281.135 593.324L288.085 581.197C288.88 579.811 290.224 578.826 291.785 578.485L303.716 575.881C304.356 575.741 305.015 575.714 305.665 575.8L323.99 578.231C324.404 578.285 324.823 578.294 325.239 578.257L335.852 577.304C336.123 577.279 336.397 577.275 336.669 577.29L339.292 577.434C341.091 577.534 342.735 578.484 343.718 579.994L344.751 581.581C346.482 584.239 345.688 587.801 342.991 589.472L338.21 592.434L325.932 600.705C323.644 602.246 322.803 605.213 323.94 607.726L328.496 617.788C329.172 619.28 330.462 620.406 332.031 620.874L339.61 623.134L341.537 623.684C344.562 624.549 346.299 627.715 345.404 630.73L344.942 632.284C344.201 634.779 345.259 637.458 347.506 638.773L351.215 640.945C352.382 641.628 353.755 641.87 355.085 641.628L363.739 640.052C365.538 639.724 367.068 638.547 367.845 636.891L369.452 633.466C370.117 632.05 371.337 630.973 372.825 630.49L380.275 628.071C382.554 627.331 384.119 625.236 384.181 622.841L384.191 622.47C384.235 620.77 383.494 619.125 382.204 618.018C381.153 617.115 379.792 616.617 378.406 616.642L371.017 616.773L366.65 616.268C364.67 616.039 362.97 614.752 362.213 612.908L362.184 612.837C361.258 610.582 361.964 607.987 363.905 606.513C364.638 605.956 365.503 605.597 366.415 605.469L372.095 604.677C373.234 604.519 374.297 604.017 375.142 603.239L379.134 599.566C380.022 598.749 380.44 597.54 380.245 596.348C379.815 593.729 382.283 591.568 384.823 592.338L385.137 592.434L392.89 594.339C394.663 594.774 395.923 596.344 395.966 598.168C396.019 600.44 397.935 602.221 400.205 602.109L409.492 601.65C410.072 601.621 410.644 601.504 411.188 601.301L417.632 598.9C418.753 598.482 419.712 597.72 420.372 596.722L423.324 592.262C425.411 589.109 423.526 584.854 419.788 584.283C419.157 584.186 418.514 584.207 417.89 584.344L405.876 586.992C403.175 587.587 400.439 586.14 399.411 583.573L397.64 579.15C397.194 578.037 397.113 576.81 397.41 575.648L397.98 573.421C399.092 569.067 394.371 565.55 390.517 567.864C388.847 568.867 387.906 570.745 388.103 572.684L388.83 579.854C389.041 581.924 387.739 583.848 385.739 584.423L384.615 584.747C381.443 585.659 378.703 582.362 380.178 579.41C381.002 577.763 380.522 575.762 379.041 574.668L378.07 573.951C377.724 573.695 377.421 573.383 377.174 573.03L375.466 570.576C374.206 568.767 375.647 566.313 377.841 566.533C378.753 566.624 379.645 566.225 380.185 565.484L390.342 551.528C391.677 549.694 391.786 547.24 390.62 545.295L386.995 539.246C385.764 537.193 386.723 534.527 388.98 533.729C390.014 533.363 390.838 532.568 391.24 531.548L392.712 527.815C394.562 523.125 389.813 518.543 385.192 520.558L382.745 521.626C382.112 521.902 381.534 522.292 381.042 522.777L374.209 529.494C372.299 531.373 369.277 531.504 367.211 529.798C364.817 527.821 364.662 524.207 366.876 522.032L381.537 507.633C382.166 507.015 382.642 506.259 382.927 505.425L386.568 494.751C387.214 492.858 388.812 491.448 390.77 491.041L413.784 486.263C414.441 486.127 415.068 485.875 415.636 485.519L425.648 479.249C427.603 478.025 428.618 475.736 428.213 473.465L423.73 448.313C423.524 447.158 423.682 445.967 424.183 444.907L431.191 430.063C432.609 427.06 436.298 425.92 439.163 427.6L452.109 435.19C452.959 435.688 453.925 435.956 454.911 435.966L468.626 436.106C469.529 436.115 470.421 435.908 471.228 435.501L491.344 425.364L507.516 418.627C510.312 417.462 513.529 418.708 514.812 421.452L517.843 427.936C518.593 429.539 520.05 430.698 521.78 431.069L546.175 436.298C549.002 436.904 551.83 435.28 552.732 432.532L554.499 427.146C554.619 426.779 554.702 426.4 554.745 426.015L557.771 399.074C557.937 397.597 558.678 396.245 559.832 395.311L566.895 389.594C569.243 387.693 572.67 387.974 574.677 390.231L585.804 402.747C586.336 403.344 586.987 403.822 587.717 404.149L599.01 409.213C602.327 410.7 606.166 408.715 606.87 405.148L608.66 396.077L614.851 377.168C615.075 376.484 615.427 375.85 615.889 375.298L622.866 366.963C623.724 365.939 624.916 365.251 626.231 365.022L642.79 362.136C645.497 361.665 647.473 359.315 647.473 356.566V352.715C647.473 349.791 645.245 347.35 642.333 347.084L639.552 346.83C637.387 346.633 635.527 345.212 634.768 343.175L631.811 335.241C631.671 334.866 631.571 334.477 631.513 334.081L628.916 316.249C628.822 315.601 628.84 314.942 628.972 314.301L631.221 303.307C631.568 301.614 632.669 300.172 634.212 299.394L650.3 291.27L667.352 285.176C668.744 284.679 669.885 283.656 670.533 282.328L674.779 273.609C675.482 272.165 676.766 271.088 678.311 270.648L688.718 267.679C691.82 266.794 693.554 263.497 692.525 260.439L687.48 245.44C686.947 243.857 687.142 242.121 688.01 240.695L690.187 237.123C690.751 236.198 691.037 235.132 691.012 234.05L690.594 216.022C690.552 214.201 689.634 212.511 688.129 211.483L681.206 206.758C680.512 206.284 679.933 205.662 679.51 204.937L672.054 192.159C670.768 189.956 668.167 188.886 665.704 189.548L645.546 194.964C644.73 195.183 643.876 195.216 643.046 195.062L634.422 193.459C634.068 193.393 633.721 193.294 633.387 193.162L621.848 188.626C620.114 187.944 618.827 186.451 618.407 184.636L615.665 172.755C615.473 171.925 615.472 171.062 615.66 170.232L618.727 156.729C619.337 154.04 617.92 151.303 615.371 150.251L610.284 148.15C609.797 147.949 609.285 147.817 608.762 147.758L595.95 146.308C595.604 146.269 595.263 146.198 594.93 146.097L577.495 140.759C576.425 140.432 575.476 139.794 574.769 138.927L561.614 122.801C560.288 121.175 559.971 118.948 560.792 117.017L564.222 108.942C564.776 107.637 564.82 106.172 564.345 104.837L559.704 91.7858C558.336 87.9388 553.466 86.7658 550.497 89.568L545.075 94.6845C544.539 95.1902 543.909 95.5862 543.222 95.8503L521.107 104.344C518.992 105.156 516.596 104.628 515.02 103L510.576 98.4147C508.223 95.9858 508.514 92.0477 511.2 89.9915L533.138 73.1926C533.727 72.7419 534.221 72.1799 534.593 71.5386L546.625 50.7772C547.934 48.5181 547.526 45.6562 545.638 43.8531L521.337 20.6505L505.839 2.69502C504.418 1.048 502.177 0.362793 500.078 0.932956L485.331 4.93751C483.665 5.38999 482.297 6.57903 481.616 8.16593L477.752 17.1786C477.185 18.5009 477.144 19.9896 477.636 21.3414L483.728 38.0656C484.308 39.6573 485.571 40.9052 487.169 41.4658L490.255 42.5479C491.199 42.8791 492.215 42.9537 493.198 42.764L504.192 40.6411C506.073 40.2779 508.009 40.9104 509.313 42.3144C510.733 43.8436 511.175 46.0401 510.458 47.9999L509.233 51.3461C508.737 52.7016 507.741 53.816 506.45 54.4609L496.46 59.4497L490.299 62.3182C489.364 62.7533 488.566 63.4357 487.991 64.2916L485.234 68.3973C483.002 71.7197 478.12 71.7355 475.867 68.4277L475.484 67.8649C474.023 65.7191 474.211 62.8538 475.939 60.917L481.011 55.2363C483.038 52.9657 482.904 49.4978 480.707 47.3908L476.511 43.3666C476.167 43.0368 475.867 42.6649 475.616 42.2598L467.151 28.57C466.584 27.6535 465.767 26.918 464.797 26.4502L443.493 16.1844C442.589 15.7491 441.586 15.5619 440.587 15.642L420.467 17.2542C420.198 17.2757 419.928 17.278 419.659 17.261L391.501 15.4849C390.124 15.398 388.762 15.818 387.673 16.6657L375.255 26.3298C374.121 27.2124 372.694 27.63 371.263 27.4978L356.204 26.1064L339.009 25.6535C334.694 25.5398 331.848 30.1097 333.854 33.9325L334.735 35.6117C335.052 36.2146 335.474 36.7555 335.983 37.2081L346.507 46.5732L358.284 59.2011C358.768 59.7203 359.345 60.1436 359.986 60.449L363.189 61.9751C365.517 63.0844 366.799 65.6286 366.306 68.1599L361.326 93.7291C360.894 95.9482 361.825 98.2114 363.694 99.4837L370.181 103.9C372.08 105.192 374.572 105.208 376.486 103.939L382.524 99.9362C384.993 98.2997 388.307 98.846 390.119 101.188L395.08 107.598C395.273 107.848 395.487 108.081 395.719 108.295L408.954 120.497L410.93 121.912C412.731 123.202 413.612 125.425 413.185 127.599L412.12 133.02L410.083 148.948C409.822 150.99 410.691 153.012 412.351 154.227L423.541 162.42C423.925 162.701 424.273 163.03 424.575 163.399L427.467 166.929C429.8 169.778 428.832 174.06 425.501 175.628L423.413 176.611L416.122 179.206C414.2 179.89 412.057 179.486 410.517 178.147L407.694 175.693C406.798 174.915 406.195 173.854 405.984 172.687L405.283 168.815C404.874 166.561 402.171 165.603 400.435 167.098C398.514 168.75 395.54 167.386 395.54 164.852V161.953L394.655 153.413C394.541 152.309 394.754 151.195 395.268 150.211L396.414 148.019C398.64 143.76 394.425 139.006 389.93 140.707C388.883 141.103 387.99 141.825 387.384 142.767L378.793 156.113C378.557 156.481 378.278 156.82 377.963 157.124L375.05 159.932C373.945 160.998 373.32 162.467 373.32 164.002V166.748C373.32 167.428 373.443 168.103 373.682 168.739L374.293 170.362C375.587 173.803 373.305 177.544 369.653 177.968L366.253 178.363L357.787 178.717L347.253 179.873C345.754 180.038 344.382 180.794 343.444 181.975L342.108 183.656C340.889 185.19 340.551 187.245 341.214 189.089L341.283 189.28C342.39 192.354 345.864 193.853 348.86 192.548L352.027 191.169C353.457 190.547 355.08 190.542 356.512 191.157L360.471 192.854C362.927 193.907 364.31 196.535 363.788 199.156L363.623 199.984C363.185 202.178 361.495 203.908 359.312 204.396L350.453 206.378C349.825 206.518 349.177 206.55 348.538 206.473L335.615 204.904C333.797 204.684 332.672 202.812 333.331 201.103C334.25 198.719 331.768 196.445 329.473 197.568L318.806 202.787C315.442 204.434 314.579 208.838 317.075 211.632L321.599 216.697C322.196 217.365 322.943 217.882 323.779 218.205L336.284 223.034C337.416 223.471 338.377 224.26 339.025 225.286L342.638 230.997C344.29 233.609 343.539 237.064 340.951 238.754L337.249 241.171C334.794 242.774 333.972 245.988 335.356 248.573L338.039 253.586C338.265 254.009 338.545 254.402 338.871 254.754L354.614 271.794C356.123 273.427 358.451 274.024 360.56 273.319L374.319 268.717C376.826 267.879 379.579 268.889 380.949 271.151L384.604 277.187C385.287 278.314 385.554 279.643 385.361 280.946L384.272 288.288C384.039 289.855 383.161 291.252 381.849 292.14L375.34 296.548C374.473 297.135 373.459 297.47 372.412 297.515L345.762 298.654C345.197 298.678 344.632 298.617 344.085 298.474L320.303 292.233C319.657 292.063 319.047 291.781 318.499 291.398L304.419 281.558C302.466 280.193 301.578 277.75 302.199 275.45L306.13 260.891C307.148 257.121 304.129 253.479 300.236 253.78L286.991 254.804C282.935 255.117 280.528 259.483 282.427 263.08L282.652 263.507C283.103 264.361 283.766 265.086 284.577 265.611L291.643 270.193C294.269 271.894 295.013 275.405 293.304 278.025L291.896 280.183C291.374 280.984 290.657 281.639 289.814 282.088L280.45 287.064C278.456 288.123 277.284 290.269 277.469 292.52L278.122 300.45C278.189 301.265 278.432 302.055 278.834 302.767L283.042 310.216C283.352 310.764 283.751 311.257 284.223 311.673L289.51 316.341C290.535 317.245 291.198 318.49 291.375 319.846L291.554 321.211C291.815 323.211 290.991 325.2 289.39 326.429L282.325 331.853C280.109 333.554 279.561 336.669 281.065 339.024L282.013 340.51C282.966 342.004 284.898 342.53 286.478 341.727L287.006 341.458C289.463 340.208 292.24 342.463 291.52 345.125C291.256 346.101 291.471 347.144 292.1 347.936L295.863 352.67L304.173 361.237C305.265 362.363 306.775 362.985 308.343 362.954L312.332 362.875C315.815 362.807 318.166 359.291 316.898 356.046C316.755 355.681 316.571 355.334 316.348 355.013L311.598 348.168C311.004 347.313 310.659 346.311 310.598 345.272L309.984 334.677L307.769 322.613C307.506 321.178 308.203 319.739 309.491 319.056C311.317 318.088 313.575 318.992 314.228 320.953L321.8 343.68L326.733 356.91L328.688 364.909C329.515 368.295 327.111 371.616 323.635 371.887L316.684 372.43L300.235 372.732C298.485 372.765 296.849 373.605 295.804 375.01L281.737 393.911C281.284 394.52 280.713 395.031 280.059 395.414L272.641 399.76C270.34 401.107 267.411 400.665 265.612 398.698L256.824 389.094C255.946 388.134 254.765 387.507 253.478 387.317L241.95 385.616C239.943 385.32 238.248 383.97 237.509 382.08L235.877 377.9L231.011 357.27C230.442 354.855 228.364 353.093 225.888 352.927L217.558 352.366C217.07 352.333 216.58 352.364 216.1 352.457L201.985 355.201C199.494 355.685 196.985 354.449 195.85 352.179L193.914 348.309C193.549 347.578 193.347 346.777 193.32 345.961L192.852 331.287C192.842 330.966 192.859 330.644 192.904 330.325L194.957 315.623L195.192 307.298C195.262 304.805 193.692 302.561 191.327 301.774L183.127 299.044L165.05 292.857C163.738 292.408 162.637 291.493 161.956 290.284L157.976 283.223C156.464 280.54 153.083 279.561 150.371 281.02L142.538 285.235C141.628 285.725 140.87 286.454 140.346 287.344L136.094 294.561C134.195 297.786 129.743 298.308 127.148 295.611L120.504 288.704C119.376 287.532 118.808 285.93 118.945 284.309L119.945 272.46C120.072 270.956 120.795 269.566 121.952 268.598L133.564 258.89C136.047 256.814 134.161 252.792 130.976 253.373C129.42 253.657 127.894 252.744 127.41 251.238L123.154 237.997L114.482 212.852C114.263 212.216 113.932 211.624 113.504 211.105L102.388 197.582C101.549 196.562 101.094 195.28 101.102 193.959L101.251 167.644C101.257 166.693 101.502 165.757 101.965 164.926L107.426 155.12C108.837 152.587 108.102 149.396 105.724 147.735L103.129 145.922C101.83 145.014 100.971 143.602 100.763 142.031L98.082 121.817C97.767 119.442 95.9887 117.523 93.6441 117.028L70.3281 112.111C69.0003 111.831 67.8175 111.083 66.9957 110.003L54.5315 93.6238C53.6175 92.4228 52.2613 91.637 50.7648 91.4415L39.97 90.031C38.0448 89.7795 36.1251 90.5335 34.8856 92.028L28.2049 100.084C27.2086 101.285 25.7601 102.021 24.2024 102.117L15.3053 102.669C12.1363 102.865 9.7502 105.631 10.0217 108.795L10.4877 114.226C10.553 114.987 10.7721 115.728 11.1317 116.402L14.9913 123.642C16.4558 126.389 15.4239 129.803 12.6829 131.279L6.44721 134.638C4.84043 135.503 3.75014 137.091 3.51951 138.901L2.28979 148.554L0.183749 162.49L0.0481796 170.166Z" fill="#CCDCBF"/>
</g>
<defs>
<clipPath id="clip0_2791_3164">
<rect width="694.414" height="642.71" fill="white"/>
</clipPath>
</defs>
</svg>
