<svg width="296" height="132" viewBox="0 0 296 132" fill="none" xmlns="http://www.w3.org/2000/svg">
<g clip-path="url(#clip0_3958_111894)">
<path d="M214.942 -18.7539L212.927 -15.6936L211.627 -14.6888L209.726 -14.0478L193.264 -12.0766L191.953 -11.9166L178.911 -10.3167L177.04 -10.0878L175.221 -9.81418L154.574 -6.70545L139.377 -4.49451" stroke="#EAEAEB" stroke-width="0.982432" stroke-linecap="square" stroke-linejoin="bevel"/>
<path d="M186.161 37.2285L182.451 17.9912L181.056 10.7442L179.826 4.36547L177.478 -7.81338L177.039 -10.0874" stroke="#EAEAEB" stroke-width="0.982432" stroke-linecap="square" stroke-linejoin="bevel"/>
<path d="M128.347 -42.0143L129.154 -39.6505L138.655 -7.13098L139.377 -4.49419L139.856 -2.8805L151.502 36.2698L151.928 37.9012L156.881 56.9307L160.235 72.6883L163.594 87.7609L163.667 88.0819L164.091 90.0642" stroke="#EAEAEB" stroke-width="0.982432" stroke-linecap="square" stroke-linejoin="bevel"/>
<path d="M287.171 37.2487L292.474 43.784" stroke="#EAEAEB" stroke-width="0.982432" stroke-linecap="square" stroke-linejoin="bevel"/>
<path d="M363.193 32.8205L363.476 33.6905L363.468 34.4837L363.181 35.7446L362.437 36.8657L360.665 38.4689L351.909 45.5399L340.989 54.4451L333.119 60.9149L329.447 63.897L316.657 74.3193L246.947 131.13L234.078 141.545L228.638 146.01L227.725 146.764L218.176 154.648" stroke="#EAEAEB" stroke-width="0.982432" stroke-linecap="square" stroke-linejoin="bevel"/>
<path d="M232.848 92.2854L233.479 95.2875L236.653 111.544L235.917 117.008L234.014 133.832L233 140.308L234.078 141.544" stroke="#EAEAEB" stroke-width="0.982432" stroke-linecap="square" stroke-linejoin="bevel"/>
<path d="M241.124 85.8861L242.558 93.9313L242.111 95.0056L243.73 102.118L245.425 104.505" stroke="#EAEAEB" stroke-width="0.982432" stroke-linecap="square" stroke-linejoin="bevel"/>
<path d="M245.227 82.5469L253.258 92.422L253.867 92.0148L256.563 95.4187" stroke="#EAEAEB" stroke-width="0.982432" stroke-linecap="square" stroke-linejoin="bevel"/>
<path d="M254.137 75.2541L265.088 88.5038" stroke="#EAEAEB" stroke-width="0.982432" stroke-linecap="square" stroke-linejoin="bevel"/>
<path d="M250.557 53.5884L251.79 55.3172L262.194 68.5667L272.777 81.9639L273.999 84.1044L273.503 87.1964L272.061 102.346L271.544 103.297L270.53 104.308L234.015 133.832" stroke="#EAEAEB" stroke-width="0.982432" stroke-linecap="square" stroke-linejoin="bevel"/>
<path d="M245.426 104.504L245.585 108.784L245.544 108.938L245.446 109.149L245.308 109.336L245.098 109.55L235.917 117.008L208.453 139.458L206.867 140.755" stroke="#EAEAEB" stroke-width="0.982432" stroke-linecap="square" stroke-linejoin="bevel"/>
<path d="M294.588 44.8892L292.474 43.7846L282.72 51.7241L262.193 68.5677" stroke="#EAEAEB" stroke-width="0.982432" stroke-linecap="square" stroke-linejoin="bevel"/>
<path d="M294.587 44.8884L297.384 48.4734L300.607 52.6041L303.776 56.3218" stroke="#EAEAEB" stroke-width="0.982432" stroke-linecap="square" stroke-linejoin="bevel"/>
<path d="M282.72 51.7238L293.496 64.4454" stroke="#EAEAEB" stroke-width="0.982432" stroke-linecap="square" stroke-linejoin="bevel"/>
<path d="M212.998 116.458L216.301 120.549L219.379 124.382L219.919 125.054" stroke="#EAEAEB" stroke-width="0.982432" stroke-linecap="square" stroke-linejoin="bevel"/>
<path d="M151.502 36.27L146.386 36.7158L145.132 36.6882L144.287 36.7599L143.606 37.0119L143.034 37.3764L142.663 37.8488L142.435 38.5413L142.47 40.0546L142.516 41.3751L142.547 42.8745L142.351 43.5252L141.91 44.4406L141.209 45.0806L140.537 45.52L139.802 45.837L139.012 46.0332L137.119 45.7447L136.581 45.6338L136.088 45.4061L135.363 44.8805L134.613 44.1428L134.024 43.3708L133.622 42.7353L133.03 41.4826L132.564 40.7065L131.746 39.7407L130.475 38.488L129.061 37.2695L127.835 36.3197L126.952 35.8158L125.944 35.4063L125.048 35.2182L124.979 35.2236L124.91 35.2471L124.692 35.4269" stroke="#EAEAEB" stroke-width="0.982432" stroke-linecap="square" stroke-linejoin="bevel"/>
<path d="M224.681 61.2546L225.257 58.2292L225.236 56.8694L218.724 23.3036L218.463 18.8117L218.978 7.70828L219.761 2.80699" stroke="#EAEAEB" stroke-width="0.982432" stroke-linecap="square" stroke-linejoin="bevel"/>
<path d="M318.67 44.2517L317.993 44.7839L303.776 56.3227L301.763 57.9154L293.495 64.4459L272.776 81.9652L265.089 88.5042L256.562 95.4198L245.425 104.505L236.653 111.545L234.615 113.192L219.92 125.054L206.01 136.462L204.428 137.759" stroke="#EAEAEB" stroke-width="0.982432" stroke-linecap="square" stroke-linejoin="bevel"/>
<path d="M260.378 70.1268L261.957 72.1715L262.025 72.6185L261.939 72.9996L261.651 73.4194L261.177 73.8614" stroke="#EAEAEB" stroke-width="0.982432" stroke-linecap="square" stroke-linejoin="bevel"/>
<path d="M226.65 66.1539L227.251 67.9695L227.64 69.3124L228.16 71.116L232.848 92.2857" stroke="#EAEAEB" stroke-width="0.982432" stroke-linecap="square" stroke-linejoin="bevel"/>
<path d="M110.21 135.138L112.114 133.865L121.445 126.488L123.316 125.008L123.735 124.399L124.249 123.693L124.378 123.52L125.124 122.694L127.197 120.853L135.266 115.269L144.143 109.397L154.024 103.574L166.912 96.1599L169.403 94.7259L171.45 93.7724L193.468 83.5338L217.938 72.3521L222.36 70.2698L223.399 69.7821L225.263 68.9045L227.251 67.9695L229.078 67.0182L229.996 66.5372L251.79 55.3177L287.171 37.2487L293.749 33.8142L305.645 27.3635" stroke="#EAEAEB" stroke-width="0.982432" stroke-linecap="square" stroke-linejoin="bevel"/>
<path d="M232.848 92.2858L234.427 88.098L229.995 66.5373" stroke="#EAEAEB" stroke-width="0.982432" stroke-linecap="square" stroke-linejoin="bevel"/>
<path d="M220.302 50.5067L221.832 56.1142L222.441 58.2551L222.986 59.7414L223.56 60.3796L224.681 61.2544" stroke="#EAEAEB" stroke-width="0.982432" stroke-linecap="square" stroke-linejoin="bevel"/>
<path d="M222.193 -15.6651L221.116 -13.3525L218.472 -7.6833L215.453 0.345135L215.17 0.964411L214.494 1.52808L213.553 2.03262L212.63 2.35078L211.848 2.39947L211.229 2.61168L210.763 3.21332L210.521 3.99914L214.056 27.3401L214.799 33.6011L215.291 37.719L216.4 45.8719L216.746 48.2867L216.985 49.6985L217.105 50.8047L217.187 51.9773L217.227 53.2008L217.193 54.1895L217.082 55.1727L216.794 56.7777L216.532 57.9659L216.246 59.0065L215.889 60.0552L215.269 61.4961L214.564 62.7641L213.223 64.5374L211.792 66.0159" stroke="#EAEAEB" stroke-width="0.982432" stroke-linecap="square" stroke-linejoin="bevel"/>
<path d="M325.352 -83.4459L300.322 -69.5954L268.899 -52.3683L265.103 -50.7012L261.49 -49.016L259.318 -47.1591L248.774 -41.3538L244.67 -38.7719L240.452 -35.7679L237.041 -33.0052L233.829 -29.9564L230.665 -26.5803L227.826 -23.0798L223.578 -17.5103L222.193 -15.6644" stroke="#EAEAEB" stroke-width="0.982432" stroke-linecap="square" stroke-linejoin="bevel"/>
<path d="M211.791 66.0166L211.05 66.6508L210.458 67.1713L209.603 67.7822L208.936 68.2114L207.968 68.7529L206.476 69.609L204.901 70.3596L198.225 73.4203L175.232 83.5977L166.353 87.5511L165.211 87.6421L163.667 88.082L162.653 88.3812L161.6 88.7429L159.703 89.6786L148.624 95.3972L142.83 98.9527L137.474 102.133L136.706 102.585L135.409 103.267L134.184 103.785L132.763 104.123" stroke="#EAEAEB" stroke-width="0.982432" stroke-linecap="square" stroke-linejoin="bevel"/>
<path d="M262.193 68.5672L260.377 70.1272L254.138 75.2538L245.227 82.5474L241.124 85.8855L232.848 92.2858" stroke="#EAEAEB" stroke-width="0.982432" stroke-linecap="square" stroke-linejoin="bevel"/>
<path d="M227.721 57.0931L227.445 56.3893L227.003 55.7374L225.837 50.1493L224.109 42.0885L223.15 37.5033L222.941 36.5439L222.426 34.3991L220.98 25.8403L220.355 18.9434L221.129 13.827L222.446 3.3665L224.638 -4.2644L226.634 -9.92403L229.375 -14.0366L230.048 -14.4906L232.433 -16.184L253.84 -27.8408L259.632 -31.3248L262.038 -33.5236L263.908 -36.1329L265.519 -38.4143L266.011 -41.9857L267.904 -43.5771L269.049 -44.6701L269.344 -44.9526" stroke="#EAEAEB" stroke-width="0.982432" stroke-linecap="square" stroke-linejoin="bevel"/>
<path d="M229.995 66.5378L229.568 64.7591L229.267 63.49L229.054 62.5997L228.85 61.7425L228.688 61.0663L228.286 59.3032L227.992 58.1476L227.951 57.9797L227.721 57.0938" stroke="#EAEAEB" stroke-width="0.982432" stroke-linecap="square" stroke-linejoin="bevel"/>
<path d="M215.889 60.0549L217.295 60.4996L218.593 60.9109L219.185 61.3356L219.667 61.9823" stroke="#EAEAEB" stroke-width="0.982432" stroke-linecap="square" stroke-linejoin="bevel"/>
<path d="M224.681 61.2552L221.388 63.2089L220.515 63.7594L219.811 64.1944L219.175 64.5966L211.507 69.0034" stroke="#EAEAEB" stroke-width="0.982432" stroke-linecap="square" stroke-linejoin="bevel"/>
<path d="M137.119 45.7442L134.717 47.6973" stroke="#EAEAEB" stroke-width="0.982432" stroke-linecap="square" stroke-linejoin="bevel"/>
<path d="M144.411 49.4614L146.403 48.8528" stroke="#EAEAEB" stroke-width="0.982432" stroke-linecap="square" stroke-linejoin="bevel"/>
<path d="M140.326 47.8791L140.855 46.585L141.91 44.4394" stroke="#EAEAEB" stroke-width="0.982432" stroke-linecap="square" stroke-linejoin="bevel"/>
<path d="M142.148 47.1361L141.67 46.5307L141.535 46.2219L141.523 45.8994L141.571 45.5112L141.909 44.4402" stroke="#EAEAEB" stroke-width="0.982432" stroke-linecap="square" stroke-linejoin="bevel"/>
<path d="M139.012 46.0331L140.854 46.5861L142.148 47.1363L144.411 49.4615L147.441 52.6177" stroke="#EAEAEB" stroke-width="0.982432" stroke-linecap="square" stroke-linejoin="bevel"/>
<path d="M142.547 42.8739L144.541 42.3427" stroke="#EAEAEB" stroke-width="0.982432" stroke-linecap="square" stroke-linejoin="bevel"/>
<path d="M140.325 47.8792L138.966 51.1963" stroke="#EAEAEB" stroke-width="0.982432" stroke-linecap="square" stroke-linejoin="bevel"/>
<path d="M120.717 123.645L121.663 122.902L122.542 122.09L123.511 121.096L123.58 121.027L124.627 120.066L126.008 119.001L130.32 115.919L135.837 111.795L142.106 107.21L145.06 105.365L150.942 101.951L159.647 97.5469L168.171 93.2155L172.417 90.8058L173.88 90.0855L182.847 86.0879L201.127 77.8347" stroke="#EAEAEB" stroke-width="0.982432" stroke-linecap="square" stroke-linejoin="bevel"/>
<path d="M288.537 1.19639L283.29 -8.50891" stroke="#EAEAEB" stroke-width="0.982432" stroke-linecap="square" stroke-linejoin="bevel"/>
<path d="M211.507 69.0031L210.601 69.4718L206.205 71.662L199.864 74.4275L189.54 78.9204L178.813 83.6797L172.563 86.4456L168.421 88.1816L164.09 90.0641L161.174 91.4802" stroke="#EAEAEB" stroke-width="0.982432" stroke-linecap="square" stroke-linejoin="bevel"/>
<path d="M226.649 66.1545L229.568 64.7592L250.556 53.5895" stroke="#EAEAEB" stroke-width="0.982432" stroke-linecap="square" stroke-linejoin="bevel"/>
<path d="M266.1 -49.5471L267.836 -46.7276L269.343 -44.9523L270.945 -42.8005L272.597 -40.5265L284.788 -18.5304L286.108 -15.9371L288.649 -11.2635L289.441 -9.91259L292.727 -3.8218L293.866 -1.70947L298 5.94524L299.157 8.0904L302.215 13.7536L304.937 18.8051L306.111 20.8449L306.517 21.5523" stroke="#EAEAEB" stroke-width="0.982432" stroke-linecap="square" stroke-linejoin="bevel"/>
<path d="M224.681 61.2549L225.562 63.449L225.834 64.1259L226.649 66.1543" stroke="#EAEAEB" stroke-width="0.982432" stroke-linecap="square" stroke-linejoin="bevel"/>
<path d="M230.048 -14.4902L232.048 -10.1254L235.177 -3.78083L237.825 2.58867L239.993 6.89495L242.304 11.431L244.723 15.671L245.736 17.4245L247.042 19.5204L248.639 21.8169L250.026 23.0305" stroke="#EAEAEB" stroke-width="0.982432" stroke-linecap="square" stroke-linejoin="bevel"/>
<path d="M228.688 61.0664L230.501 60.2673" stroke="#EAEAEB" stroke-width="0.982432" stroke-linecap="square" stroke-linejoin="bevel"/>
<path d="M229.268 63.4893L231.08 62.6311" stroke="#EAEAEB" stroke-width="0.982432" stroke-linecap="square" stroke-linejoin="bevel"/>
<path d="M354.283 -44.8527L352.894 -44.1058L321.604 -27.2469L290.632 -10.5358L289.442 -9.91296" stroke="#EAEAEB" stroke-width="0.982432" stroke-linecap="square" stroke-linejoin="bevel"/>
<path fill-rule="evenodd" clip-rule="evenodd" d="M131.683 54.3411L130.323 55.9798L129.814 57.0058L129.485 58.2164L129.432 59.7865L129.698 61.0784L130.241 62.2962L131.168 63.5093L132.15 64.3167L133.117 64.8384L134.694 65.2766L136.378 65.2753L137.997 64.8149L139.522 63.8546L140.832 62.2762L141.485 60.6522L141.645 58.8005L141.264 57.0487L140.676 55.8816L139.867 54.8786L138.752 53.9962L137.983 53.5948L136.793 53.2132L135.541 53.081L134.237 53.2204L133.477 53.4793L132.909 53.6717L131.683 54.3411Z" stroke="#EAEAEB" stroke-width="0.982432" stroke-linecap="square" stroke-linejoin="bevel"/>
<path d="M156.881 56.9299L155.055 57.1837L144.872 58.4104L141.645 58.8003" stroke="#EAEAEB" stroke-width="0.982432" stroke-linecap="square" stroke-linejoin="bevel"/>
<path d="M189.011 52.0163L186.7 52.3681L173.919 54.3246L156.881 56.9302" stroke="#EAEAEB" stroke-width="0.982432" stroke-linecap="square" stroke-linejoin="bevel"/>
<path d="M220.003 47.7791L216.746 48.2867L209.871 49.3029L191.034 51.748L189.011 52.0162" stroke="#EAEAEB" stroke-width="0.982432" stroke-linecap="square" stroke-linejoin="bevel"/>
<path d="M246.947 131.13L247.894 132.383L248.408 133.049L248.737 133.49L249.045 133.901" stroke="#EAEAEB" stroke-width="0.982432" stroke-linecap="square" stroke-linejoin="bevel"/>
<path d="M211.628 -14.6895L211.835 -13.5152L212.044 -12.3372L214.494 1.52757" stroke="#EAEAEB" stroke-width="0.982432" stroke-linecap="square" stroke-linejoin="bevel"/>
<path d="M223.714 -14.8774L221.016 -9.97612L218.695 -4.2221L215.994 6.05913L215.234 12.2063L215.229 18.2591L215.5 24.4618L217.71 35.9063L220.003 47.7785L220.111 48.4684L220.302 50.5061" stroke="#EAEAEB" stroke-width="0.982432" stroke-linecap="square" stroke-linejoin="bevel"/>
<path d="M288.539 1.19542L266.827 12.4103L263.853 13.9514L252.993 19.5809L248.64 21.8162L245.252 23.8163L237.119 28.2368M237.119 28.2368L235.929 29.2603L231.762 31.3613L231.346 30.6976L231.405 29.7577L232.034 28.9441L233.537 28.4433L235.153 28.3169L237.119 28.2368Z" stroke="#EAEAEB" stroke-width="0.982432" stroke-linecap="square" stroke-linejoin="bevel"/>
<path d="M151.781 27.3105L155.752 26.186L177.915 22.4243L181.26 21.8546" stroke="#EAEAEB" stroke-width="0.982432" stroke-linecap="square" stroke-linejoin="bevel"/>
<path d="M288.537 1.19617L293.866 -1.70933" stroke="#EAEAEB" stroke-width="0.982432" stroke-linecap="square" stroke-linejoin="bevel"/>
<path d="M372.65 -15.6593L369.89 -14.1289L356.214 -6.88589L352.128 -3.37872L339.181 3.3714L317.176 14.8948L309.703 18.8701L306.112 20.8446L303.098 22.5054L302.457 22.8567L288.606 30.1976L279.415 35.0005L261.202 44.5211L253.656 48.4641" stroke="#EAEAEB" stroke-width="0.982432" stroke-linecap="square" stroke-linejoin="bevel"/>
<path d="M223.15 37.5031L223.762 37.2509L229.821 35.03" stroke="#EAEAEB" stroke-width="0.982432" stroke-linecap="square" stroke-linejoin="bevel"/>
<path d="M289.657 10.2729L291.262 9.37544L297.999 5.94541" stroke="#EAEAEB" stroke-width="0.982432" stroke-linecap="square" stroke-linejoin="bevel"/>
<path d="M297.384 48.4738L295.375 50.0303" stroke="#EAEAEB" stroke-width="0.982432" stroke-linecap="square" stroke-linejoin="bevel"/>
<path d="M288.032 3.40971L291.263 9.37436" stroke="#EAEAEB" stroke-width="0.982432" stroke-linecap="square" stroke-linejoin="bevel"/>
<path d="M301.763 57.9149L295.375 50.0303" stroke="#EAEAEB" stroke-width="0.982432" stroke-linecap="square" stroke-linejoin="bevel"/>
<path d="M209.548 119.447L209.943 119.095L211.114 118.055L213 116.457L216.125 113.916L216.546 113.58" stroke="#EAEAEB" stroke-width="0.982432" stroke-linecap="square" stroke-linejoin="bevel"/>
<path d="M174.071 33.6692L173.73 31.4078L182.718 29.8685" stroke="#EAEAEB" stroke-width="0.982432" stroke-linecap="square" stroke-linejoin="bevel"/>
<path d="M154.081 18.3951L159.234 17.888" stroke="#EAEAEB" stroke-width="0.982432" stroke-linecap="square" stroke-linejoin="bevel"/>
<path d="M137.982 53.5954L138.965 51.1971" stroke="#EAEAEB" stroke-width="0.982432" stroke-linecap="square" stroke-linejoin="bevel"/>
<path d="M192.991 12.2939L191.738 12.3658" stroke="#EAEAEB" stroke-width="0.982432" stroke-linecap="square" stroke-linejoin="bevel"/>
<path d="M181.056 10.7439L182.927 10.3421L190.379 8.74155L190.906 8.79538L191.349 9.12943L191.565 9.63021L191.738 12.3654L191.9 14.9215" stroke="#EAEAEB" stroke-width="0.982432" stroke-linecap="square" stroke-linejoin="bevel"/>
<path d="M213.804 33.6676L214.8 33.6005" stroke="#EAEAEB" stroke-width="0.982432" stroke-linecap="square" stroke-linejoin="bevel"/>
<path d="M209.721 34.391L213.804 33.6683" stroke="#EAEAEB" stroke-width="0.982432" stroke-linecap="square" stroke-linejoin="bevel"/>
<path d="M202.482 32.1728L203.589 32.0069L204.035 34.115L209.72 34.3912" stroke="#EAEAEB" stroke-width="0.982432" stroke-linecap="square" stroke-linejoin="bevel"/>
<path d="M194.464 -10.03L195.621 -1.93026L197.391 -2.15432L197.803 2.33292" stroke="#EAEAEB" stroke-width="0.982432" stroke-linecap="square" stroke-linejoin="bevel"/>
<path d="M151.929 37.9001L147.336 39.0869" stroke="#EAEAEB" stroke-width="0.982432" stroke-linecap="square" stroke-linejoin="bevel"/>
<path d="M220.301 50.5073L219.397 54.7418L218.209 58.6926L217.294 60.5004L217.04 61.0298L215.921 62.8453L214.324 65.0981L213.462 66.3769L211.507 69.0033" stroke="#EAEAEB" stroke-width="0.982432" stroke-linecap="square" stroke-linejoin="bevel"/>
<path d="M219.761 2.8073L221.617 -3.54616L223.679 -8.56577L226.199 -13.2617" stroke="#EAEAEB" stroke-width="0.982432" stroke-linecap="square" stroke-linejoin="bevel"/>
<path d="M226.199 -13.2626L227.53 -15.1093L230.861 -19.5669L233.629 -23.0273L236.601 -26.2595L243.234 -32.4206L251.235 -37.5246L262.62 -43.8253L264.216 -44.7096L267.837 -46.7281L271.13 -48.5145L312.282 -71.0038" stroke="#EAEAEB" stroke-width="0.982432" stroke-linecap="square" stroke-linejoin="bevel"/>
<path d="M201.127 77.8334L220.698 69.0022L221.639 68.5585L222.594 68.1009L223.905 67.4699L226.65 66.1536" stroke="#EAEAEB" stroke-width="0.982432" stroke-linecap="square" stroke-linejoin="bevel"/>
<path d="M250.556 53.5894L266.234 45.2591L286.779 34.4382L291.247 32.6388L304.737 25.6379L307.86 23.8987L311.372 21.9442L341.736 5.36983" stroke="#EAEAEB" stroke-width="0.982432" stroke-linecap="square" stroke-linejoin="bevel"/>
<path d="M253.655 48.4641L230.362 58.4228L228.286 59.3025L224.681 61.2544" stroke="#EAEAEB" stroke-width="0.982432" stroke-linecap="square" stroke-linejoin="bevel"/>
<path d="M229.82 35.0298L230.595 33.7747L235.115 31.0894L250.026 23.0296L267.592 13.988L288.031 3.40991" stroke="#EAEAEB" stroke-width="0.982432" stroke-linecap="square" stroke-linejoin="bevel"/>
<path d="M273.501 87.1978L321.131 48.7406" stroke="#EAEAEB" stroke-width="0.982432" stroke-linecap="square" stroke-linejoin="bevel"/>
<path d="M273.998 84.1045L319.382 47.2364" stroke="#EAEAEB" stroke-width="0.982432" stroke-linecap="square" stroke-linejoin="bevel"/>
<path d="M161.601 88.7423L161.482 87.9933L160.534 82.0764L158.531 73.1655L156.216 62.8694L155.557 59.6945L155.054 57.184" stroke="#EAEAEB" stroke-width="0.982432" stroke-linecap="square" stroke-linejoin="bevel"/>
<path d="M257.372 1.27639L255.275 0.888801L253.085 1.81156L250.729 4.35823L249.474 6.63905L249.769 8.23647L250.39 9.76122L251.895 11.2492L252.579 12.3977L252.044 13.9853L250.426 15.7338L249.579 17.2067L249.207 18.3264L247.042 19.5206" stroke="#EAEAEB" stroke-width="0.982432" stroke-linecap="square" stroke-linejoin="bevel"/>
<path d="M252.044 13.9855L252.891 14.6425L255.931 15.2307L258.208 15.0936L260.075 12.8498L261.403 10.8254L262.116 8.74953L261.935 7.30617L261.847 6.2795L260.628 4.22022L259.098 2.52531L257.371 1.27666L257.457 -0.601666L256.964 -2.05255L239.992 6.89539" stroke="#EAEAEB" stroke-width="0.982432" stroke-linecap="square" stroke-linejoin="bevel"/>
<path d="M158.531 73.1649L160.235 72.6872" stroke="#EAEAEB" stroke-width="0.982432" stroke-linecap="square" stroke-linejoin="bevel"/>
<path d="M160.235 72.6881L161.975 72.3094L162.351 72.2278" stroke="#EAEAEB" stroke-width="0.982432" stroke-linecap="square" stroke-linejoin="bevel"/>
<path d="M192.782 70.4793L187.734 72.5903L177.267 74.5691" stroke="#EAEAEB" stroke-width="0.982432" stroke-linecap="square" stroke-linejoin="bevel"/>
<path d="M176.023 68.0788L174.849 68.3224L171.489 69.0142" stroke="#EAEAEB" stroke-width="0.982432" stroke-linecap="square" stroke-linejoin="bevel"/>
<path d="M166.394 70.5034L170.131 69.859L171.488 69.0139" stroke="#EAEAEB" stroke-width="0.982432" stroke-linecap="square" stroke-linejoin="bevel"/>
<path d="M173.92 54.3243L174.213 56.0997L174.335 56.8403L176.022 68.0789L177.266 74.5689" stroke="#EAEAEB" stroke-width="0.982432" stroke-linecap="square" stroke-linejoin="bevel"/>
<path d="M164.701 62.7413L166.394 70.5043L166.569 71.3066L168.714 80.8363" stroke="#EAEAEB" stroke-width="0.982432" stroke-linecap="square" stroke-linejoin="bevel"/>
<path d="M276.003 -3.82363L264.092 2.34818L265.467 5.01084L266.777 4.26942" stroke="#EAEAEB" stroke-width="0.982432" stroke-linecap="square" stroke-linejoin="bevel"/>
<path d="M172.948 195.148L174.126 192.919L173.965 189.274L181.764 182.928L191.845 174.896L194.841 177.362L201.872 171.627L217.818 158.651L228.488 149.967L229.58 149.09L230.57 148.299L236.09 143.888L236.492 143.567L241.466 139.492L246.387 135.464L248.737 133.49L284.669 104.198L294.183 96.4521L318.728 76.8537L321.229 74.8051L326.736 69.4668L330.297 66.4397L334.969 63.1577L368.364 35.8995L365.976 32.9163L370.689 29.081L383.514 18.8514L384.325 18.2798L385.324 18.6052L388.981 20.3587L391.647 19.4396L392.438 18.8001L394.691 16.9771" stroke="#EAEAEB" stroke-width="0.982432" stroke-linecap="square" stroke-linejoin="bevel"/>
<path d="M245.737 17.4238L244.313 18.2102L244.177 17.9358" stroke="#EAEAEB" stroke-width="0.982432" stroke-linecap="square" stroke-linejoin="bevel"/>
<path d="M245.25 23.8176L244.753 22.925L243.147 20.0418L241.759 17.555L238.87 12.091L238.671 11.2238L238.674 10.5936L238.937 9.88352L239.4 9.38802L240.111 8.88623" stroke="#EAEAEB" stroke-width="0.982432" stroke-linecap="square" stroke-linejoin="bevel"/>
<path d="M266.786 -3.86166L265.169 -3.21313L260.709 -3.3237L258.616 -2.43586L256.964 -2.05322" stroke="#EAEAEB" stroke-width="0.982432" stroke-linecap="square" stroke-linejoin="bevel"/>
<path d="M264.194 8.84805L263.727 9.40875L263.344 10.2175L263.142 12.6516L263.365 13.0157L263.851 13.952" stroke="#EAEAEB" stroke-width="0.982432" stroke-linecap="square" stroke-linejoin="bevel"/>
<path d="M261.935 7.30566L262.735 8.08999L263.418 8.49518L264.194 8.8481L265.172 9.27415" stroke="#EAEAEB" stroke-width="0.982432" stroke-linecap="square" stroke-linejoin="bevel"/>
<path d="M264.092 2.34827L262.144 3.3867L263.279 5.59182L265.173 9.2744L266.826 12.4112L267.592 13.989" stroke="#EAEAEB" stroke-width="0.982432" stroke-linecap="square" stroke-linejoin="bevel"/>
<path d="M261.848 6.2793L263.279 5.59187" stroke="#EAEAEB" stroke-width="0.982432" stroke-linecap="square" stroke-linejoin="bevel"/>
<path d="M299.157 8.09056L300.367 7.48451L301.766 6.79672L305.2 4.82891L303.026 0.938932L299.441 -5.95358L301.096 -6.87443" stroke="#EAEAEB" stroke-width="0.982432" stroke-linecap="square" stroke-linejoin="bevel"/>
<path d="M165.862 71.4598L166.569 71.3067" stroke="#EAEAEB" stroke-width="0.982432" stroke-linecap="square" stroke-linejoin="bevel"/>
<path d="M162.352 72.2271L165.864 71.4591" stroke="#EAEAEB" stroke-width="0.982432" stroke-linecap="square" stroke-linejoin="bevel"/>
<path d="M306.257 18.1061L303.435 13.0815L300.367 7.48466L293.836 -4.43582L291.01 -9.6982" stroke="#EAEAEB" stroke-width="0.982432" stroke-linecap="square" stroke-linejoin="bevel"/>
<path d="M216.4 45.872L190.644 49.3087L184.398 17.9177L182.927 10.3418L179.197 -8.02763L194.464 -10.0305L212.043 -12.3367" stroke="#EAEAEB" stroke-width="0.982432" stroke-linecap="square" stroke-linejoin="bevel"/>
<path d="M211.398 -16.7952L193.009 -13.8679L191.643 -13.7768L178.661 -12.3092" stroke="#EAEAEB" stroke-width="0.982432" stroke-linecap="square" stroke-linejoin="bevel"/>
<path fill-rule="evenodd" clip-rule="evenodd" d="M175.482 -7.56469L177.906 4.78306L181.259 21.8541L181.897 25.3706L182.718 29.8692L186.354 49.8598L159.278 54.2475L151.78 27.3101L149.311 19.5765L142.591 -2.6887L142.325 -3.45479L154.756 -4.9936L164.896 -6.25228L175.482 -7.56469Z" stroke="#EAEAEB" stroke-width="0.982432" stroke-linecap="square" stroke-linejoin="bevel"/>
<path d="M186.904 53.8486L186.7 52.3679L186.355 49.8598L188.541 49.5784L190.644 49.3085L191.034 51.7479L191.276 53.2637" stroke="#EAEAEB" stroke-width="0.982432" stroke-linecap="square" stroke-linejoin="bevel"/>
<path d="M216.986 49.6982L209.06 50.889L191.277 53.2636L186.905 53.8484L180.511 54.704L174.213 56.0997L158.967 58.6822L161.975 72.3087L165.169 87.4473L165.212 87.6412" stroke="#EAEAEB" stroke-width="0.982432" stroke-linecap="square" stroke-linejoin="bevel"/>
<path d="M179.183 25.8276L181.485 25.4469L181.897 25.3705" stroke="#EAEAEB" stroke-width="0.982432" stroke-linecap="square" stroke-linejoin="bevel"/>
<path d="M101.179 15.0407L115.996 32.7742L132.644 52.4635L133.476 53.48" stroke="#EAEAEB" stroke-width="0.982432" stroke-linecap="square" stroke-linejoin="bevel"/>
<path d="M219.667 61.9835L220.516 63.7596L221.408 65.6225L221.727 66.292L222.593 68.102L223.398 69.7831" stroke="#EAEAEB" stroke-width="0.982432" stroke-linecap="square" stroke-linejoin="bevel"/>
<path d="M179.827 4.36453L177.907 4.78283L177.508 4.86914" stroke="#EAEAEB" stroke-width="0.982432" stroke-linecap="square" stroke-linejoin="bevel"/>
<path d="M219.667 61.9824L219.01 62.3973L217.45 63.4208L216.545 64.079L214.324 65.0973L211.791 66.0157" stroke="#EAEAEB" stroke-width="0.982432" stroke-linecap="square" stroke-linejoin="bevel"/>
<path d="M301.933 20.2846L285.284 29.0658L274.509 34.7814L265.048 39.8831L253.212 45.8521L233.315 54.7007L227.722 57.0928L226.726 57.3696L226.49 57.4704L225.259 58.2287L222.987 59.7411L220.439 61.4938L219.668 61.9822" stroke="#EAEAEB" stroke-width="0.982432" stroke-linecap="square" stroke-linejoin="bevel"/>
<path d="M275.646 -4.47376L274.181 -7.03939L267.369 -4.13867" stroke="#EAEAEB" stroke-width="0.982432" stroke-linecap="square" stroke-linejoin="bevel"/>
<path d="M263.623 5.50049L265.467 5.01054" stroke="#EAEAEB" stroke-width="0.982432" stroke-linecap="square" stroke-linejoin="bevel"/>
<path d="M263.278 5.59241L263.623 5.50143" stroke="#EAEAEB" stroke-width="0.982432" stroke-linecap="square" stroke-linejoin="bevel"/>
<path d="M165.923 191.592L166.765 191.021L175.093 184.443L189.992 171.837L191.347 170.692L195.666 170.412L199.649 167.089L215.11 154.189L215.613 153.769L216.892 153.07L218.464 151.824L233 140.308" stroke="#EAEAEB" stroke-width="0.982432" stroke-linecap="square" stroke-linejoin="bevel"/>
<path d="M334.22 78.8483L244.382 151.98L243.074 152.984L241.539 154.131L237.221 157.205L234.234 159.336L232.313 160.797L230.39 162.298L191.877 193.796L190.613 194.805" stroke="#EAEAEB" stroke-width="0.982432" stroke-linecap="square" stroke-linejoin="bevel"/>
<path d="M186.161 37.2281L188.541 49.5787L189.011 52.0165" stroke="#EAEAEB" stroke-width="0.982432" stroke-linecap="square" stroke-linejoin="bevel"/>
<path d="M208.255 120.543L208.011 120.243" stroke="#EAEAEB" stroke-width="0.982432" stroke-linecap="square" stroke-linejoin="bevel"/>
<path d="M207.633 119.8L208.012 120.242" stroke="#EAEAEB" stroke-width="0.982432" stroke-linecap="square" stroke-linejoin="bevel"/>
<path d="M205.518 117.208L205.809 117.549" stroke="#EAEAEB" stroke-width="0.982432" stroke-linecap="square" stroke-linejoin="bevel"/>
<path d="M205.809 117.548L207.632 119.801" stroke="#EAEAEB" stroke-width="0.982432" stroke-linecap="square" stroke-linejoin="bevel"/>
<path d="M210.931 117.808L211.113 118.055" stroke="#EAEAEB" stroke-width="0.982432" stroke-linecap="square" stroke-linejoin="bevel"/>
<path d="M208.447 114.812L208.727 115.145" stroke="#EAEAEB" stroke-width="0.982432" stroke-linecap="square" stroke-linejoin="bevel"/>
<path d="M208.728 115.144L210.932 117.804" stroke="#EAEAEB" stroke-width="0.982432" stroke-linecap="square" stroke-linejoin="bevel"/>
<path d="M230.78 108.739L229.905 109.491" stroke="#EAEAEB" stroke-width="0.982432" stroke-linecap="square" stroke-linejoin="bevel"/>
<path d="M219.264 118.286L216.303 120.548L213.598 122.852" stroke="#EAEAEB" stroke-width="0.982432" stroke-linecap="square" stroke-linejoin="bevel"/>
<path d="M225.562 113.081L227.057 114.918" stroke="#EAEAEB" stroke-width="0.982432" stroke-linecap="square" stroke-linejoin="bevel"/>
<path d="M224.817 113.692L221.71 116.215" stroke="#EAEAEB" stroke-width="0.982432" stroke-linecap="square" stroke-linejoin="bevel"/>
<path d="M221.515 109.617L224.816 113.692L225.561 113.081L227.482 111.62" stroke="#EAEAEB" stroke-width="0.982432" stroke-linecap="square" stroke-linejoin="bevel"/>
<path d="M208.527 126.879L206.69 128.47L203.543 124.549" stroke="#EAEAEB" stroke-width="0.982432" stroke-linecap="square" stroke-linejoin="bevel"/>
<path d="M205.343 123.021L208.527 126.879L211.306 124.72" stroke="#EAEAEB" stroke-width="0.982432" stroke-linecap="square" stroke-linejoin="bevel"/>
<path d="M225.844 106.048L226.215 105.725L227.314 104.87" stroke="#EAEAEB" stroke-width="0.982432" stroke-linecap="square" stroke-linejoin="bevel"/>
<path d="M224.829 106.944L225.843 106.049" stroke="#EAEAEB" stroke-width="0.982432" stroke-linecap="square" stroke-linejoin="bevel"/>
<path d="M217.593 112.743L217.95 112.457L221.515 109.616L224.442 107.268L224.829 106.944" stroke="#EAEAEB" stroke-width="0.982432" stroke-linecap="square" stroke-linejoin="bevel"/>
<path d="M216.544 113.58L217.593 112.743" stroke="#EAEAEB" stroke-width="0.982432" stroke-linecap="square" stroke-linejoin="bevel"/>
<path d="M208.604 120.246L209.547 119.447" stroke="#EAEAEB" stroke-width="0.982432" stroke-linecap="square" stroke-linejoin="bevel"/>
<path d="M201.551 126.129L202.949 125.056L203.542 124.549L205.342 123.02L208.255 120.542L208.604 120.246" stroke="#EAEAEB" stroke-width="0.982432" stroke-linecap="square" stroke-linejoin="bevel"/>
<path d="M210.351 113.256L210.643 113.581" stroke="#EAEAEB" stroke-width="0.982432" stroke-linecap="square" stroke-linejoin="bevel"/>
<path d="M210.642 113.581L212.125 115.385L212.492 115.83" stroke="#EAEAEB" stroke-width="0.982432" stroke-linecap="square" stroke-linejoin="bevel"/>
<path d="M212.492 115.83L212.833 116.24" stroke="#EAEAEB" stroke-width="0.982432" stroke-linecap="square" stroke-linejoin="bevel"/>
<path d="M212.999 116.458L212.833 116.241" stroke="#EAEAEB" stroke-width="0.982432" stroke-linecap="square" stroke-linejoin="bevel"/>
<path d="M209.942 119.096L209.71 118.807" stroke="#EAEAEB" stroke-width="0.982432" stroke-linecap="square" stroke-linejoin="bevel"/>
<path d="M209.36 118.379L209.71 118.808" stroke="#EAEAEB" stroke-width="0.982432" stroke-linecap="square" stroke-linejoin="bevel"/>
<path d="M207.504 116.15L209.359 118.379" stroke="#EAEAEB" stroke-width="0.982432" stroke-linecap="square" stroke-linejoin="bevel"/>
<path d="M207.224 115.812L207.505 116.148" stroke="#EAEAEB" stroke-width="0.982432" stroke-linecap="square" stroke-linejoin="bevel"/>
<path d="M216.123 113.917L215.965 113.664" stroke="#EAEAEB" stroke-width="0.982432" stroke-linecap="square" stroke-linejoin="bevel"/>
<path d="M215.261 109.238L215.556 109.588" stroke="#EAEAEB" stroke-width="0.982432" stroke-linecap="square" stroke-linejoin="bevel"/>
<path d="M215.556 109.589L217.422 111.839" stroke="#EAEAEB" stroke-width="0.982432" stroke-linecap="square" stroke-linejoin="bevel"/>
<path d="M217.422 111.838L217.72 112.195" stroke="#EAEAEB" stroke-width="0.982432" stroke-linecap="square" stroke-linejoin="bevel"/>
<path d="M217.951 112.457L217.72 112.194" stroke="#EAEAEB" stroke-width="0.982432" stroke-linecap="square" stroke-linejoin="bevel"/>
<path d="M215.65 113.278L215.966 113.664" stroke="#EAEAEB" stroke-width="0.982432" stroke-linecap="square" stroke-linejoin="bevel"/>
<path d="M213.787 111.025L215.651 113.278" stroke="#EAEAEB" stroke-width="0.982432" stroke-linecap="square" stroke-linejoin="bevel"/>
<path d="M213.488 110.683L213.787 111.025" stroke="#EAEAEB" stroke-width="0.982432" stroke-linecap="square" stroke-linejoin="bevel"/>
<path d="M221.737 103.943L222.053 104.323" stroke="#EAEAEB" stroke-width="0.982432" stroke-linecap="square" stroke-linejoin="bevel"/>
<path d="M222.054 104.324L223.929 106.616" stroke="#EAEAEB" stroke-width="0.982432" stroke-linecap="square" stroke-linejoin="bevel"/>
<path d="M223.929 106.615L224.182 106.924" stroke="#EAEAEB" stroke-width="0.982432" stroke-linecap="square" stroke-linejoin="bevel"/>
<path d="M224.443 107.268L224.183 106.924" stroke="#EAEAEB" stroke-width="0.982432" stroke-linecap="square" stroke-linejoin="bevel"/>
<path d="M223.486 102.514L223.79 102.888" stroke="#EAEAEB" stroke-width="0.982432" stroke-linecap="square" stroke-linejoin="bevel"/>
<path d="M226.216 105.725L225.935 105.458" stroke="#EAEAEB" stroke-width="0.982432" stroke-linecap="square" stroke-linejoin="bevel"/>
<path d="M225.645 105.108L225.935 105.459" stroke="#EAEAEB" stroke-width="0.982432" stroke-linecap="square" stroke-linejoin="bevel"/>
<path d="M223.79 102.888L225.644 105.108" stroke="#EAEAEB" stroke-width="0.982432" stroke-linecap="square" stroke-linejoin="bevel"/>
<path d="M224.848 102.073L226.928 104.644" stroke="#EAEAEB" stroke-width="0.982432" stroke-linecap="square" stroke-linejoin="bevel"/>
<path d="M224.481 101.699L224.848 102.073" stroke="#EAEAEB" stroke-width="0.982432" stroke-linecap="square" stroke-linejoin="bevel"/>
<path d="M231.019 109.003L234.615 113.192" stroke="#EAEAEB" stroke-width="0.982432" stroke-linecap="square" stroke-linejoin="bevel"/>
<path d="M226.928 104.644L227.314 104.87L230.781 108.738L231.02 109.002" stroke="#EAEAEB" stroke-width="0.982432" stroke-linecap="square" stroke-linejoin="bevel"/>
<path d="M232.847 92.2855L195.047 123.236L193.585 124.435" stroke="#EAEAEB" stroke-width="0.982432" stroke-linecap="square" stroke-linejoin="bevel"/>
<path d="M232.847 92.286L228.113 92.8815L193.41 121.194" stroke="#EAEAEB" stroke-width="0.982432" stroke-linecap="square" stroke-linejoin="bevel"/>
<path d="M196.22 124.668L200.05 121.678L205.518 117.207L207.224 115.812L208.447 114.811L210.351 113.255L213.488 110.683L215.26 109.238L221.737 103.943L223.486 102.513L224.482 101.698L230.737 96.587L232.848 92.285" stroke="#EAEAEB" stroke-width="0.982432" stroke-linecap="square" stroke-linejoin="bevel"/>
</g>
<defs>
<clipPath id="clip0_3958_111894">
<rect width="302" height="168" fill="white" transform="translate(0 -33)"/>
</clipPath>
</defs>
</svg>
