<svg width="829" height="1147" viewBox="0 0 829 1147" fill="none" xmlns="http://www.w3.org/2000/svg">
<path d="M1.00025 276.409H4.71464L12.1441 283.899V313.859L19.5728 321.349V366.29L27.0023 373.78H34.4285L41.8579 376.277H49.2873L54.2401 381.271L56.7129 383.143L64.1424 386.266H71.5711L79.0006 385.018L86.43 381.273V373.78L93.8588 366.29L101.288 361.297L105.003 358.8L108.718 357.304H116.146L123.579 356.303H138.437L145.867 351.31L153.298 343.82L160.727 336.33V321.349L153.298 313.859L160.727 306.369L168.154 302.622L175.583 300.375H183.012L190.441 298.878H197.873L205.303 306.369V313.859L207.779 321.349L209.015 328.839V336.33L212.73 343.82V351.31L215.206 358.8L217.682 366.29L220.159 370.035L223.873 373.78L227.588 381.271V403.741L235.017 411.231V418.721L242.447 426.211L244.919 433.701L249.872 438.694L251.73 441.191L257.301 448.681V456.171L259.778 463.661L264.731 471.151L269.684 478.641V501.111L268.447 508.602L272.162 516.092L279.591 519.837H301.88L309.309 518.588L316.738 516.092L324.168 508.602V478.641L316.738 471.151L324.168 463.661L331.596 456.171L339.026 452.426L346.455 450.179L350.17 448.682L353.884 444.937L357.598 441.192L361.313 433.702L366.266 426.212L368.742 422.467L371.219 418.722V403.741L368.742 396.251L361.313 388.761L353.884 381.271L350.17 373.78L346.455 366.29L339.026 358.8L331.596 355.055L324.168 353.807H316.738L309.309 355.055L301.88 356.303L294.451 358.8H287.022L279.592 356.303L272.163 353.807L264.734 353.182L257.305 351.31H249.875L246.161 343.82L249.875 336.33L257.305 332.585L259.781 328.84L261.018 321.349L262.254 313.859L262.874 306.369L262.254 298.879L264.731 291.389L257.301 283.899H249.872L242.443 285.396L235.014 286.394H220.156L216.441 283.898L212.726 280.153L209.012 276.408L205.297 268.917V261.43L204.061 253.94L205.297 246.45V238.96L210.25 231.469L212.723 229.597H220.161L227.59 229.971L235.019 231.468H249.877L257.305 227.722L264.734 223.977H272.163L279.592 216.487L287.024 213.992L294.453 208.998L301.88 201.507L309.311 194.014V171.546L316.74 164.056L324.17 156.565L331.598 149.075L336.551 141.585L339.028 137.84L340.513 134.095V119.115L339.028 111.624L331.598 107.879L324.17 106.631L316.74 104.134L309.311 100.389L305.596 96.6439L301.882 92.8989L298.167 89.1539L294.453 81.6633L290.738 74.1734L287.024 66.6828L279.594 59.1929L272.165 51.7023L268.451 44.2123L272.165 36.7217L279.594 29.2311H294.453L301.88 32.9761L309.309 34.2242H324.168L331.596 32.9761H346.455L353.884 29.2305H361.313L368.742 21.7405H383.601L391.03 24.2381L398.46 29.2311V36.7217L400.933 44.2123L405.885 51.7023V74.1734L413.315 81.6633V89.1539L418.268 96.6439L420.744 104.134V111.624H435.606L443.036 119.115L450.465 126.605V134.095L443.036 141.585H457.895L461.609 149.075L465.323 156.565V164.056L457.895 171.546L450.465 173.419H443.036L435.607 171.546L428.178 169.049H405.89L403.414 171.546L398.461 175.291L394.747 179.036L392.889 186.526L391.032 190.271L388.556 194.016L387.319 201.507L386.083 208.997L383.607 211.494L376.178 212.742L368.748 216.487L361.319 223.977V238.958L363.795 246.448V268.918L365.032 276.409L368.746 283.899L376.176 291.389L383.605 295.134L387.319 298.879L391.03 301.376L398.46 306.369L405.889 313.859L413.318 317.604H428.176L435.606 313.859L443.035 306.369L450.464 298.879L457.893 291.389H465.322L472.752 298.879V306.369L469.037 313.859L472.752 321.349V328.84H480.181L487.61 336.33L482.657 343.82L480.181 351.31V373.78L482.038 381.271V396.251L485.134 403.741L487.606 411.231H495.036L502.465 403.741L509.894 396.251L517.323 393.754H524.756L532.186 394.378L539.615 396.251L547.044 403.741L554.473 411.231V426.211L561.902 433.701L569.331 435.574L576.761 433.701L580.475 426.211L584.19 418.721V411.229L591.619 403.739L599.048 396.249H606.477L613.907 398.746L621.335 403.739H636.194L643.623 396.249H651.052L658.482 403.741L665.911 406.237L670.863 411.231L673.34 412.727L680.769 417.471L684.484 418.72L688.198 421.216L695.628 426.21L703.057 428.708H710.487L717.916 429.956H740.203L743.918 426.211V418.721L747.632 414.976L751.347 411.231L755.062 409.358L762.491 408.734L769.92 403.741H777.349L781.064 411.231L784.778 418.721V426.211L788.493 433.701V441.191L787.256 448.681L784.779 452.426L781.065 456.171L777.351 459.916L769.921 463.661H740.204L732.775 466.158L727.823 471.151L725.346 473.648L720.393 478.641L717.917 481.138L712.964 486.131L712.345 493.621L710.488 501.111L703.058 504.856L695.63 503.608L688.2 501.111H680.771L673.342 503.608L665.913 504.856L658.482 508.602H651.052V531.072L647.338 538.561L643.623 542.306L639.909 546.051L636.194 553.541V561.031L643.623 568.521H658.482L665.911 564.776L673.34 561.031L680.769 559.159H688.198L695.628 561.031L703.057 564.776H717.916L725.345 561.031L732.774 558.534L740.203 556.038H747.632L751.347 553.541L755.062 549.796L758.776 546.051L762.491 543.555L769.92 538.561L777.349 534.816L784.778 531.072H792.208L799.636 533.567H807.066L814.495 534.816H821.924L829.353 538.561V553.545L825.639 561.035L821.924 564.779L819.448 568.524L814.495 573.518L810.78 576.014L807.066 583.504H792.208V590.994H814.495L821.924 595.488L824.896 598.482L826.877 605.972L827.496 613.461L829.353 617.206L836.783 620.951L844.212 624.696L851.642 628.441V635.931L854.118 643.421L851.642 650.911V658.401L844.212 665.89H836.783V695.85L844.212 703.34H873.929L881.357 695.85L885.072 688.36V680.87L888.787 677.125L892.501 673.38L896.216 669.635L899.931 665.89L903.645 662.146L907.359 658.401L911.074 650.911H918.503L925.933 643.421L933.363 650.911L940.791 658.401L948.221 665.89V673.38L955.65 680.87L963.079 688.36H977.937L985.366 680.87L992.795 673.38L996.51 665.89L1000.22 662.146L1003.94 658.401L1007.65 650.911H1015.08L1022.51 643.421H1029.94L1037.37 639.676L1044.8 638.428L1048.51 635.931L1052.23 632.186L1055.94 628.441V613.461L1059.66 605.971L1067.09 598.481L1074.52 594.736L1078.23 590.991L1081.95 583.501L1089.37 576.011V568.521L1096.8 564.776H1119.09L1122.81 568.521L1126.52 572.266L1133.95 576.011L1141.38 583.501L1148.81 590.991V598.481H1156.24L1163.67 590.991H1178.52L1185.95 598.481V605.971H1200.81V598.481L1204.53 590.991L1203.29 583.501L1200.81 576.011L1193.38 568.521H1178.53L1171.1 564.776L1163.67 561.031V553.545L1159.95 546.055V531.075L1156.24 527.33L1148.81 523.585L1141.38 516.095V501.111L1148.81 493.621V486.129L1141.38 483.632L1133.95 482.384H1126.52L1119.09 481.136L1111.66 478.639L1104.23 471.151V463.661L1111.66 459.916L1115.38 456.171L1119.09 453.675L1126.52 448.681L1128.38 441.191L1129 433.701L1126.52 431.204L1119.09 426.211H1096.8L1093.09 418.721V403.741L1096.8 399.996L1104.23 396.251H1119.09L1126.52 393.754L1131.47 388.761L1133.95 385.016L1137.66 381.271L1141.38 377.525H1148.81L1156.24 375.278L1163.67 373.781H1185.96V343.82L1193.38 336.33V328.84L1200.81 321.349L1208.24 313.859L1215.67 306.369L1223.1 308.869L1228.05 313.862L1230.53 317.607L1234.24 321.352L1237.96 328.84L1245.39 336.33V358.8L1241.67 366.29L1240.44 373.78L1241.67 381.271L1245.39 388.761L1249.1 396.251L1252.82 403.741L1260.25 411.229H1267.67L1275.1 408.733H1289.96L1293.68 411.229L1297.39 413.726L1304.82 418.72L1308.54 426.21L1312.25 433.7L1308.54 441.19V448.68L1309.77 456.17L1312.24 463.66L1319.68 471.151H1327.11L1334.54 463.661L1341.97 456.171H1349.4L1356.82 452.426L1364.25 453.675H1386.54L1393.97 452.426L1401.4 448.681V441.191L1393.97 433.701L1386.54 426.211V418.721L1379.11 411.229H1371.69L1364.26 403.739L1362.4 396.249L1361.78 388.759L1364.26 381.269L1371.69 373.78L1379.11 366.29L1371.69 358.8V336.33H1356.82L1349.4 328.84V321.349L1356.82 317.604L1364.25 313.859V298.879L1356.82 295.885L1349.4 293.888H1341.97L1334.54 295.136L1330.82 298.881L1327.11 302.622L1319.68 306.367L1312.25 310.112L1308.54 306.367L1304.82 302.622L1301.11 298.876L1297.39 295.131L1293.68 291.386L1289.96 287.641L1286.25 283.896L1282.54 280.154L1280.06 276.409L1282.54 268.918L1289.96 261.43L1297.39 257.685L1301.11 253.94L1304.82 251.444L1312.25 246.45H1319.68L1327.11 238.958H1334.54L1341.97 242.703H1356.82L1364.25 238.958L1366.11 231.467V223.977L1364.25 216.487L1361.78 208.997L1356.82 201.507V186.526L1364.25 179.036H1371.69L1379.11 181.533L1386.54 182.781H1393.97L1401.4 181.533L1405.11 179.036L1408.83 175.291L1412.54 171.546V149.075L1414.4 141.585L1416.26 139.088L1421.21 134.095L1423.69 132.222L1429.26 126.604L1431.12 124.732L1436.69 119.114L1438.55 116.617L1443.5 111.624L1445.97 107.879L1448.45 104.134L1449.69 96.6432L1451.92 89.1533L1453.4 85.407L1457.12 81.6614V74.1714L1458.35 66.6808L1460.84 59.1922V51.699L1462.69 44.2091L1466.14 36.7185L1468.26 31.7247L1469.5 29.2279L1472.72 21.7379L1473.84 14.2473L1475.69 11.7505L1481.64 6.7574L1483.12 5.50865L1490.55 1.76367H1494.26" stroke="#EAEAEB" stroke-width="2" stroke-linecap="round" stroke-linejoin="round"/>
<path d="M854.116 823.178L859.069 828.171H873.928L881.357 823.178L888.786 818.185L892.501 815.688L896.215 814.618L903.644 814.19L911.074 811.943L918.503 808.198L925.933 804.454H933.361L940.79 800.709H948.22L955.648 798.212L960.602 793.219V785.727L959.365 778.237L955.65 770.747L953.178 763.257V755.767L951.941 748.277V740.788L948.227 735.794L945.75 733.298L940.797 728.304L937.083 725.808L933.369 723.311L925.933 720.817H903.645L896.216 718.32H881.357V725.81L875.786 733.3L873.929 737.045L870.214 740.79L866.499 742.662L859.07 744.535L851.641 745.783L844.212 747.031L842.354 748.28L836.782 751.089L832.139 755.769L829.353 758.579L823.162 763.259L821.926 765.132L817.468 770.749L815.735 778.239V785.729L814.498 793.219L816.971 800.709L818.208 808.198L821.922 811.943H829.353L836.782 813.192L844.212 815.688L851.641 820.681L854.116 823.178Z" stroke="#EAEAEB" stroke-width="2" stroke-linecap="round" stroke-linejoin="round"/>
<path d="M1.00006 1145.24H4.71445L12.1439 1142.74L19.5726 1141.49H27.0021L34.4283 1145.24H56.7159L64.1453 1137.75V1130.26H56.7159L49.2871 1126.51L41.8577 1122.77L49.2871 1115.28H56.7159L64.1453 1107.79H71.5748L79.0035 1100.3L86.433 1092.81L93.8617 1085.32H116.149L123.579 1089.06H131.01L138.44 1085.32L145.869 1092.81H160.727L168.157 1085.32H175.585L183.015 1081.57H190.444L197.873 1085.32L205.302 1092.81H227.59V1077.83L235.019 1070.34V1062.85L242.448 1055.36L249.877 1047.87L254.83 1040.38L257.306 1037.88L262.259 1032.89L264.736 1025.4L272.165 1021.66L279.594 1017.91L287.023 1014.17L289.496 1010.42V1002.93L287.023 995.442L283.308 987.952L279.594 980.463V972.973L272.165 965.483V943.014L274.641 935.525V913.055L274.022 905.566V898.076L272.165 890.586L268.45 883.096V875.607L264.736 871.862L261.021 868.117L257.306 860.627V823.178H249.877L242.448 815.688L238.733 808.198L235.019 800.709L227.59 796.964L225.113 793.219L220.161 789.474L217.684 785.729L217.189 778.239L214.586 770.749V755.769L212.728 752.024L209.014 748.28L205.299 744.535L201.584 740.79L197.87 733.3L202.822 725.81L205.299 723.313L212.729 720.817H220.161L227.59 718.32H242.448L249.877 722.065L257.306 725.81L261.021 733.3L264.736 738.293L267.209 740.79L272.161 748.28L279.591 755.769L287.02 759.514H294.449L298.163 763.259L301.878 765.756L309.307 770.749L314.26 778.239L316.737 785.729L320.451 793.219L324.166 796.964L331.595 800.709V815.688H346.455L353.884 808.198H368.742V800.709L376.171 793.219V785.726L383.601 778.236L391.03 774.494L394.745 770.749V755.769L393.509 748.28L394.745 740.79L398.46 733.3L402.174 725.81L400.938 718.32L398.465 710.83L394.75 703.34V695.85L398.465 688.36L405.894 684.615L409.609 680.87L413.323 677.125L417.037 673.38V665.89L420.752 658.4L428.181 655.904L435.611 653.407L438.087 650.91L439.324 643.42V635.93L443.039 628.441V620.951L445.512 613.461L450.464 605.971V590.991L452.941 583.501L450.464 576.011L452.941 568.521L450.464 564.776L447.988 561.031L443.035 553.541V546.051L446.75 538.561L450.464 534.816L452.321 531.071V523.581L450.464 519.836L446.75 516.091L443.035 514.595L437.092 508.603L435.606 507.354L428.177 506.73L420.748 504.857H413.318L405.889 508.603V516.093L403.413 523.583L398.46 528.576L391.03 527.326L383.601 523.581V501.111L376.172 493.621L368.743 486.131L361.314 478.641L368.743 471.151H376.172L383.601 473.648H391.03L398.46 476.144H413.318L420.747 474.896L425.7 471.151L428.176 469.278L435.605 465.159L443.035 463.662L450.464 456.172L457.893 448.682H465.322L472.751 446.81L480.181 442.689L482.657 441.192L487.609 436.199L495.039 435.2L502.468 435.575L509.897 436.199L517.326 441.192L524.755 446.186L532.185 448.682L539.614 456.172L532.185 463.662L524.755 467.407L521.041 471.152L517.326 474.897L514.85 478.642V508.603L517.326 516.093L524.756 519.836H532.185L539.615 521.709H547.044L554.473 523.581L561.902 531.071L569.331 538.561L576.761 543.554H584.189L586.666 546.051L587.902 553.541L591.617 561.031V568.521L599.046 576.011L606.475 579.756H613.906L617.621 583.501L621.335 587.246L628.765 590.991L636.194 598.481H643.623L651.052 602.226H665.91L673.34 605.971L680.769 609.716L688.198 608.468H695.627L703.056 605.971H710.486L717.915 613.461V620.951L710.486 628.441L703.056 632.185L699.342 635.93L698.105 643.42V665.89L695.633 673.38L688.203 675.877L680.774 680.87L675.821 688.36L673.348 695.85V710.83L670.872 718.32L669.635 725.81V733.3L673.35 740.79L680.778 748.28H688.208L695.637 744.535L703.066 740.79L710.495 735.796L717.925 733.3L725.354 728.306L732.783 725.81H740.203L747.632 722.065L755.061 718.32L762.49 710.83L768.065 703.343L769.922 699.598L777.352 695.853H784.778L792.207 700.846L794.68 703.343L796.662 710.833L798.147 718.323L799.633 722.068L803.348 725.813L807.062 733.303V740.793L799.633 748.283V763.262L792.204 770.752L786.632 778.242L784.775 785.732V815.691L781.06 823.181L777.346 826.926L773.631 830.671L769.916 838.161V845.65L773.631 853.14L777.346 856.885L784.775 860.63L792.204 863.127H799.636L807.065 862.128L809.542 860.631L814.495 856.886L821.924 853.141H836.783L844.212 858.134L851.641 860.631H859.07L866.499 858.759L873.928 855.636L881.357 853.139H888.787L896.215 860.629V883.098L899.93 890.588V898.078L901.167 905.568L902.157 913.057L903.643 916.802L907.357 920.547L911.072 924.292L913.545 928.037V935.527L916.022 943.016L918.494 946.761L920.971 950.506L925.933 954.249L933.362 955.497L940.791 957.994V965.483L933.362 972.973L925.933 976.716L918.504 975.468L916.031 972.971L911.078 967.978L903.649 966.73L901.173 965.481L896.219 962.488L888.79 960.991H881.358L873.929 960.492H859.07L856.594 957.996L851.641 955.499H836.783L833.068 957.996L829.354 961.74L824.401 965.485L821.924 967.982L814.496 972.975L807.066 975.471L799.637 980.465L792.208 982.961L787.255 987.954L784.779 989.827L779.207 995.444L777.35 997.317L773.635 1002.93L772.892 1010.42L774.873 1017.91L775.492 1025.4L777.35 1027.28H784.778L792.207 1032.89L799.636 1040.38V1062.85L807.065 1070.34L814.495 1072.84L821.924 1075.33L829.353 1072.84H836.783L840.498 1070.34L844.212 1067.84L849.165 1062.85L851.641 1055.36L855.356 1047.87L857.585 1040.38L859.07 1037.89L862.785 1032.89L866.5 1025.4L868.972 1017.91L873.926 1012.92L876.402 1010.42L881.355 1005.43L888.784 1004.81H896.215L903.645 1010.42H918.503V1002.93L925.933 995.442H933.362L940.791 987.952H955.649L963.078 980.463H977.936L981.651 972.973L980.415 965.483L977.938 962.987L970.51 965.483H963.08L955.651 957.994V943.014L959.366 935.525L958.129 928.035L960.606 920.545L963.079 916.8L966.793 913.055V905.566L970.508 898.076V883.096L977.937 875.607L985.366 868.117L992.796 860.627L1000.22 853.137L1003.94 845.647L1005.8 838.158V815.688L1007.65 811.943L1011.37 808.198L1015.08 804.453L1022.51 800.709L1028.08 793.219L1029.94 791.346L1035.51 785.729L1037.37 783.232L1044.8 780.736L1052.23 778.239H1059.66L1067.09 785.729V793.219L1059.66 800.709V808.198L1055.94 815.688V830.668L1052.23 838.158L1044.8 845.647H1037.37V883.096L1033.66 890.586L1032.42 898.076L1029.95 905.566L1032.42 913.055L1033.66 920.545L1037.37 923.042L1044.8 925.538H1059.66L1067.09 928.035L1074.52 935.525L1081.95 939.269L1089.38 935.525H1096.8V928.035L1089.37 920.545L1081.95 916.8L1078.23 913.055L1074.52 905.566V890.586L1081.95 886.841L1084.42 883.096L1085.66 875.607L1089.37 868.117L1096.8 860.627H1119.09L1126.52 863.124L1133.95 868.117V898.076L1131.47 905.566V913.055L1126.52 920.545L1122.8 928.035V935.525L1126.52 943.014V950.504H1133.95L1141.38 946.759L1148.81 943.014H1163.67L1171.09 950.504H1178.52L1182.24 957.994L1185.95 961.738L1187.81 965.483L1193.38 971.101L1200.81 972.973H1208.24L1215.67 967.98L1218.15 965.483L1223.1 957.994L1226.81 950.504L1230.53 943.014L1234.24 935.525V928.035L1237.96 920.545L1241.67 913.055L1245.39 909.31L1249.1 905.566L1252.82 903.069L1260.25 898.076L1267.67 890.586L1275.1 886.841L1282.53 890.586L1286.25 898.076V920.545L1289.96 924.29L1297.39 925.538L1304.82 924.29L1312.25 928.035H1319.68L1327.11 924.29H1334.54L1341.97 920.545H1349.4L1353.11 928.035L1354.35 935.525L1353.11 943.014L1349.4 950.504L1356.82 957.994L1360.54 965.483L1361.78 972.973L1364.25 975.47L1371.69 980.463H1386.54L1393.97 972.973H1401.4V965.483L1408.83 957.994V950.504L1416.26 943.014H1445.97L1453.4 940.518L1460.84 939.269L1468.26 937.397H1475.69L1479.41 935.525L1483.12 928.035V920.545L1480.65 913.055L1475.69 905.566V890.586H1468.26L1460.84 898.076V905.566L1453.41 913.055H1445.98L1438.55 905.566L1431.12 898.076H1416.26L1408.83 890.586H1401.4L1393.97 888.09L1386.54 886.841H1371.69L1364.26 883.096L1356.83 875.607L1354.35 868.117L1349.4 863.124L1346.92 860.627L1341.97 855.634L1339.49 853.137L1334.54 848.144L1332.68 845.647L1329.59 838.158L1327.11 830.668L1325.25 823.178L1324.63 815.688V800.709L1327.11 793.219L1334.54 785.726H1341.97L1349.4 778.236H1364.25V770.746H1334.54L1327.11 774.491H1312.25L1304.82 770.746L1297.39 765.753L1293.68 763.256L1289.96 760.76L1282.53 758.265L1278.82 755.768L1275.11 754.272H1267.68L1260.25 754.521H1252.82L1245.39 755.77L1237.96 760.763L1230.53 763.259L1223.1 768.253L1219.38 770.749L1215.67 774.494L1208.24 778.239L1200.81 770.749V740.79L1193.38 733.3L1185.96 737.045L1183.48 740.79L1178.53 745.783L1176.67 748.28V755.769L1176.05 763.259L1178.53 770.749L1171.1 778.239H1163.67L1156.24 774.494L1148.81 770.749L1141.38 766.255L1138.41 763.261L1133.95 758.767L1130.98 755.774L1130.24 748.285L1129 740.795L1130.24 733.305L1133.95 725.815L1126.52 718.325H1096.81L1089.38 714.58L1081.95 710.835L1074.52 703.345L1067.09 695.855V680.875L1074.52 673.385H1081.95L1089.37 669.64L1093.09 665.895L1096.8 663.399L1104.23 665.89L1111.66 673.38V680.87L1119.09 684.615L1126.52 683.367L1133.95 680.87H1148.81L1152.52 688.36L1156.24 692.105L1163.67 695.85H1178.52L1185.95 688.36L1193.38 680.87L1200.81 678.374L1208.24 677.125L1215.67 680.87L1223.1 688.36V703.34H1230.53V688.36L1237.96 680.87L1245.39 678.998L1252.82 677.125L1260.25 673.38H1275.1L1282.53 680.87V688.36L1289.96 695.85V718.32H1304.82L1308.53 710.83L1312.25 703.34V688.36L1319.68 680.87L1312.25 673.38L1304.82 669.635L1297.39 665.89H1289.96L1282.53 658.4L1275.11 650.91L1267.68 643.42L1260.25 635.93V628.441L1267.68 620.951H1282.53L1289.96 613.461L1282.53 605.971L1286.25 598.481V583.501L1282.53 576.011L1278.82 568.521L1275.11 561.031V553.544L1277.58 546.054L1282.53 542.306L1286.25 538.561L1289.96 533.568L1292.44 531.071L1297.39 526.078L1301.11 523.581L1304.82 519.836L1312.25 516.091H1334.54L1341.97 508.601L1349.4 501.111L1356.82 493.621L1364.25 489.876L1371.69 493.621L1379.11 501.111H1401.4L1408.83 493.621H1423.69L1431.12 486.128V478.638L1438.55 471.149L1445.97 463.659V433.701L1447.83 426.211L1449.69 418.721V411.229L1445.97 403.739L1438.55 399.994L1431.12 398.122L1427.4 396.249L1423.69 393.752L1418.73 388.759L1416.26 385.014L1413.78 381.269V373.78L1416.26 371.284L1421.21 366.29L1423.69 364.417H1431.12L1434.83 366.29L1438.55 370.035H1445.97L1453.4 366.29V358.8L1454.89 351.31L1460.84 343.819L1468.26 337.828L1470.74 336.331L1475.69 331.337L1478.67 328.841L1481.64 321.35L1483.12 319.478L1490.55 313.86H1494.27" stroke="#EAEAEB" stroke-width="2" stroke-linecap="round" stroke-linejoin="round"/>
</svg>
