<svg width="395" height="282" viewBox="0 0 395 282" fill="none" xmlns="http://www.w3.org/2000/svg">
<g opacity="0.3" clip-path="url(#clip0_2644_2645)">
<path fill-rule="evenodd" clip-rule="evenodd" d="M-60.9659 101.39C-60.9874 102.609 -60.4516 103.772 -59.5106 104.548L-54.8689 108.373C-54.7099 108.504 -54.5612 108.647 -54.4242 108.801L-50.6315 113.065C-49.992 113.784 -49.1148 114.249 -48.1606 114.373L-44.7711 114.816C-43.5863 114.97 -42.5327 115.647 -41.8986 116.659L-39.8798 119.884C-39.0562 121.2 -37.5458 121.92 -36.0051 121.732L-29.326 120.917C-28.0534 120.762 -26.7835 121.226 -25.9109 122.165L-17.4925 131.229C-16.5302 132.265 -16.1864 133.732 -16.5881 135.087L-16.9875 136.435C-17.5385 138.295 -16.676 140.282 -14.9412 141.149L-14.5191 141.36C-13.98 141.63 -13.5088 142.018 -13.1407 142.495L-8.26472 148.816C-7.97717 149.189 -7.75768 149.61 -7.61638 150.059L-6.17231 154.648C-5.57058 156.561 -6.64336 158.597 -8.56089 159.182L-8.99049 159.313C-9.3689 159.429 -9.70635 159.65 -9.96294 159.951C-10.8421 160.983 -10.5099 162.567 -9.29016 163.159L-8.14857 163.713C-7.61446 163.972 -7.16746 164.381 -6.86227 164.89L-6.30025 165.828C-5.76169 166.727 -5.59713 167.801 -5.84193 168.819L-6.8272 172.919C-7.06656 173.915 -7.67892 174.781 -8.53803 175.339L-9.83618 176.182C-11.0598 176.976 -11.7537 178.374 -11.647 179.829L-11.2336 185.469C-11.1319 186.855 -10.318 188.089 -9.08375 188.729L-5.1177 190.783C-4.44007 191.134 -3.87696 191.671 -3.49483 192.332L1.22161 200.484C1.34693 200.701 1.45164 200.929 1.53436 201.165L3.38653 206.453C3.79273 207.613 4.70944 208.521 5.8727 208.917L10.64 210.54L15.7543 212.97C17.2613 213.686 18.1657 215.262 18.0233 216.924L17.78 219.766C17.6903 220.813 17.192 221.783 16.393 222.466L11.8562 226.342C11.1538 226.942 10.6808 227.767 10.5176 228.676L9.82837 232.516C9.7113 233.169 9.75811 233.84 9.96462 234.469L14.35 247.842C14.4628 248.186 14.6218 248.513 14.8226 248.814L19.76 256.22L25.8223 264.982C26.8276 266.435 28.7988 266.838 30.2943 265.898C30.7511 265.61 31.1305 265.215 31.3992 264.747L34.36 259.59L38.9288 253.44C39.2139 253.057 39.5656 252.727 39.9672 252.467L46.7538 248.077C46.9774 247.933 47.186 247.766 47.3764 247.58L52.71 242.37L55.7575 239.948C56.7132 239.189 58.1216 239.466 58.7188 240.53C59.0922 241.196 59.05 242.017 58.6102 242.641L55.1368 247.57C54.7709 248.089 54.2865 248.514 53.7239 248.809L46.9283 252.37C46.624 252.529 46.3416 252.727 46.0879 252.959L42.4 256.326C42.2005 256.508 42.02 256.71 41.8612 256.929L35.48 265.71L32.7869 268.687C31.5781 270.023 31.412 272.003 32.3814 273.522L35.36 278.19L37.4055 282.273C37.7038 282.868 37.8487 283.529 37.8272 284.194L37.5237 293.571C37.4953 294.446 37.755 295.306 38.2627 296.02L41.1495 300.076C41.3687 300.384 41.5432 300.721 41.6676 301.078L43.1254 305.259C43.1884 305.439 43.2643 305.615 43.3524 305.785L49.7547 318.114C49.9764 318.541 50.1193 319.005 50.1764 319.482L51.0061 326.416C51.1363 327.504 50.8142 328.598 50.1151 329.442L48.8517 330.968C47.7329 332.319 45.8645 332.783 44.2433 332.113L30.4769 326.425C29.9904 326.223 29.5484 325.928 29.1762 325.556L22.0432 318.423C21.5244 317.904 21.1583 317.253 20.9849 316.54L17.76 303.28L16.7187 299.879C16.0135 297.576 13.448 296.414 11.2519 297.403L5.89633 299.814C3.66492 300.819 2.95163 303.64 4.4375 305.585C5.72533 307.27 5.38376 309.683 3.67885 310.945L-2.1529 315.26C-3.86972 316.531 -4.2856 318.926 -3.09755 320.701L0.529999 326.12L3.86263 330.102C5.22058 331.724 5.08019 334.124 3.54228 335.577L0.482555 338.467C-1.31761 340.168 -1.15533 343.08 0.822708 344.57L8.15 350.09L10.6069 352.462C11.2747 353.107 12.1462 353.5 13.0718 353.573L23.4318 354.387C24.9337 354.506 26.2418 355.458 26.8161 356.85L32.8576 371.503C33.1087 372.111 33.2055 372.773 33.1395 373.428L32.4827 379.951C32.4027 380.746 32.087 381.498 31.5761 382.111L27.5804 386.907C27.4404 387.076 27.2868 387.232 27.1212 387.375L18.6422 394.696C17.3054 395.85 16.8837 397.744 17.6047 399.356L25.35 416.675C25.6945 417.445 25.7866 418.305 25.6131 419.13L23.3198 430.046C22.7448 432.784 25.0847 435.251 27.8485 434.821L36.3047 433.507C36.5079 433.476 36.7133 433.46 36.9189 433.46H41.5588C43.2393 433.46 44.5412 431.99 44.3382 430.322C44.2617 429.693 43.9739 429.108 43.5218 428.664L36.48 421.74L31.24 416.24L26.478 410.46C26.1621 410.077 25.9204 409.638 25.7652 409.166L23.9352 403.6C23.3415 401.794 24.2501 399.837 26.0129 399.125C27.6053 398.482 29.4302 399.05 30.3765 400.483L37.3472 411.04C37.6005 411.424 37.918 411.761 38.2858 412.037L45.2464 417.255C46.1816 417.956 46.7633 419.031 46.8386 420.198L47.3783 428.559C47.5013 430.466 48.9553 432.019 50.8495 432.268L62.5934 433.809C63.9773 433.991 65.2702 433.083 65.57 431.72L66.7712 419.262C66.797 418.995 66.7958 418.725 66.7675 418.458L65.9354 410.586C65.7258 408.604 67.0079 406.77 68.9415 406.286L69.484 406.15C70.781 405.825 71.83 404.874 72.2795 403.614L74.4472 397.542C74.6012 397.111 74.68 396.656 74.68 396.197V389.607C74.68 388.522 74.2397 387.484 73.46 386.731L67.19 380.67L63.2881 376.023C62.4494 375.025 62.1502 373.68 62.4866 372.42L63.1256 370.026C63.3368 369.234 63.3 368.397 63.0202 367.628L61.4804 363.391C61.3738 363.098 61.3019 362.794 61.2661 362.484L60.0223 351.716C59.9744 351.301 59.9917 350.882 60.0735 350.472L61.2 344.84L61.6923 339.845C61.8487 338.258 62.9333 336.915 64.4523 336.428L68.94 334.99L72.7298 333.652C74.463 333.04 75.556 331.325 75.3794 329.496L74.7394 322.866C74.7072 322.532 74.4004 322.294 74.0689 322.346C73.3742 322.455 73.1166 321.468 73.776 321.224L76.9518 320.046C77.017 320.022 77.0849 320.005 77.1539 319.997L84.7297 319.017C85.9284 318.862 86.0899 317.192 84.943 316.81C84.164 316.551 83.9079 315.577 84.4587 314.968L86.9213 312.246C87.6239 311.469 88.6349 311.044 89.6814 311.085L96.602 311.358C97.1288 311.379 97.6545 311.296 98.1489 311.113L106.77 307.92C107.252 307.742 107.695 307.472 108.075 307.126L111.065 304.402C111.599 303.916 111.99 303.296 112.2 302.605L113.083 299.693C113.423 298.568 114.242 297.651 115.32 297.183L117.884 296.072C118.68 295.727 119.566 295.65 120.41 295.852L131.09 298.42L140.71 301.53L148.054 303.841C148.955 304.124 149.928 304.08 150.8 303.714L153.736 302.484C154.318 302.241 154.813 301.826 155.155 301.295C156.042 299.918 155.714 298.088 154.402 297.106L152.462 295.651C152.038 295.334 151.682 294.935 151.413 294.478L149.32 290.92L148.606 289.746C147.696 288.25 148.425 286.296 150.093 285.761C151.66 285.259 153.309 286.259 153.587 287.881L153.634 288.152C153.748 288.817 154.087 289.423 154.593 289.868L158.315 293.136C158.804 293.566 159.391 293.869 160.024 294.021L165.113 295.238C166.535 295.578 168.03 295.115 169.011 294.03L170.53 292.35L172.655 289.702C173.371 288.81 173.67 287.655 173.479 286.528L172.899 283.113C172.669 281.76 171.762 280.62 170.496 280.091L166.54 278.44L160.23 276.063C160.032 275.989 159.855 275.871 159.71 275.718C158.88 274.843 159.478 273.399 160.684 273.367L162.117 273.328C162.324 273.323 162.532 273.349 162.731 273.406L168.488 275.056C169.094 275.229 169.65 275.544 170.112 275.973L173.511 279.137C174.396 279.961 175.606 280.341 176.803 280.169L183.14 279.263C183.479 279.215 183.822 279.21 184.162 279.249L188.367 279.731C188.878 279.79 189.395 279.75 189.89 279.613L192.799 278.808C193.658 278.571 194.403 278.033 194.898 277.292C195.372 276.586 195.589 275.738 195.513 274.89L195.413 273.783C195.159 270.946 197.867 268.76 200.587 269.607L201.387 269.856C202.107 270.081 202.75 270.505 203.24 271.079L207.528 276.104C207.583 276.168 207.632 276.236 207.675 276.308C208.297 277.34 207.535 278.653 206.33 278.625L205.085 278.596C204.395 278.579 203.737 278.886 203.306 279.425L201.349 281.869C200.799 282.557 200.49 283.408 200.473 284.289L200.38 288.936C200.373 289.264 200.326 289.59 200.24 289.907L199.383 293.05C199.295 293.375 199.25 293.711 199.25 294.047V296.943C199.25 298.046 198.184 298.837 197.128 298.517C196.655 298.373 196.271 298.024 196.083 297.567L193 290.05L192.417 288.747C191.784 287.332 190.391 286.411 188.843 286.381L186.566 286.337C185.644 286.32 184.744 286.621 184.019 287.19L170.261 297.992C169.704 298.429 169.273 299.007 169.012 299.666L167.024 304.688C166.869 305.08 166.653 305.445 166.383 305.77L160.819 312.475C160.324 313.072 160.013 313.8 159.924 314.571L159.445 318.715C159.357 319.476 159.489 320.246 159.826 320.933L161.889 325.146C162.526 326.445 163.815 327.3 165.26 327.38L165.744 327.407C166.816 327.466 167.818 327.956 168.524 328.765L169.552 329.944C170.65 331.202 170.34 333.147 168.907 334.002C168.135 334.463 167.183 334.505 166.373 334.114L163.548 332.752C162.111 332.059 160.399 332.286 159.192 333.331L156.827 335.379C156.65 335.532 156.452 335.66 156.239 335.757C154.422 336.591 152.417 335.041 152.767 333.073L153.624 328.242C153.668 327.995 153.688 327.743 153.685 327.492L153.576 318.875C153.566 318.064 153.309 317.276 152.84 316.614L151.288 314.423C150.455 313.247 149.054 312.61 147.62 312.755L140.964 313.43C140.382 313.489 139.794 313.42 139.241 313.227L135.74 312.003C133.607 311.257 131.28 312.426 130.603 314.582L127.642 324.023C127.297 325.121 126.497 326.017 125.445 326.483L118.834 329.41C118.519 329.549 118.188 329.648 117.848 329.702L109.699 331.008C108.764 331.158 107.805 330.971 106.995 330.48L104.261 328.825C103.766 328.525 103.342 328.122 103.018 327.642L101.623 325.575C100.724 324.245 99.1162 323.58 97.54 323.889L82.91 326.75C80.5979 327.235 80.2461 330.389 82.3729 331.418C82.8061 331.627 83.2941 331.708 83.7714 331.648L83.8327 331.64C85.7895 331.393 87.3413 333.261 86.7397 335.139L86.1998 336.825C86.0095 337.419 85.9674 338.051 86.0771 338.665L86.5245 341.17C86.6896 342.094 87.1742 342.93 87.8936 343.533L90.291 345.541C90.9782 346.117 91.31 347.013 91.1634 347.897C90.947 349.202 89.7626 350.121 88.4445 350.007L85.7736 349.774C85.2918 349.732 84.8069 349.808 84.3608 349.995L82.7583 350.666C81.3743 351.246 81.1243 353.1 82.3052 354.026C82.4608 354.148 82.5972 354.293 82.7096 354.455L86.999 360.663C87.1856 360.933 87.4048 361.18 87.6516 361.396L90.4882 363.885C92.1112 365.309 94.5715 365.188 96.047 363.612L96.6422 362.975C96.8137 362.792 96.9675 362.593 97.1017 362.381L99.6051 358.425C99.9563 357.87 100.165 357.237 100.214 356.582L100.321 355.143C100.441 353.521 101.532 352.133 103.08 351.633L104.454 351.189C104.658 351.123 104.866 351.074 105.078 351.041L108.897 350.456C109.925 350.298 110.851 349.746 111.479 348.917L114 345.59L119.817 339.297C120.012 339.086 120.183 338.855 120.329 338.607L122.751 334.482C123.181 333.749 124.049 333.397 124.868 333.623C126.018 333.941 126.583 335.237 126.033 336.295L120.501 346.956C120.243 347.453 119.884 347.891 119.446 348.24L114.62 352.09L106.88 356.7L100.804 361.238C100.615 361.379 100.439 361.537 100.278 361.709L96.2476 366.012C94.6494 367.718 94.849 370.425 96.6803 371.879L101.654 375.827C103.11 376.982 103.578 378.989 102.784 380.669L100.723 385.028C100.197 386.14 100.212 387.432 100.764 388.532L102.89 392.77L106.043 401.584C106.345 402.43 106.924 403.149 107.686 403.626L125.015 414.482C126.361 415.325 128.078 415.293 129.39 414.399L132.474 412.298C133.124 411.856 133.628 411.232 133.926 410.504L137.9 400.77L142.817 392.19C143.379 391.21 144.33 390.512 145.435 390.271L153.876 388.429C154.328 388.331 154.795 388.311 155.254 388.372L168.219 390.092C168.512 390.13 168.809 390.137 169.103 390.11L176.611 389.436C176.804 389.419 176.997 389.415 177.189 389.426L179.045 389.528C180.318 389.599 181.481 390.271 182.177 391.339L182.907 392.462C184.132 394.342 183.57 396.863 181.662 398.045L178.28 400.14L169.593 405.992C167.975 407.082 167.379 409.181 168.184 410.959L171.407 418.078C171.885 419.134 172.798 419.93 173.908 420.261L179.27 421.86L180.634 422.25C182.773 422.861 184.003 425.101 183.369 427.235L183.043 428.334C182.519 430.099 183.267 431.994 184.856 432.924L187.481 434.461C188.306 434.944 189.277 435.116 190.218 434.944L196.341 433.829C197.614 433.598 198.696 432.765 199.246 431.593L200.383 429.17C200.853 428.168 201.717 427.406 202.769 427.065L208.04 425.353C209.652 424.83 210.76 423.347 210.804 421.653L210.81 421.39C210.842 420.188 210.318 419.024 209.405 418.241C208.661 417.602 207.698 417.25 206.718 417.267L201.49 417.36L198.401 417.003C197 416.841 195.797 415.93 195.262 414.626L195.241 414.575C194.586 412.98 195.086 411.144 196.459 410.101C196.978 409.707 197.589 409.453 198.234 409.363L202.253 408.802C203.059 408.69 203.811 408.335 204.409 407.784L207.233 405.186C207.862 404.608 208.157 403.753 208.019 402.91C207.715 401.056 209.461 399.527 211.258 400.073L211.48 400.14L216.966 401.488C218.219 401.796 219.111 402.906 219.141 404.197C219.179 405.804 220.534 407.065 222.14 406.985L228.711 406.661C229.121 406.64 229.526 406.557 229.911 406.414L234.47 404.715C235.263 404.419 235.942 403.88 236.409 403.174L238.497 400.019C239.974 397.788 238.64 394.778 235.996 394.373C235.549 394.305 235.094 394.32 234.653 394.417L226.153 396.29C224.242 396.711 222.306 395.688 221.579 393.871L220.326 390.742C220.01 389.955 219.953 389.087 220.163 388.265L220.566 386.689C221.353 383.608 218.013 381.12 215.287 382.757C214.105 383.467 213.439 384.796 213.578 386.167L214.093 391.24C214.242 392.705 213.321 394.066 211.906 394.473L211.111 394.702C208.867 395.347 206.928 393.015 207.972 390.926C208.555 389.761 208.215 388.345 207.167 387.571L206.481 387.064C206.235 386.882 206.021 386.662 205.847 386.412L204.638 384.676C203.746 383.396 204.766 381.66 206.318 381.816C206.963 381.88 207.595 381.598 207.976 381.073L215.162 371.2C216.107 369.902 216.184 368.166 215.359 366.79L212.794 362.51C211.924 361.058 212.602 359.172 214.199 358.607C214.93 358.349 215.513 357.786 215.798 357.064L216.84 354.423C218.148 351.105 214.788 347.863 211.519 349.289L209.788 350.044C209.34 350.24 208.931 350.516 208.583 350.858L203.749 355.611C202.397 356.94 200.259 357.033 198.798 355.826C197.104 354.427 196.994 351.87 198.561 350.332L208.933 340.145C209.378 339.708 209.715 339.173 209.916 338.582L212.493 331.031C212.95 329.692 214.08 328.694 215.465 328.406L231.748 325.026C232.212 324.929 232.656 324.751 233.058 324.499L240.141 320.063C241.524 319.197 242.242 317.578 241.956 315.971L238.784 298.176C238.638 297.359 238.75 296.517 239.105 295.766L244.063 285.265C245.066 283.14 247.676 282.334 249.703 283.522L258.862 288.892C259.464 289.244 260.147 289.434 260.844 289.441L270.547 289.54C271.186 289.547 271.818 289.4 272.389 289.112L286.62 281.94L298.062 277.174C300.04 276.35 302.316 277.231 303.223 279.172L305.368 283.76C305.898 284.894 306.929 285.714 308.153 285.977L325.412 289.676C327.413 290.105 329.414 288.955 330.051 287.012L331.302 283.201C331.387 282.941 331.445 282.673 331.476 282.401L333.617 263.34C333.734 262.296 334.258 261.339 335.075 260.678L340.072 256.633C341.733 255.288 344.158 255.487 345.578 257.084L353.45 265.939C353.826 266.361 354.287 266.7 354.803 266.931L362.793 270.513C365.14 271.566 367.855 270.161 368.353 267.638L369.62 261.22L374 247.842C374.159 247.358 374.408 246.909 374.734 246.519L379.671 240.622C380.277 239.897 381.121 239.411 382.051 239.249L393.767 237.207C395.682 236.874 397.08 235.211 397.08 233.267V230.542C397.08 228.473 395.503 226.746 393.443 226.558L391.476 226.379C389.944 226.239 388.628 225.233 388.091 223.792L385.999 218.179C385.9 217.914 385.829 217.639 385.789 217.359L383.951 204.743C383.884 204.284 383.897 203.818 383.99 203.364L385.582 195.586C385.827 194.389 386.606 193.369 387.698 192.818L399.08 187.07L411.144 182.759C412.129 182.407 412.936 181.684 413.394 180.744L416.398 174.575C416.896 173.554 417.804 172.792 418.897 172.48L426.26 170.38C428.455 169.754 429.681 167.421 428.954 165.258L425.384 154.646C425.007 153.526 425.145 152.298 425.759 151.289L427.3 148.762C427.698 148.108 427.901 147.353 427.883 146.587L427.588 133.833C427.558 132.544 426.908 131.349 425.844 130.622L420.945 127.279C420.455 126.944 420.045 126.504 419.745 125.991L414.471 116.95C413.561 115.392 411.721 114.635 409.978 115.103L395.717 118.935C395.139 119.09 394.535 119.113 393.948 119.004L387.846 117.87C387.596 117.823 387.351 117.753 387.114 117.66L378.95 114.451C377.723 113.968 376.813 112.912 376.516 111.628L374.576 103.222C374.44 102.635 374.439 102.025 374.573 101.437L376.742 91.8836C377.174 89.9816 376.171 88.0453 374.368 87.3008L370.769 85.8144C370.425 85.6722 370.062 85.5788 369.692 85.5369L360.628 84.5116C360.383 84.4839 360.142 84.4338 359.906 84.3617L347.571 80.5854C346.814 80.3537 346.143 79.9025 345.642 79.2891L336.336 67.8805C335.397 66.7301 335.173 65.1546 335.754 63.7882L338.18 58.075C338.572 57.1521 338.604 56.1157 338.268 55.171L334.984 45.9374C334.017 43.2157 330.571 42.3858 328.47 44.3683L324.634 47.9882C324.255 48.346 323.81 48.6261 323.323 48.813L307.678 54.8223C306.181 55.397 304.486 55.0229 303.371 53.8717L300.227 50.6273C298.562 48.9089 298.768 46.1227 300.668 44.668L316.189 32.7829C316.606 32.4641 316.955 32.0665 317.218 31.6128L325.731 16.9243C326.657 15.326 326.369 13.3013 325.033 12.0255L307.84 -4.39L296.876 -17.0933C295.87 -18.2586 294.285 -18.7433 292.799 -18.3399L282.366 -15.5068C281.187 -15.1866 280.219 -14.3454 279.738 -13.2227L277.004 -6.8463C276.603 -5.9108 276.574 -4.85758 276.922 -3.90119L281.232 7.93096C281.642 9.05709 282.536 9.93996 283.667 10.3366L285.85 11.1022C286.518 11.3365 287.236 11.3893 287.932 11.255L295.71 9.75314C297.041 9.49617 298.411 9.94365 299.333 10.9369C300.338 12.0189 300.651 13.5729 300.143 14.9594L299.277 17.3267C298.926 18.2858 298.221 19.0742 297.307 19.5305L290.24 23.06L285.881 25.0894C285.22 25.3973 284.655 25.8801 284.248 26.4855L282.297 29.3903C280.719 31.7409 277.265 31.7521 275.671 29.4118L275.4 29.0136C274.366 27.4955 274.499 25.4683 275.722 24.0981L279.31 20.0791C280.744 18.4726 280.649 16.0191 279.095 14.5284L276.126 11.6813C275.883 11.448 275.67 11.185 275.493 10.8983L269.504 1.21294C269.103 0.564507 268.525 0.0441666 267.838 -0.286787L252.766 -7.54971C252.127 -7.85769 251.417 -7.99014 250.71 -7.93347L236.475 -6.79287C236.285 -6.77765 236.094 -6.77602 235.904 -6.78803L215.983 -8.0446C215.008 -8.10607 214.045 -7.80893 213.274 -7.20918L204.489 -0.371983C203.687 0.252459 202.677 0.547939 201.664 0.454399L191.01 -0.530001L178.845 -0.850462C175.792 -0.930897 173.779 2.30228 175.198 5.00687L175.821 6.19486C176.045 6.62144 176.344 7.00408 176.704 7.32434L184.15 13.95L192.482 22.8841C192.824 23.2514 193.233 23.5509 193.686 23.767L195.952 24.8467C197.599 25.6315 198.506 27.4315 198.157 29.2224L194.634 47.3123C194.328 48.8823 194.987 50.4835 196.309 51.3836L200.899 54.5079C202.242 55.4224 204.005 55.4332 205.36 54.5354L209.632 51.7037C211.378 50.5459 213.723 50.9324 215.005 52.5897L218.515 57.1247C218.651 57.3012 218.803 57.4661 218.967 57.6174L228.33 66.25L229.728 67.2516C231.002 68.1643 231.626 69.7369 231.324 71.2748L230.57 75.11L229.129 86.3793C228.945 87.8235 229.559 89.2539 230.734 90.114L238.65 95.9101C238.922 96.1092 239.168 96.3419 239.382 96.6027L241.428 99.1007C243.079 101.116 242.394 104.146 240.037 105.255L238.56 105.95L233.402 107.786C232.041 108.27 230.526 107.984 229.436 107.037L227.439 105.301C226.805 104.75 226.378 104 226.229 103.174L225.733 100.435C225.444 98.84 223.532 98.1624 222.303 99.2197C220.944 100.389 218.84 99.4236 218.84 97.631V95.58L218.214 89.5379C218.133 88.7566 218.284 87.9688 218.648 87.2727L219.459 85.7218C221.034 82.7087 218.051 79.3453 214.871 80.5483C214.13 80.8287 213.499 81.3397 213.07 82.0061L206.992 91.4484C206.825 91.7086 206.628 91.9484 206.405 92.1632L204.344 94.1502C203.562 94.9041 203.12 95.9436 203.12 97.0299V98.9726C203.12 99.4536 203.207 99.9306 203.376 100.381L203.808 101.529C204.724 103.963 203.109 106.61 200.526 106.911L198.12 107.19L192.13 107.44L184.677 108.258C183.617 108.375 182.646 108.91 181.983 109.745L181.037 110.934C180.175 112.019 179.936 113.474 180.405 114.778L180.454 114.913C181.237 117.088 183.695 118.148 185.814 117.226L188.055 116.25C189.067 115.81 190.215 115.806 191.228 116.241L194.029 117.442C195.767 118.187 196.746 120.047 196.376 121.9L196.259 122.487C195.95 124.039 194.754 125.263 193.209 125.608L186.942 127.01C186.497 127.109 186.039 127.132 185.587 127.077L176.444 125.967C175.158 125.811 174.362 124.487 174.828 123.278C175.478 121.592 173.722 119.983 172.098 120.777L164.552 124.47C162.171 125.635 161.561 128.751 163.327 130.727L166.527 134.311C166.95 134.783 167.478 135.149 168.07 135.377L176.917 138.794C177.718 139.103 178.398 139.662 178.857 140.387L181.412 144.428C182.581 146.276 182.05 148.72 180.219 149.915L177.6 151.626C175.863 152.76 175.281 155.034 176.26 156.862L178.159 160.409C178.319 160.708 178.517 160.986 178.747 161.236L189.885 173.291C190.953 174.447 192.6 174.869 194.092 174.37L203.827 171.114C205.6 170.521 207.548 171.236 208.517 172.836L211.103 177.107C211.586 177.904 211.775 178.844 211.639 179.766L210.868 184.961C210.704 186.069 210.082 187.058 209.154 187.686L204.549 190.804C203.935 191.22 203.218 191.457 202.477 191.488L183.623 192.294C183.223 192.311 182.823 192.268 182.437 192.167L165.611 187.751C165.154 187.631 164.722 187.432 164.335 187.161L154.373 180.199C152.991 179.234 152.363 177.505 152.802 175.878L155.584 165.577C156.304 162.91 154.168 160.334 151.414 160.546L142.043 161.271C139.173 161.492 137.47 164.581 138.814 167.126L138.973 167.428C139.292 168.033 139.761 168.545 140.335 168.917L145.334 172.158C147.192 173.362 147.718 175.846 146.509 177.7L145.513 179.227C145.144 179.793 144.637 180.256 144.04 180.574L137.415 184.094C136.004 184.844 135.175 186.362 135.306 187.955L135.768 193.565C135.815 194.141 135.987 194.701 136.272 195.204L139.249 200.474C139.468 200.862 139.751 201.211 140.085 201.505L143.825 204.807C144.55 205.447 145.019 206.328 145.145 207.287L145.271 208.253C145.456 209.668 144.873 211.075 143.74 211.945L138.742 215.782C137.174 216.986 136.786 219.189 137.85 220.856L138.521 221.907C139.196 222.964 140.562 223.336 141.68 222.768L142.053 222.578C143.792 221.693 145.756 223.289 145.247 225.172C145.06 225.862 145.213 226.601 145.658 227.16L148.32 230.51L154.199 236.571C154.971 237.368 156.04 237.808 157.149 237.786L159.971 237.73C162.435 237.682 164.099 235.194 163.202 232.898C163.101 232.64 162.97 232.395 162.812 232.167L159.452 227.325C159.032 226.72 158.787 226.011 158.745 225.276L158.31 217.78L156.743 209.245C156.557 208.23 157.05 207.211 157.962 206.728C159.253 206.044 160.851 206.683 161.313 208.07L166.67 224.15L170.16 233.51L171.543 239.169C172.128 241.565 170.427 243.914 167.968 244.106L163.05 244.49L151.413 244.704C150.175 244.727 149.017 245.322 148.278 246.315L138.325 259.688C138.005 260.118 137.601 260.48 137.138 260.751L131.89 263.826C130.263 264.779 128.19 264.466 126.917 263.074L120.7 256.279C120.079 255.601 119.243 255.157 118.333 255.022L110.177 253.819C108.757 253.609 107.558 252.655 107.035 251.317L105.88 248.36L102.438 233.764C102.035 232.056 100.565 230.81 98.8133 230.692L92.9201 230.295C92.5748 230.272 92.228 230.293 91.8883 230.359L81.9022 232.3C80.1395 232.643 78.3644 231.769 77.5614 230.163L76.1923 227.425C75.9338 226.908 75.7905 226.341 75.772 225.763L75.4409 215.382C75.4336 215.154 75.4458 214.927 75.4773 214.701L76.93 204.3L77.0962 198.41C77.146 196.646 76.0349 195.059 74.3614 194.502L68.56 192.57L55.7713 188.193C54.843 187.876 54.0638 187.228 53.582 186.373L50.7659 181.377C49.6962 179.479 47.3045 178.786 45.386 179.819L39.844 182.801C39.2003 183.147 38.6638 183.663 38.2929 184.293L35.2852 189.399C33.9413 191.68 30.7916 192.05 28.956 190.141L24.2554 185.255C23.4574 184.426 23.0555 183.292 23.1523 182.146L23.8597 173.762C23.9495 172.699 24.4608 171.715 25.2799 171.03L33.4947 164.162C35.2517 162.693 33.9172 159.847 31.6642 160.259C30.5633 160.46 29.4839 159.813 29.1414 158.748L26.13 149.38L19.9946 131.59C19.8394 131.14 19.6053 130.722 19.3031 130.354L11.4382 120.787C10.8449 120.065 10.5229 119.158 10.5282 118.224L10.6342 99.6065C10.638 98.9331 10.8118 98.2715 11.1394 97.6832L15.0025 90.746C16.0008 88.9534 15.4808 86.6962 13.7989 85.521L11.9628 84.2381C11.0435 83.5958 10.436 82.5969 10.2886 81.4851L8.39191 67.1842C8.16902 65.5036 6.91092 64.1461 5.2521 63.7962L-11.2437 60.3172C-12.1831 60.119 -13.0199 59.5896 -13.6013 58.8256L-22.4196 47.2378C-23.0662 46.3881 -24.0257 45.8322 -25.0845 45.6938L-32.7216 44.6959C-34.0838 44.518 -35.4419 45.0514 -36.3188 46.1088L-41.0454 51.8081C-41.7502 52.658 -42.775 53.1787 -43.8771 53.247L-50.1717 53.6368C-52.4137 53.7757 -54.1018 55.733 -53.9098 57.9711L-53.5801 61.8134C-53.5338 62.3522 -53.3788 62.876 -53.1244 63.3532L-50.3939 68.4751C-49.3577 70.4187 -50.0877 72.8343 -52.027 73.8786L-56.4387 76.2545C-57.5755 76.8667 -58.3468 77.99 -58.51 79.2708L-59.38 86.1L-60.87 95.96L-60.9659 101.39Z" fill="#CCDCBF"/>
</g>
<defs>
<clipPath id="clip0_2644_2645">
<rect width="491.29" height="454.71" fill="white" transform="translate(-61 -19)"/>
</clipPath>
</defs>
</svg>
