<svg width="396" height="282" viewBox="0 0 396 282" fill="none" xmlns="http://www.w3.org/2000/svg">
<g opacity="0.2" clip-path="url(#clip0_2644_2856)">
<path fill-rule="evenodd" clip-rule="evenodd" d="M-60.2994 101.39C-60.3209 102.609 -59.7851 103.772 -58.8441 104.548L-54.2024 108.373C-54.0434 108.504 -53.8947 108.647 -53.7577 108.801L-49.965 113.065C-49.3255 113.784 -48.4483 114.249 -47.4941 114.373L-44.1046 114.816C-42.9198 114.97 -41.8662 115.647 -41.2321 116.659L-39.2133 119.884C-38.3896 121.2 -36.8793 121.92 -35.3386 121.732L-28.6595 120.917C-27.3869 120.762 -26.117 121.226 -25.2444 122.165L-16.826 131.229C-15.8637 132.265 -15.5199 133.732 -15.9216 135.087L-16.321 136.435C-16.872 138.295 -16.0095 140.282 -14.2747 141.149L-13.8526 141.36C-13.3135 141.63 -12.8423 142.018 -12.4742 142.495L-7.59821 148.816C-7.31066 149.189 -7.09118 149.61 -6.94987 150.059L-5.5058 154.648C-4.90408 156.561 -5.97686 158.597 -7.89439 159.182L-8.32398 159.313C-8.7024 159.429 -9.03985 159.65 -9.29644 159.951C-10.1756 160.983 -9.84335 162.567 -8.62365 163.159L-7.48207 163.713C-6.94796 163.972 -6.50096 164.381 -6.19577 164.89L-5.63374 165.828C-5.09519 166.727 -4.93063 167.801 -5.17542 168.819L-6.16069 172.919C-6.40006 173.915 -7.01241 174.781 -7.87153 175.339L-9.16967 176.182C-10.3933 176.976 -11.0872 178.374 -10.9805 179.829L-10.567 185.469C-10.4654 186.855 -9.65148 188.089 -8.41724 188.729L-4.4512 190.783C-3.77356 191.134 -3.21045 191.671 -2.82832 192.332L1.88812 200.484C2.01343 200.701 2.11814 200.929 2.20087 201.165L4.05303 206.453C4.45924 207.613 5.37595 208.521 6.5392 208.917L11.3065 210.54L16.4208 212.97C17.9278 213.686 18.8322 215.262 18.6898 216.924L18.4465 219.766C18.3568 220.813 17.8585 221.783 17.0595 222.466L12.5228 226.342C11.8203 226.942 11.3473 227.767 11.1841 228.676L10.4949 232.516C10.3778 233.169 10.4246 233.84 10.6311 234.469L15.0165 247.842C15.1293 248.186 15.2883 248.513 15.4891 248.814L20.4265 256.22L26.4888 264.982C27.4941 266.435 29.4653 266.838 30.9608 265.898C31.4176 265.61 31.797 265.215 32.0657 264.747L35.0265 259.59L39.5953 253.44C39.8804 253.057 40.2321 252.727 40.6337 252.467L47.4203 248.077C47.6439 247.933 47.8525 247.766 48.0429 247.58L53.3765 242.37L56.424 239.948C57.3797 239.189 58.7881 239.466 59.3853 240.53C59.7588 241.196 59.7165 242.017 59.2767 242.641L55.8033 247.57C55.4374 248.089 54.953 248.514 54.3904 248.809L47.5948 252.37C47.2905 252.529 47.0081 252.727 46.7544 252.959L43.0665 256.326C42.867 256.508 42.6865 256.71 42.5277 256.929L36.1465 265.71L33.4534 268.687C32.2446 270.023 32.0786 272.003 33.0479 273.522L36.0265 278.19L38.0721 282.273C38.3703 282.868 38.5152 283.529 38.4937 284.194L38.1902 293.571C38.1618 294.446 38.4215 295.306 38.9292 296.02L41.816 300.076C42.0352 300.384 42.2097 300.721 42.3342 301.078L43.7919 305.259C43.8549 305.439 43.9308 305.615 44.0189 305.785L50.4212 318.114C50.6429 318.541 50.7858 319.005 50.8429 319.482L51.6726 326.416C51.8028 327.504 51.4807 328.598 50.7816 329.442L49.5182 330.968C48.3995 332.319 46.531 332.783 44.9098 332.113L31.1434 326.425C30.6569 326.223 30.2149 325.928 29.8427 325.556L22.7097 318.423C22.1909 317.904 21.8248 317.253 21.6514 316.54L18.4265 303.28L17.3852 299.879C16.68 297.576 14.1145 296.414 11.9184 297.403L6.56284 299.814C4.33143 300.819 3.61813 303.64 5.104 305.585C6.39184 307.27 6.05026 309.683 4.34535 310.945L-1.48639 315.26C-3.20322 316.531 -3.6191 318.926 -2.43105 320.701L1.1965 326.12L4.52913 330.102C5.88708 331.724 5.7467 334.124 4.20879 335.577L1.14906 338.467C-0.651108 340.168 -0.488827 343.08 1.48921 344.57L8.81651 350.09L11.2734 352.462C11.9413 353.107 12.8127 353.5 13.7383 353.573L24.0983 354.387C25.6002 354.506 26.9083 355.458 27.4826 356.85L33.5241 371.503C33.7752 372.111 33.872 372.773 33.806 373.428L33.1492 379.951C33.0692 380.746 32.7535 381.498 32.2426 382.111L28.2469 386.907C28.1069 387.076 27.9533 387.232 27.7877 387.375L19.3087 394.696C17.9719 395.85 17.5502 397.744 18.2712 399.356L26.0165 416.675C26.361 417.445 26.4531 418.305 26.2796 419.13L23.9863 430.046C23.4113 432.784 25.7512 435.251 28.515 434.821L36.9712 433.507C37.1744 433.476 37.3798 433.46 37.5854 433.46H42.2253C43.9058 433.46 45.2077 431.99 45.0047 430.322C44.9282 429.693 44.6404 429.108 44.1883 428.664L37.1465 421.74L31.9065 416.24L27.1445 410.46C26.8286 410.077 26.5869 409.638 26.4317 409.166L24.6017 403.6C24.008 401.794 24.9166 399.837 26.6794 399.125C28.2718 398.482 30.0967 399.05 31.043 400.483L38.0137 411.04C38.267 411.424 38.5845 411.761 38.9523 412.037L45.9129 417.255C46.8481 417.956 47.4298 419.031 47.5051 420.198L48.0448 428.559C48.1678 430.466 49.6218 432.019 51.516 432.268L63.2599 433.809C64.6438 433.991 65.9367 433.083 66.2365 431.72L67.4377 419.262C67.4635 418.995 67.4623 418.725 67.434 418.458L66.6019 410.586C66.3923 408.604 67.6744 406.77 69.608 406.286L70.1505 406.15C71.4475 405.825 72.4965 404.874 72.946 403.614L75.1137 397.542C75.2677 397.111 75.3465 396.656 75.3465 396.197V389.607C75.3465 388.522 74.9062 387.484 74.1265 386.731L67.8565 380.67L63.9546 376.023C63.1159 375.025 62.8167 373.68 63.1531 372.42L63.7921 370.026C64.0033 369.234 63.9665 368.397 63.6867 367.628L62.1469 363.391C62.0403 363.098 61.9684 362.794 61.9326 362.484L60.6888 351.716C60.6409 351.301 60.6582 350.882 60.74 350.472L61.8665 344.84L62.3588 339.845C62.5152 338.258 63.5998 336.915 65.1188 336.428L69.6065 334.99L73.3963 333.652C75.1295 333.04 76.2225 331.325 76.0459 329.496L75.4059 322.866C75.3737 322.532 75.0669 322.294 74.7354 322.346C74.0407 322.455 73.7831 321.468 74.4425 321.224L77.6183 320.046C77.6835 320.022 77.7514 320.005 77.8204 319.997L85.3962 319.017C86.5949 318.862 86.7564 317.192 85.6095 316.81C84.8305 316.551 84.5744 315.577 85.1252 314.968L87.5878 312.246C88.2904 311.469 89.3014 311.044 90.3479 311.085L97.2685 311.358C97.7953 311.379 98.321 311.296 98.8154 311.113L107.437 307.92C107.919 307.742 108.362 307.472 108.742 307.126L111.732 304.402C112.265 303.916 112.657 303.296 112.866 302.605L113.749 299.693C114.09 298.568 114.908 297.651 115.986 297.183L118.55 296.072C119.346 295.727 120.233 295.65 121.076 295.852L131.757 298.42L141.377 301.53L148.72 303.841C149.622 304.124 150.595 304.08 151.466 303.714L154.403 302.484C154.985 302.241 155.479 301.826 155.821 301.295C156.709 299.918 156.38 298.088 155.069 297.106L153.129 295.651C152.705 295.334 152.348 294.935 152.08 294.478L149.987 290.92L149.272 289.746C148.362 288.25 149.091 286.296 150.759 285.761C152.326 285.259 153.975 286.259 154.254 287.881L154.3 288.152C154.414 288.817 154.753 289.423 155.26 289.868L158.982 293.136C159.471 293.566 160.057 293.869 160.69 294.021L165.779 295.238C167.202 295.578 168.697 295.115 169.677 294.03L171.197 292.35L173.322 289.702C174.037 288.81 174.337 287.655 174.146 286.528L173.566 283.113C173.336 281.76 172.429 280.62 171.163 280.091L167.206 278.44L160.896 276.063C160.699 275.989 160.521 275.871 160.376 275.718C159.547 274.843 160.145 273.399 161.35 273.367L162.783 273.328C162.991 273.323 163.198 273.349 163.398 273.406L169.155 275.056C169.761 275.229 170.317 275.544 170.778 275.973L174.177 279.137C175.062 279.961 176.272 280.341 177.469 280.169L183.806 279.263C184.145 279.215 184.489 279.21 184.829 279.249L189.034 279.731C189.544 279.79 190.061 279.75 190.556 279.613L193.465 278.808C194.324 278.571 195.069 278.033 195.565 277.292C196.038 276.586 196.255 275.738 196.179 274.89L196.08 273.783C195.826 270.946 198.534 268.76 201.253 269.607L202.053 269.856C202.774 270.081 203.417 270.505 203.907 271.079L208.195 276.104C208.249 276.168 208.298 276.236 208.341 276.308C208.963 277.34 208.201 278.653 206.996 278.625L205.752 278.596C205.061 278.579 204.403 278.886 203.972 279.425L202.016 281.869C201.465 282.557 201.157 283.408 201.139 284.289L201.046 288.936C201.04 289.264 200.993 289.59 200.906 289.907L200.05 293.05C199.961 293.375 199.917 293.711 199.917 294.047V296.943C199.917 298.046 198.851 298.837 197.794 298.517C197.321 298.373 196.938 298.024 196.75 297.567L193.667 290.05L193.083 288.747C192.45 287.332 191.058 286.411 189.509 286.381L187.232 286.337C186.31 286.32 185.41 286.621 184.685 287.19L170.928 297.992C170.37 298.429 169.939 299.007 169.678 299.666L167.691 304.688C167.536 305.08 167.319 305.445 167.05 305.77L161.485 312.475C160.99 313.072 160.679 313.8 160.59 314.571L160.111 318.715C160.023 319.476 160.156 320.246 160.493 320.933L162.556 325.146C163.192 326.445 164.481 327.3 165.926 327.38L166.41 327.407C167.482 327.466 168.485 327.956 169.19 328.765L170.219 329.944C171.316 331.202 171.007 333.147 169.573 334.002C168.801 334.463 167.849 334.505 167.039 334.114L164.215 332.752C162.777 332.059 161.065 332.286 159.859 333.331L157.494 335.379C157.316 335.532 157.118 335.66 156.905 335.757C155.089 336.591 153.084 335.041 153.433 333.073L154.29 328.242C154.334 327.995 154.355 327.743 154.352 327.492L154.242 318.875C154.232 318.064 153.975 317.276 153.507 316.614L151.954 314.423C151.121 313.247 149.72 312.61 148.287 312.755L141.631 313.43C141.048 313.489 140.46 313.42 139.907 313.227L136.406 312.003C134.273 311.257 131.946 312.426 131.27 314.582L128.308 324.023C127.964 325.121 127.163 326.017 126.111 326.483L119.501 329.41C119.186 329.549 118.854 329.648 118.514 329.702L110.366 331.008C109.43 331.158 108.472 330.971 107.661 330.48L104.928 328.825C104.433 328.525 104.009 328.122 103.685 327.642L102.289 325.575C101.39 324.245 99.7827 323.58 98.2065 323.889L83.5765 326.75C81.2644 327.235 80.9126 330.389 83.0394 331.418C83.4726 331.627 83.9606 331.708 84.4379 331.648L84.4992 331.64C86.456 331.393 88.0078 333.261 87.4062 335.139L86.8663 336.825C86.676 337.419 86.6339 338.051 86.7436 338.665L87.191 341.17C87.3561 342.094 87.8407 342.93 88.5601 343.533L90.9575 345.541C91.6447 346.117 91.9765 347.013 91.8299 347.897C91.6135 349.202 90.4291 350.121 89.111 350.007L86.4401 349.774C85.9583 349.732 85.4734 349.808 85.0273 349.995L83.4248 350.666C82.0408 351.246 81.7908 353.1 82.9717 354.026C83.1273 354.148 83.2637 354.293 83.3761 354.455L87.6655 360.663C87.8521 360.933 88.0713 361.18 88.3181 361.396L91.1547 363.885C92.7777 365.309 95.2381 365.188 96.7135 363.612L97.3087 362.975C97.4802 362.792 97.634 362.593 97.7682 362.381L100.272 358.425C100.623 357.87 100.832 357.237 100.881 356.582L100.987 355.143C101.108 353.521 102.199 352.133 103.747 351.633L105.121 351.189C105.324 351.123 105.533 351.074 105.744 351.041L109.564 350.456C110.592 350.298 111.518 349.746 112.146 348.917L114.667 345.59L120.483 339.297C120.678 339.086 120.85 338.855 120.995 338.607L123.417 334.482C123.847 333.749 124.716 333.397 125.534 333.623C126.684 333.941 127.249 335.237 126.7 336.295L121.168 346.956C120.91 347.453 120.55 347.891 120.112 348.24L115.286 352.09L107.547 356.7L101.47 361.238C101.281 361.379 101.105 361.537 100.944 361.709L96.9141 366.012C95.3159 367.718 95.5155 370.425 97.3468 371.879L102.321 375.827C103.777 376.982 104.244 378.989 103.45 380.669L101.389 385.028C100.864 386.14 100.879 387.432 101.43 388.532L103.557 392.77L106.709 401.584C107.012 402.43 107.591 403.149 108.352 403.626L125.682 414.482C127.027 415.325 128.744 415.293 130.057 414.399L133.141 412.298C133.79 411.856 134.295 411.232 134.592 410.504L138.566 400.77L143.484 392.19C144.046 391.21 144.997 390.512 146.101 390.271L154.542 388.429C154.995 388.331 155.461 388.311 155.921 388.372L168.886 390.092C169.179 390.13 169.475 390.137 169.769 390.11L177.278 389.436C177.47 389.419 177.663 389.415 177.856 389.426L179.712 389.528C180.984 389.599 182.148 390.271 182.843 391.339L183.574 392.462C184.799 394.342 184.237 396.863 182.329 398.045L178.947 400.14L170.26 405.992C168.641 407.082 168.046 409.181 168.851 410.959L172.074 418.078C172.552 419.134 173.464 419.93 174.575 420.261L179.937 421.86L181.3 422.25C183.44 422.861 184.669 425.101 184.036 427.235L183.709 428.334C183.185 430.099 183.934 431.994 185.523 432.924L188.147 434.461C188.973 434.944 189.944 435.116 190.885 434.944L197.008 433.829C198.281 433.598 199.363 432.765 199.912 431.593L201.05 429.17C201.52 428.168 202.384 427.406 203.436 427.065L208.707 425.353C210.319 424.83 211.426 423.347 211.47 421.653L211.477 421.39C211.508 420.188 210.984 419.024 210.072 418.241C209.328 417.602 208.365 417.25 207.384 417.267L202.156 417.36L199.067 417.003C197.666 416.841 196.464 415.93 195.928 414.626L195.907 414.575C195.252 412.98 195.752 411.144 197.125 410.101C197.644 409.707 198.255 409.453 198.901 409.363L202.92 408.802C203.725 408.69 204.477 408.335 205.076 407.784L207.9 405.186C208.528 404.608 208.823 403.753 208.685 402.91C208.382 401.056 210.127 399.527 211.924 400.073L212.147 400.14L217.632 401.488C218.886 401.796 219.777 402.906 219.808 404.197C219.845 405.804 221.201 407.065 222.807 406.985L229.378 406.661C229.788 406.64 230.192 406.557 230.577 406.414L235.136 404.715C235.929 404.419 236.608 403.88 237.075 403.174L239.164 400.019C240.64 397.788 239.306 394.778 236.662 394.373C236.216 394.305 235.76 394.32 235.319 394.417L226.819 396.29C224.908 396.711 222.973 395.688 222.245 393.871L220.992 390.742C220.677 389.955 220.62 389.087 220.83 388.265L221.233 386.689C222.02 383.608 218.679 381.12 215.953 382.757C214.771 383.467 214.105 384.796 214.245 386.167L214.76 391.24C214.908 392.705 213.987 394.066 212.573 394.473L211.777 394.702C209.533 395.347 207.594 393.015 208.638 390.926C209.221 389.761 208.882 388.345 207.833 387.571L207.147 387.064C206.902 386.882 206.688 386.662 206.513 386.412L205.304 384.676C204.413 383.396 205.433 381.66 206.984 381.816C207.63 381.88 208.261 381.598 208.643 381.073L215.829 371.2C216.773 369.902 216.851 368.166 216.026 366.79L213.461 362.51C212.59 361.058 213.269 359.172 214.866 358.607C215.597 358.349 216.18 357.786 216.464 357.064L217.506 354.423C218.814 351.105 215.455 347.863 212.186 349.289L210.454 350.044C210.006 350.24 209.598 350.516 209.249 350.858L204.415 355.611C203.064 356.94 200.926 357.033 199.464 355.826C197.771 354.427 197.66 351.87 199.227 350.332L209.6 340.145C210.045 339.708 210.381 339.173 210.583 338.582L213.159 331.031C213.616 329.692 214.747 328.694 216.132 328.406L232.414 325.026C232.879 324.929 233.322 324.751 233.724 324.499L240.808 320.063C242.191 319.197 242.909 317.578 242.623 315.971L239.45 298.176C239.305 297.359 239.417 296.517 239.771 295.766L244.729 285.265C245.732 283.14 248.342 282.334 250.369 283.522L259.528 288.892C260.13 289.244 260.813 289.434 261.511 289.441L271.214 289.54C271.853 289.547 272.484 289.4 273.055 289.112L287.286 281.94L298.728 277.174C300.706 276.35 302.982 277.231 303.89 279.172L306.035 283.76C306.565 284.894 307.596 285.714 308.82 285.977L326.079 289.676C328.079 290.105 330.08 288.955 330.718 287.012L331.968 283.201C332.053 282.941 332.112 282.673 332.142 282.401L334.283 263.34C334.401 262.296 334.925 261.339 335.742 260.678L340.738 256.633C342.399 255.288 344.824 255.487 346.244 257.084L354.116 265.939C354.492 266.361 354.953 266.7 355.469 266.931L363.459 270.513C365.806 271.566 368.522 270.161 369.02 267.638L370.286 261.22L374.667 247.842C374.825 247.358 375.074 246.909 375.401 246.519L380.337 240.622C380.944 239.897 381.787 239.411 382.718 239.249L394.433 237.207C396.349 236.874 397.746 235.211 397.746 233.267V230.542C397.746 228.473 396.17 226.746 394.11 226.558L392.142 226.379C390.611 226.239 389.295 225.233 388.758 223.792L386.665 218.179C386.566 217.914 386.496 217.639 386.455 217.359L384.617 204.743C384.551 204.284 384.564 203.818 384.657 203.364L386.248 195.586C386.494 194.389 387.273 193.369 388.364 192.818L399.746 187.07L411.811 182.759C412.795 182.407 413.603 181.684 414.061 180.744L417.065 174.575C417.562 173.554 418.471 172.792 419.564 172.48L426.926 170.38C429.121 169.754 430.348 167.421 429.62 165.258L426.051 154.646C425.674 153.526 425.811 152.298 426.426 151.289L427.966 148.762C428.365 148.108 428.567 147.353 428.549 146.587L428.254 133.833C428.224 132.544 427.575 131.349 426.51 130.622L421.612 127.279C421.121 126.944 420.711 126.504 420.412 125.991L415.137 116.95C414.228 115.392 412.387 114.635 410.644 115.103L396.383 118.935C395.806 119.09 395.202 119.113 394.614 119.004L388.513 117.87C388.263 117.823 388.017 117.753 387.78 117.66L379.617 114.451C378.39 113.968 377.479 112.912 377.183 111.628L375.242 103.222C375.107 102.635 375.106 102.025 375.239 101.437L377.409 91.8836C377.841 89.9816 376.838 88.0453 375.035 87.3008L371.436 85.8144C371.091 85.6722 370.729 85.5788 370.358 85.5369L361.294 84.5116C361.05 84.4839 360.808 84.4338 360.573 84.3617L348.238 80.5854C347.481 80.3537 346.809 79.9025 346.309 79.2891L337.002 67.8805C336.064 66.7301 335.84 65.1546 336.42 63.7882L338.847 58.075C339.239 57.1521 339.27 56.1157 338.934 55.171L335.651 45.9374C334.683 43.2157 331.238 42.3858 329.137 44.3683L325.301 47.9882C324.922 48.346 324.476 48.6261 323.99 48.813L308.344 54.8223C306.848 55.397 305.153 55.0229 304.037 53.8717L300.894 50.6273C299.228 48.9089 299.435 46.1227 301.334 44.668L316.856 32.7829C317.272 32.4641 317.622 32.0665 317.885 31.6128L326.398 16.9243C327.324 15.326 327.035 13.3013 325.699 12.0255L308.507 -4.39L297.542 -17.0933C296.536 -18.2586 294.951 -18.7433 293.466 -18.3399L283.033 -15.5068C281.854 -15.1866 280.886 -14.3454 280.405 -13.2227L277.671 -6.8463C277.27 -5.9108 277.24 -4.85758 277.589 -3.90119L281.898 7.93096C282.309 9.05709 283.202 9.93996 284.333 10.3366L286.516 11.1022C287.184 11.3365 287.903 11.3893 288.598 11.255L296.377 9.75314C297.708 9.49617 299.077 9.94365 299.999 10.9369C301.004 12.0189 301.317 13.5729 300.81 14.9594L299.943 17.3267C299.592 18.2858 298.888 19.0742 297.974 19.5305L290.906 23.06L286.547 25.0894C285.886 25.3973 285.322 25.8801 284.915 26.4855L282.964 29.3903C281.385 31.7409 277.931 31.7521 276.337 29.4118L276.066 29.0136C275.032 27.4955 275.165 25.4683 276.388 24.0981L279.976 20.0791C281.41 18.4726 281.315 16.0191 279.761 14.5284L276.793 11.6813C276.55 11.448 276.337 11.185 276.16 10.8983L270.171 1.21294C269.77 0.564507 269.192 0.0441666 268.505 -0.286787L253.432 -7.54971C252.793 -7.85769 252.084 -7.99014 251.377 -7.93347L237.142 -6.79287C236.952 -6.77765 236.761 -6.77602 236.571 -6.78803L216.649 -8.0446C215.674 -8.10607 214.711 -7.80893 213.94 -7.20918L205.155 -0.371983C204.353 0.252459 203.343 0.547939 202.331 0.454399L191.676 -0.530001L179.512 -0.850462C176.458 -0.930897 174.445 2.30228 175.865 5.00687L176.488 6.19486C176.712 6.62144 177.011 7.00408 177.371 7.32434L184.816 13.95L193.148 22.8841C193.491 23.2514 193.899 23.5509 194.353 23.767L196.618 24.8467C198.266 25.6315 199.173 27.4315 198.824 29.2224L195.301 47.3123C194.995 48.8823 195.654 50.4835 196.976 51.3836L201.565 54.5079C202.909 55.4224 204.672 55.4332 206.026 54.5354L210.298 51.7037C212.045 50.5459 214.389 50.9324 215.672 52.5897L219.181 57.1247C219.318 57.3012 219.469 57.4661 219.633 57.6174L228.996 66.25L230.395 67.2516C231.669 68.1643 232.293 69.7369 231.99 71.2748L231.237 75.11L229.796 86.3793C229.611 87.8235 230.226 89.2539 231.4 90.114L239.317 95.9101C239.589 96.1092 239.835 96.3419 240.048 96.6027L242.095 99.1007C243.745 101.116 243.061 104.146 240.704 105.255L239.227 105.95L234.068 107.786C232.708 108.27 231.192 107.984 230.103 107.037L228.105 105.301C227.472 104.75 227.045 104 226.895 103.174L226.399 100.435C226.111 98.84 224.198 98.1624 222.97 99.2197C221.611 100.389 219.507 99.4236 219.507 97.631V95.58L218.881 89.5379C218.8 88.7566 218.951 87.9688 219.314 87.2727L220.125 85.7218C221.7 82.7087 218.718 79.3453 215.538 80.5483C214.797 80.8287 214.165 81.3397 213.736 82.0061L207.659 91.4484C207.491 91.7086 207.294 91.9484 207.071 92.1632L205.01 94.1502C204.228 94.9041 203.786 95.9436 203.786 97.0299V98.9726C203.786 99.4536 203.873 99.9306 204.043 100.381L204.474 101.529C205.39 103.963 203.776 106.61 201.192 106.911L198.786 107.19L192.797 107.44L185.344 108.258C184.283 108.375 183.313 108.91 182.649 109.745L181.704 110.934C180.841 112.019 180.602 113.474 181.072 114.778L181.12 114.913C181.903 117.088 184.361 118.148 186.481 117.226L188.722 116.25C189.733 115.81 190.881 115.806 191.895 116.241L194.696 117.442C196.433 118.187 197.412 120.047 197.042 121.9L196.926 122.487C196.616 124.039 195.42 125.263 193.876 125.608L187.608 127.01C187.164 127.109 186.705 127.132 186.253 127.077L177.11 125.967C175.824 125.811 175.029 124.487 175.494 123.278C176.144 121.592 174.389 119.983 172.765 120.777L165.218 124.47C162.838 125.635 162.228 128.751 163.993 130.727L167.194 134.311C167.616 134.783 168.145 135.149 168.736 135.377L177.583 138.794C178.384 139.103 179.064 139.662 179.523 140.387L182.079 144.428C183.248 146.276 182.716 148.72 180.885 149.915L178.266 151.626C176.529 152.76 175.948 155.034 176.927 156.862L178.825 160.409C178.985 160.708 179.183 160.986 179.414 161.236L190.552 173.291C191.62 174.447 193.266 174.869 194.759 174.37L204.493 171.114C206.267 170.521 208.215 171.236 209.183 172.836L211.77 177.107C212.252 177.904 212.442 178.844 212.305 179.766L211.534 184.961C211.37 186.069 210.748 187.058 209.821 187.686L205.215 190.804C204.602 191.22 203.884 191.457 203.144 191.488L184.289 192.294C183.89 192.311 183.49 192.268 183.103 192.167L166.277 187.751C165.82 187.631 165.388 187.432 165.001 187.161L155.039 180.199C153.657 179.234 153.029 177.505 153.469 175.878L156.25 165.577C156.97 162.91 154.835 160.334 152.08 160.546L142.709 161.271C139.84 161.492 138.137 164.581 139.48 167.126L139.64 167.428C139.959 168.033 140.428 168.545 141.001 168.917L146.001 172.158C147.858 173.362 148.385 175.846 147.175 177.7L146.18 179.227C145.81 179.793 145.303 180.256 144.706 180.574L138.082 184.094C136.671 184.844 135.841 186.362 135.973 187.955L136.434 193.565C136.482 194.141 136.654 194.701 136.938 195.204L139.915 200.474C140.135 200.862 140.417 201.211 140.751 201.505L144.492 204.807C145.217 205.447 145.686 206.328 145.811 207.287L145.937 208.253C146.122 209.668 145.539 211.075 144.407 211.945L139.408 215.782C137.84 216.986 137.453 219.189 138.517 220.856L139.187 221.907C139.862 222.964 141.229 223.336 142.347 222.768L142.72 222.578C144.459 221.693 146.423 223.289 145.913 225.172C145.727 225.862 145.879 226.601 146.324 227.16L148.987 230.51L154.865 236.571C155.638 237.368 156.706 237.808 157.816 237.786L160.638 237.73C163.102 237.682 164.765 235.194 163.868 232.898C163.767 232.64 163.637 232.395 163.479 232.167L160.118 227.325C159.699 226.72 159.454 226.011 159.411 225.276L158.977 217.78L157.41 209.245C157.223 208.23 157.716 207.211 158.628 206.728C159.92 206.044 161.517 206.683 161.979 208.07L167.337 224.15L170.827 233.51L172.209 239.169C172.795 241.565 171.094 243.914 168.635 244.106L163.717 244.49L152.08 244.704C150.841 244.727 149.684 245.322 148.944 246.315L138.992 259.688C138.672 260.118 138.268 260.48 137.805 260.751L132.557 263.826C130.929 264.779 128.857 264.466 127.584 263.074L121.367 256.279C120.746 255.601 119.91 255.157 118.999 255.022L110.844 253.819C109.423 253.609 108.224 252.655 107.702 251.317L106.547 248.36L103.104 233.764C102.701 232.056 101.231 230.81 99.4798 230.692L93.5866 230.295C93.2413 230.272 92.8945 230.293 92.5548 230.359L82.5687 232.3C80.806 232.643 79.0309 231.769 78.2279 230.163L76.8588 227.425C76.6003 226.908 76.457 226.341 76.4385 225.763L76.1074 215.382C76.1001 215.154 76.1123 214.927 76.1438 214.701L77.5965 204.3L77.7627 198.41C77.8125 196.646 76.7014 195.059 75.0279 194.502L69.2265 192.57L56.4379 188.193C55.5095 187.876 54.7303 187.228 54.2485 186.373L51.4324 181.377C50.3627 179.479 47.971 178.786 46.0525 179.819L40.5105 182.801C39.8668 183.147 39.3304 183.663 38.9594 184.293L35.9517 189.399C34.6078 191.68 31.4581 192.05 29.6225 190.141L24.9219 185.255C24.1239 184.426 23.722 183.292 23.8188 182.146L24.5262 173.762C24.616 172.699 25.1273 171.715 25.9464 171.03L34.1612 164.162C35.9182 162.693 34.5837 159.847 32.3307 160.259C31.2298 160.46 30.1504 159.813 29.8079 158.748L26.7965 149.38L20.6611 131.59C20.5059 131.14 20.2718 130.722 19.9696 130.354L12.1047 120.787C11.5114 120.065 11.1894 119.158 11.1947 118.224L11.3007 99.6065C11.3045 98.9331 11.4783 98.2715 11.8059 97.6832L15.669 90.746C16.6673 88.9534 16.1473 86.6962 14.4654 85.521L12.6293 84.2381C11.71 83.5958 11.1025 82.5969 10.9551 81.4851L9.05841 67.1842C8.83553 65.5036 7.57742 64.1461 5.9186 63.7962L-10.5772 60.3172C-11.5166 60.119 -12.3534 59.5896 -12.9348 58.8256L-21.7531 47.2378C-22.3997 46.3881 -23.3592 45.8322 -24.4179 45.6938L-32.0551 44.6959C-33.4173 44.518 -34.7754 45.0514 -35.6523 46.1088L-40.3789 51.8081C-41.0837 52.658 -42.1085 53.1787 -43.2106 53.247L-49.5052 53.6368C-51.7472 53.7757 -53.4353 55.733 -53.2433 57.9711L-52.9136 61.8134C-52.8673 62.3522 -52.7123 62.876 -52.4579 63.3532L-49.7274 68.4751C-48.6912 70.4187 -49.4212 72.8343 -51.3605 73.8786L-55.7722 76.2545C-56.9089 76.8667 -57.6803 77.99 -57.8435 79.2708L-58.7135 86.1L-60.2035 95.96L-60.2994 101.39Z" fill="#A8AAAD"/>
</g>
<defs>
<clipPath id="clip0_2644_2856">
<rect width="491.29" height="454.71" fill="white" transform="translate(-60.3335 -19)"/>
</clipPath>
</defs>
</svg>
