<svg width="443" height="675" viewBox="0 0 443 675" fill="none" xmlns="http://www.w3.org/2000/svg">
<path fill-rule="evenodd" clip-rule="evenodd" d="M4.19759 211.643C0.340521 213.365 -0.590632 218.419 2.3998 221.402C3.86714 222.866 5.98422 223.472 8.00378 223.006L19.3953 220.38C21.1978 219.964 23.0559 219.843 24.8971 220.022L33.5843 220.865C35.1923 221.021 36.8143 220.949 38.4021 220.651L43.7587 219.644C44.2845 219.545 44.8007 219.401 45.3018 219.214L49.191 217.759C52.4021 216.558 55.9369 218.456 56.7101 221.796C56.8073 222.216 56.8563 222.65 56.8563 223.081C56.8563 227.352 61.0121 230.455 65.0809 229.157L67.7045 228.32C68.8217 227.963 70.0017 227.847 71.1671 227.978L76.3711 228.566C79.2855 228.895 81.7438 230.886 82.6712 233.669C83.4004 235.856 83.0874 238.257 81.8217 240.185L81.4414 240.764C79.4839 243.745 79.4804 247.603 81.4326 250.588L92.7712 267.923C94.9715 271.287 94.9819 275.631 92.7977 279.006C90.6319 282.352 90.6224 286.655 92.7735 290.011L94.6118 292.878C98.9451 299.638 97.3777 308.59 91.0055 313.476L89.4098 314.699C88.5714 315.342 87.6753 315.906 86.733 316.383L76.5714 321.534C73.9463 322.864 71.7084 324.849 70.0737 327.297L68.6815 329.381C66.3245 332.91 65.5195 337.251 66.4547 341.391C67.7698 347.211 72.3137 351.758 78.1337 353.077L87.016 355.089C91.96 356.209 96.0869 359.594 98.1532 364.223L100.287 369.004C101.694 372.156 104.885 374.126 108.333 373.972C111.814 373.817 114.837 371.529 115.932 368.222L117.26 364.215C118.22 361.318 120.068 358.796 122.542 357.008L126.377 354.237C127.908 353.131 129.612 352.286 131.419 351.735L135.81 350.399C139.196 349.368 142.875 350.205 145.482 352.6L145.566 352.678C145.873 352.96 146.159 353.264 146.421 353.589C149.765 357.727 156.055 357.783 159.472 353.704L161.381 351.426C163.215 349.237 163.663 346.203 162.539 343.577L161.631 341.455C160.063 337.79 162.511 333.659 166.478 333.274L168.689 333.06C171.433 332.794 173.681 335.205 173.224 337.924C172.839 340.214 174.391 342.381 176.684 342.753L181.331 343.508C184.656 344.048 188.001 342.658 189.963 339.92L190.273 339.487C192.597 336.245 196.664 334.75 200.535 335.715L203.738 336.514C208.866 337.793 212.697 342.068 213.408 347.306C213.809 350.265 213.173 353.271 211.608 355.813L205.575 365.608C204.991 366.558 204.315 367.448 203.557 368.266L196.101 376.315C194.5 378.044 192.559 379.424 190.399 380.368L180.905 384.52C177.83 385.864 174.345 385.925 171.225 384.689C165.618 382.468 159.222 384.536 155.978 389.62L155.653 390.129C154.287 392.269 153.561 394.755 153.561 397.294V398.831C153.561 400.555 153.301 402.27 152.789 403.917L150.853 410.138C150.336 411.802 149.567 413.377 148.574 414.809L145.813 418.792C142.096 423.843 135.032 425.015 129.883 421.435L128.141 420.223C125.573 418.437 122.473 417.581 119.352 417.793L109.474 418.468C103.938 418.845 98.5632 416.518 95.0513 412.222L91.4838 407.859C90.3196 406.435 89.5141 404.753 89.1349 402.953C88.6337 400.574 87.3908 398.415 85.5852 396.787L81.3175 392.938C80.5021 392.203 79.8547 391.3 79.4192 390.292L78.5609 388.306C77.872 386.711 76.3013 385.679 74.5643 385.679H74.4123C72.5597 385.679 70.9312 386.906 70.4209 388.687C69.739 391.067 67.1395 392.325 64.8501 391.384L59.8568 389.33C57.1329 388.21 54.0327 388.496 51.56 390.096L47.5805 392.672C46.3435 393.472 45.5474 394.801 45.425 396.269C45.2291 398.62 43.3394 400.473 40.985 400.621L39.8066 400.696C36.0161 400.935 33.3606 404.539 34.2546 408.23C34.8259 410.589 36.7397 412.386 39.13 412.808L40.5524 413.059C42.9207 413.477 44.9788 414.93 46.1651 417.022C48.2647 420.724 52.8804 422.157 56.7076 420.295L60.3238 418.535L62.7882 417.394C65.617 416.084 68.885 416.117 71.6865 417.484L76.0346 419.606C77.6418 420.39 79.5745 420.008 80.7625 418.671C82.0694 417.201 84.2533 416.904 85.9056 417.971L88.9694 419.95C90.4921 420.934 91.648 422.392 92.2579 424.099L92.3635 424.395C93.8997 428.695 98.3665 431.208 102.839 430.289L104.433 429.962C106.002 429.639 107.481 428.979 108.77 428.028L108.947 427.897C111.515 426 114.731 425.201 117.888 425.676L122.158 426.317C123.132 426.464 124.059 426.832 124.868 427.394C127.944 429.53 128.549 433.835 126.179 436.736L120.476 443.72C120.087 444.195 119.661 444.638 119.2 445.043C115.755 448.073 114.509 452.9 116.058 457.218L118.565 464.212L122.716 476.015C123.125 477.179 123.015 478.463 122.412 479.541C120.696 482.611 116.221 482.436 114.75 479.242L112.912 475.252C111.551 472.295 108.221 470.791 105.102 471.724L100.483 473.105C96.7335 474.226 93.7587 477.093 92.4995 480.798L92.2613 481.499C91.3022 484.322 89.4378 486.748 86.9577 488.401L76.9286 495.087C70.4501 499.406 67.701 507.552 70.2379 514.914L75.4592 530.065C76.2125 532.251 77.5726 534.177 79.3804 535.619L82.407 538.032C83.7962 539.14 85.657 539.456 87.3344 538.87C88.9786 538.296 90.2229 536.932 90.6446 535.242L90.7737 534.725C91.8079 530.58 96.6458 528.723 100.188 531.111L102.957 532.977C103.906 533.617 104.975 534.059 106.099 534.275L107.36 534.518C115.01 535.991 120.204 543.15 119.229 550.88L118.03 560.382L117.375 563.763C116.927 566.074 117.295 568.469 118.418 570.539L119.316 572.196C120.784 574.903 123.771 576.422 126.824 576.015L127.571 575.915C132.161 575.302 134.842 570.414 132.891 566.214C132.262 564.86 132.091 563.338 132.405 561.878L133.527 556.657L136.659 545.959C137.569 542.854 137.385 539.532 136.139 536.546L134.434 532.461C133.382 529.942 130.979 528.249 128.253 528.107L128.018 528.095C127.583 528.072 127.146 528.104 126.719 528.19C124.066 528.723 121.446 527.142 120.68 524.547L120.266 523.146C119.294 519.851 116.023 517.793 112.632 518.343L110.589 518.675C109.328 518.88 108.038 518.819 106.802 518.496L103.201 517.555C102.759 517.439 102.338 517.253 101.955 517.004L100.217 515.871C98.4303 514.707 98.4521 512.082 100.258 510.948C100.518 510.785 100.75 510.582 100.946 510.347L101.304 509.919C103.265 507.571 106.608 506.927 109.302 508.377L114.601 511.228C115.273 511.59 115.915 512.007 116.519 512.475L123.895 518.193L134.896 527.804C138.467 530.924 143.72 531.167 147.565 528.39L150.816 526.041C152.453 524.859 153.143 522.757 152.526 520.834C152.003 519.207 150.632 517.996 148.952 517.678L140.66 516.11C138.592 515.719 136.617 514.939 134.839 513.811L131.662 511.794C130.271 510.911 129.252 509.549 128.799 507.965C127.553 503.613 130.874 499.298 135.399 499.387L136.807 499.414C139.122 499.46 141.296 500.535 142.736 502.348L143.928 503.848C146.283 506.81 149.911 508.468 153.691 508.31L154.18 508.29C158.161 508.124 161.847 506.1 164.136 502.838C166.544 499.404 170.485 497.346 174.68 497.346H179.908C181.752 497.346 183.585 497.644 185.334 498.228L192.303 500.556L202.432 505.189C204.214 506.004 205.843 507.119 207.247 508.486L210.275 511.431C213 514.08 216.528 515.748 220.304 516.172L230.022 517.262C233.745 517.68 237.147 519.569 239.469 522.509L240.16 523.383C240.658 524.015 241.049 524.724 241.317 525.482C242.226 528.054 244.49 529.907 247.19 530.29L248.632 530.494C250.904 530.817 253.216 530.325 255.161 529.106L260.529 525.74C261.172 525.337 261.724 524.804 262.15 524.177C264.294 521.019 268.93 520.969 271.142 524.08L273.147 526.899C273.572 527.498 274.098 528.018 274.702 528.437C277.588 530.438 278.299 534.403 276.287 537.282L275.083 539.005C274.581 539.724 273.969 540.36 273.271 540.891L262.981 548.707C260.952 550.249 259.292 552.225 258.123 554.49L256.009 558.586C255.393 559.779 254.64 560.895 253.763 561.912L248.886 567.571C245.468 571.538 240.14 573.295 235.031 572.141C232.766 571.63 230.66 570.569 228.901 569.052L220.086 561.452L218.545 560.187C216.663 558.642 214.154 558.094 211.799 558.712L206.086 560.213C203.389 560.921 202.337 564.186 204.112 566.336C204.907 567.299 205.181 568.59 204.845 569.793L203.815 573.479C202.791 577.147 199.965 580.037 196.321 581.144L191.176 582.707C188.869 583.407 187.354 585.613 187.528 588.018C187.776 591.438 191.228 593.67 194.449 592.493L204.387 588.858C206.101 588.231 207.666 587.254 208.982 585.989L210.981 584.067C213.092 582.038 215.687 580.584 218.52 579.844L219.327 579.633C223.895 578.439 228.754 579.185 232.755 581.694L233.721 582.3L237.131 584.696C238.38 585.574 239.87 586.045 241.397 586.045H246.641C248.984 586.045 250.667 588.3 250.001 590.547C249.531 592.129 248.021 593.169 246.375 593.044L239.711 592.536C238.916 592.476 238.129 592.335 237.363 592.115L232.686 590.777C229.186 589.775 225.458 589.914 222.043 591.175L217.154 592.98L202.984 597.796L196.631 599.412C192.551 600.45 190.001 604.503 190.831 608.63L191.011 609.528C191.477 611.845 193.185 613.714 195.45 614.387L196.662 614.748C199.4 615.561 200.946 618.454 200.102 621.182C199.567 622.913 199.984 624.798 201.199 626.141L202.945 628.07C205.163 630.521 208.962 630.67 211.366 628.401L218.224 621.926C219.344 620.869 218.669 618.986 217.134 618.88C215.646 618.777 214.947 616.991 215.971 615.906L216.667 615.168C217.287 614.512 218.238 614.29 219.084 614.604L223.101 616.099C224.274 616.535 225.339 617.219 226.224 618.104L226.351 618.231C228.459 620.339 231.431 621.34 234.385 620.936L239.359 620.257C240.746 620.067 242.105 619.708 243.405 619.188L253.477 615.155L257.331 613.11C260.062 611.661 262.349 609.5 263.951 606.856L266.041 603.404L267.932 600.798C270.436 597.347 275.775 598.08 277.257 602.077L280.102 607.556C280.489 608.301 280.457 609.193 280.02 609.908C279.045 611.503 280.192 613.55 282.062 613.55H282.117C282.441 613.55 282.762 613.485 283.061 613.359L288.859 610.907C289.311 610.716 289.796 610.618 290.287 610.618C292.361 610.618 294.022 612.337 293.951 614.41L293.824 618.088C293.824 619.863 294.93 621.449 296.596 622.063L307.445 626.063C309.904 626.97 312.123 628.429 313.929 630.328L319.369 636.048C320.847 637.602 322.613 638.853 324.568 639.733L335.529 644.665C336.74 645.209 338.168 644.782 338.879 643.661C339.276 643.036 339.914 642.604 340.642 642.468L343.724 641.89C345.553 641.547 347.011 643.403 346.245 645.098C345.878 645.91 346.013 646.86 346.59 647.537L349.529 650.99C349.963 651.5 350.342 652.055 350.659 652.645L352.478 656.031C353.617 658.152 355.191 660.009 357.096 661.481L364.599 667.275C365.502 667.973 366.473 668.578 367.497 669.083L375.704 673.127C379.615 675.054 384.319 674.277 387.402 671.194C388.76 669.836 390.474 668.89 392.347 668.465L393.286 668.252C396.821 667.449 399.886 665.26 401.792 662.175L418.582 634.997C420.333 632.162 422.874 629.9 425.892 628.488L437.277 623.161L458.448 611.159C460.006 610.276 461.416 609.153 462.627 607.833L475.353 593.948C477.374 591.743 479.937 590.106 482.786 589.2L495.261 585.232L496.149 585.065C501.431 584.07 505.346 579.591 505.626 574.223C505.824 570.419 507.87 566.952 511.104 564.939L525.719 555.844L529.379 553.64C536.286 549.48 545.16 550.703 550.685 556.575L555.639 561.841C559.549 565.997 565.813 566.902 570.74 564.022L572.734 562.856C575.077 561.486 576.565 559.024 576.689 556.313L576.784 554.209C576.921 551.219 579.337 548.838 582.329 548.746C584.618 548.676 586.644 547.249 587.482 545.118L589.215 540.712C591.234 535.576 588.248 529.841 582.883 528.549L581.297 528.168C579.612 527.762 578.203 526.612 577.469 525.042L577.143 524.345C575.921 521.735 572.746 520.703 570.223 522.097C568.374 523.118 566.081 522.862 564.503 521.458L556.244 514.11C555.489 513.438 554.813 512.683 554.229 511.858L550.143 506.086C549.595 505.313 549.554 504.291 550.036 503.476C550.517 502.663 551.431 502.208 552.369 502.313L557.991 502.943C561.026 503.284 564.027 502.067 565.969 499.711C569.126 495.879 568.6 490.217 564.789 487.034L563.312 485.8C562.303 484.956 561.15 484.301 559.909 483.866L553.009 481.446C551.744 481.003 550.432 480.709 549.098 480.572L528.723 478.47C528.149 478.411 527.584 478.289 527.037 478.106L525.464 477.58C520.45 475.904 515.493 480.262 516.514 485.449C516.6 485.888 516.644 486.333 516.644 486.78V499.991C516.644 501.77 516.367 503.538 515.823 505.231L514.464 509.456C512.806 514.616 508.802 518.686 503.671 520.43L501.106 521.301C499.361 521.894 497.724 522.764 496.256 523.879L487.71 530.37C486.699 531.139 485.585 531.762 484.401 532.223C476.895 535.146 468.501 530.98 466.291 523.233L465.396 520.094C464.493 516.929 462.672 514.103 460.163 511.972L451.217 504.376C449.09 502.57 447.437 500.273 446.401 497.683L443.574 490.614C442.946 489.046 442.555 487.393 442.411 485.71L441.812 478.684C441.643 476.713 441.818 474.729 442.327 472.818L444.953 462.968C445.716 460.107 447.207 457.493 449.281 455.381L460.751 443.701C461.139 443.306 461.486 442.872 461.785 442.405L463.15 440.274C465.508 436.594 463.476 431.69 459.206 430.756C457.813 430.452 456.565 429.682 455.668 428.573L450.631 422.348C448.889 420.195 447.695 417.651 447.152 414.935L446.26 410.478C445.98 409.077 445.876 407.645 445.952 406.218L446.271 400.158C446.338 398.901 445.996 397.656 445.298 396.609C444.606 395.571 444.264 394.339 444.323 393.094L445.489 368.137C445.55 366.822 445.763 365.519 446.123 364.253L446.363 363.41C447.874 358.096 446.728 352.378 443.285 348.057L439.09 342.792C437.89 341.285 436.443 339.992 434.812 338.966L428.237 334.832C426.626 333.819 424.858 333.082 423.004 332.651L394.81 326.089L365.981 320.279C363.157 319.709 360.522 318.437 358.32 316.579L353.205 312.262C352.093 311.324 350.866 310.531 349.554 309.903L338.187 304.463C334.234 302.571 329.707 302.267 325.536 303.613L324.891 303.821C318.228 305.972 310.927 303.849 306.455 298.461L293.932 283.372C291.609 280.573 290.238 277.106 290.017 273.475L289.247 260.81C289.103 258.445 287.525 256.41 285.27 255.681C282.635 254.83 279.766 255.977 278.444 258.41L274.818 265.08C273.319 267.838 270.627 269.748 267.528 270.251C263.544 270.897 259.556 269.122 257.37 265.729L257.071 265.264C254.728 261.626 254.737 256.952 257.095 253.323L258.269 251.516C261.234 246.953 266.528 244.465 271.932 245.092L277.325 245.719C280.092 246.04 282.739 247.031 285.036 248.607L300.563 259.258C303.142 261.026 306.156 262.055 309.278 262.233L332.588 263.557C338.544 263.896 344.247 261.11 347.641 256.204L348.136 255.488C350.49 252.085 351.533 247.945 351.071 243.833L350.075 234.977C349.979 234.124 350.227 233.267 350.765 232.596C352.009 231.046 354.344 230.977 355.678 232.45L362.8 240.321C364.74 242.465 365.323 245.511 364.312 248.219C362.845 252.15 364.778 256.534 368.669 258.102L371.961 259.429C376.505 261.261 381.711 259.979 384.886 256.247L388.803 251.64C391.631 248.316 393.082 244.038 392.861 239.68L392.473 232.025C392.114 224.953 387.439 218.83 380.711 216.622L372.378 213.887L359.234 211.547C356.961 211.142 354.631 211.201 352.382 211.72L348.742 212.56C345.038 213.415 341.148 212.876 337.817 211.045L329.91 206.702C328.173 205.748 327.332 203.715 327.888 201.812C328.643 199.227 326.819 196.604 324.132 196.412L318.765 196.028C316.02 195.831 313.348 196.965 311.582 199.076L303.662 208.541C302.634 209.77 301.824 211.167 301.269 212.67C299.085 218.584 293.215 222.305 286.935 221.758L285.376 221.623C283.364 221.447 281.402 220.894 279.595 219.99L272.78 216.583C270.971 215.678 269.335 214.459 267.951 212.983L258.842 203.275C258.301 202.698 257.927 201.984 257.761 201.21L257.297 199.042C256.727 196.383 259.466 194.232 261.914 195.417C264.848 196.837 267.824 193.558 266.127 190.775L263.614 186.655C263.281 186.108 263.063 185.499 262.974 184.865L262.938 184.61C262.372 180.576 266.043 177.237 270.005 178.182C271.864 178.626 273.384 179.959 274.066 181.745L278.4 193.101C279.016 194.716 280.456 195.872 282.165 196.125C283.775 196.363 285.396 195.765 286.466 194.539L289.659 190.879C292.273 187.882 296.173 186.33 300.131 186.709L302.059 186.894C303.801 187.061 305.423 187.857 306.621 189.133C308.148 190.76 310.344 191.586 312.565 191.37L314.711 191.162C319.632 190.684 323.707 187.137 324.859 182.329L327.621 170.798C328.403 167.533 328.208 164.109 327.06 160.954L324.464 153.82C323.806 152.011 322.847 150.326 321.628 148.835L313.859 139.336L307.346 131.359C306.183 129.934 304.692 128.812 303.002 128.087C299.886 126.752 296.337 126.871 293.318 128.413L287.92 131.17C285.995 132.153 284.273 133.492 282.845 135.115L275.374 143.617L262.326 157.168C261.424 158.105 260.418 158.936 259.327 159.646L257.175 161.046C251.926 164.46 245.232 164.737 239.719 161.768L220.878 151.622L210.739 145.638C209.668 145.006 208.668 144.259 207.759 143.41L206.54 142.273C203.071 139.034 201.101 134.501 201.101 129.754V127.7C201.101 124.317 202.102 121.01 203.98 118.196L208.78 111.001C209.72 109.593 210.863 108.332 212.173 107.259L231.761 91.2112C233.751 89.5809 234.125 86.6819 232.614 84.5998C230.741 82.0186 231.82 78.3633 234.796 77.2144L238.976 75.6001C240.083 75.1726 241.269 74.9873 242.453 75.0567L252.674 75.6551C253.916 75.7278 255.161 75.6131 256.369 75.3149L258.584 74.7677C266.006 72.9346 269.248 64.1991 264.818 57.9684C263.525 56.1497 261.702 54.7746 259.598 54.0309L240.913 47.4254L230.139 43.2073C228.261 42.472 226.527 41.4106 225.018 40.0721L219.843 35.4812C217.056 33.0091 215.152 29.6958 214.418 26.0436L213.817 23.0543C213.027 19.1213 210.882 15.5906 207.754 13.078L204.269 10.2775C200.872 7.5485 196.563 6.21692 192.219 6.55401L189.072 6.79818C184.473 7.15509 180.212 9.35288 177.255 12.8938L174.917 15.693C174.209 16.5403 173.421 17.3172 172.564 18.0128L157.205 30.4762C155.16 32.1355 152.76 33.3009 150.192 33.8817L147.543 34.4806C141.598 35.8247 135.474 33.115 132.471 27.8112C131.229 25.6179 129.411 23.806 127.214 22.5717L122 19.6433C120.433 18.7635 118.738 18.1357 116.977 17.783L88.3694 12.0545C86.2296 11.626 84.4969 10.0589 83.8564 7.97266L82.4292 3.32433C81.385 -0.0765815 76.7366 -0.487584 75.1119 2.67735C74.5469 3.77797 74.528 5.07924 75.0609 6.19576L77.9475 12.2438C80.3811 17.3429 77.3436 23.3668 71.7968 24.4418C68.3963 25.1008 65.7186 27.7278 64.9946 31.115L64.7185 32.4067C64.1252 35.1827 64.6665 38.0806 66.2219 40.4553L67.081 41.7668C70.4564 46.9198 77.5732 47.971 82.2941 44.0139C85.7503 41.117 90.6903 40.809 94.4796 43.2541L97.614 45.2767C99.2657 46.3425 100.697 47.7156 101.831 49.3215L104.826 53.5643C105.957 55.1676 106.805 56.9534 107.332 58.8439L109.917 68.1238C110.672 70.8342 110.629 73.7049 109.794 76.3915L108.418 80.8141C107.033 85.2661 102.572 88.01 97.9742 87.2375C94.7791 86.3229 91.4064 87.9512 90.1354 91.022L87.1091 98.3336C86.705 99.3099 86.2016 100.242 85.6067 101.115L80.6396 108.406C79.2279 110.479 77.3782 112.216 75.2214 113.495L62.7211 120.907C56.1864 124.633 55.0824 133.601 60.5181 138.801L62.4643 140.663L66.1037 144.502C67.0558 145.506 68.1261 146.391 69.2913 147.138L91.3174 161.254L102.83 167.52C105.264 168.845 107.984 169.56 110.755 169.602L118.705 169.723C121.704 169.769 124.614 168.713 126.886 166.755C128.435 165.421 130.293 164.495 132.291 164.063L139.906 162.416C143.399 161.66 146.569 159.83 148.97 157.183L154.855 150.693C155.416 150.074 156.068 149.544 156.787 149.119C161.491 146.341 167.551 148.775 169.026 154.035L169.85 156.973L170.871 159.768C172.422 164.014 169.74 168.627 165.282 169.38C162.813 169.797 160.735 171.463 159.79 173.782L156.614 181.576C155.939 183.234 154.115 184.109 152.399 183.597C149.243 182.657 146.668 186.219 148.55 188.92L150.631 191.906C151.147 192.646 151.441 193.518 151.48 194.42L151.498 194.861C151.703 199.658 146.658 202.894 142.382 200.708L140.942 199.972C135.714 197.298 129.653 201.661 130.529 207.467L130.774 209.091C130.825 209.434 130.851 209.781 130.851 210.128C130.851 213.965 127.74 217.077 123.902 217.077H122.477C120.31 217.077 118.229 216.237 116.668 214.735L114.222 212.379C112.556 210.776 111.638 208.548 111.689 206.237L111.726 204.596C111.813 200.669 108.542 197.497 104.62 197.705C100.545 197.921 97.5915 201.675 98.3416 205.687L98.6129 207.138C99.0616 209.537 98.3964 212.01 96.8048 213.861L93.4744 217.734C91.8966 219.568 89.749 220.821 87.3753 221.29C84.593 221.841 81.7059 221.276 79.3361 219.718L75.7334 217.349C72.9416 215.513 71.212 212.439 71.0928 209.099L70.9754 205.812C70.8474 202.228 67.9587 199.358 64.3733 199.254C62.7933 199.208 61.2466 199.713 59.9987 200.683L56.4159 203.469C55.2872 204.346 54.2751 205.364 53.4043 206.498C50.3331 210.497 45.6276 212.905 40.5876 213.056L24.8889 213.526C23.0529 213.581 21.2201 213.34 19.4606 212.813L11.4392 210.409C9.71114 209.891 7.85458 210.011 6.20721 210.746L4.19759 211.643Z" fill="#CCDCBF"/>
</svg>
