<svg width="1440" height="783" viewBox="0 0 1440 783" fill="none" xmlns="http://www.w3.org/2000/svg">
<path opacity="0.3" d="M1687.65 306.573H1683.24L1674.41 314.906V348.24L1665.58 356.574V406.575L1656.75 414.909H1647.93L1639.1 417.687H1630.27L1624.38 423.243L1621.44 425.326L1612.61 428.801H1603.78L1594.95 427.412L1586.13 423.246V414.909L1577.3 406.575L1568.47 401.02L1564.05 398.242L1559.64 396.577H1550.81L1541.98 395.464H1524.32L1515.49 389.908L1506.66 381.574L1497.83 373.241V356.574L1506.66 348.24L1497.83 339.907L1489 335.737L1480.17 333.237H1471.34L1462.51 331.572H1453.68L1444.85 339.906V348.239L1441.91 356.573L1440.44 364.907V373.241L1436.03 381.574V389.908L1433.08 398.242L1430.14 406.575L1427.2 410.742L1422.78 414.909L1418.37 423.243V448.243L1409.54 456.576V464.91L1400.71 473.244L1397.77 481.577L1391.88 487.132L1389.68 489.91L1383.05 498.244V506.578L1380.11 514.911L1374.23 523.245L1368.34 531.578V556.578L1369.81 564.912L1365.39 573.246L1356.56 577.412H1330.08L1321.25 576.023L1312.42 573.246L1303.59 564.912V531.578L1312.42 523.245L1303.59 514.911L1294.76 506.578L1285.93 502.41L1277.1 499.91L1272.69 498.245L1268.27 494.079L1263.86 489.912L1259.44 481.578L1253.56 473.245L1250.61 469.078L1247.67 464.912V448.243L1250.61 439.909L1259.44 431.576L1268.27 423.243L1272.69 414.909L1277.1 406.575L1285.93 398.242L1294.76 394.075L1303.59 392.686H1312.42L1321.25 394.075L1330.08 395.464L1338.91 398.242H1347.73L1356.56 395.464L1365.39 392.686L1374.22 391.991L1383.05 389.908H1391.88L1396.29 381.574L1391.88 373.241L1383.05 369.074L1380.11 364.908L1378.64 356.574L1377.17 348.24L1376.43 339.907L1377.17 331.573L1374.23 323.239L1383.05 314.906H1391.88L1400.71 316.571L1409.54 317.683H1427.2L1431.61 314.905L1436.03 310.738L1440.44 306.571L1444.86 298.237V289.907L1446.33 281.573L1444.86 273.24V264.906L1438.97 256.572L1436.03 254.489H1427.19L1418.36 254.906L1409.54 256.571H1391.88L1383.05 252.404L1374.22 248.237H1365.39L1356.56 239.903L1347.73 237.127L1338.9 231.571L1330.08 223.236L1321.25 214.9V189.901L1312.42 181.568L1303.59 173.234L1294.76 164.9L1288.87 156.566L1285.93 152.399L1284.16 148.233V131.566L1285.93 123.232L1294.76 119.065L1303.59 117.677L1312.42 114.899L1321.25 110.732L1325.66 106.564L1330.07 102.398L1334.49 98.2311L1338.9 89.897L1343.32 81.5636L1347.73 73.2295L1356.56 64.8962L1365.39 56.5621L1369.8 48.2287L1365.39 39.8946L1356.56 31.5605H1338.9L1330.08 35.7272L1321.25 37.1159H1303.59L1294.76 35.7272H1277.1L1268.27 31.5598H1259.44L1250.61 23.2264H1232.96L1224.13 26.0052L1215.3 31.5605V39.8946L1212.36 48.2287L1206.47 56.5621V81.5636L1197.64 89.897V98.2311L1191.76 106.564L1188.81 114.899V123.232H1171.15L1162.32 131.566L1153.49 139.899V148.233L1162.32 156.566H1144.66L1140.25 164.9L1135.83 173.234V181.568L1144.66 189.901L1153.49 191.985H1162.32L1171.15 189.901L1179.98 187.123H1206.47L1209.41 189.901L1215.3 194.068L1219.71 198.235L1221.92 206.569L1224.12 210.735L1227.07 214.902L1228.54 223.236L1230.01 231.569L1232.95 234.347L1241.78 235.736L1250.61 239.903L1259.44 248.237V264.904L1256.49 273.238V298.239L1255.02 306.573L1250.61 314.906L1241.78 323.239L1232.95 327.406L1228.54 331.573L1224.13 334.351L1215.3 339.907L1206.47 348.24L1197.64 352.407H1179.98L1171.15 348.24L1162.32 339.907L1153.49 331.573L1144.66 323.239H1135.84L1127.01 331.573V339.907L1131.42 348.24L1127.01 356.574V364.908H1118.18L1109.35 373.241L1115.23 381.574L1118.18 389.908V414.909L1115.97 423.243V439.909L1112.29 448.243L1109.35 456.576H1100.52L1091.69 448.243L1082.86 439.909L1074.03 437.131H1065.2L1056.37 437.826L1047.54 439.909L1038.71 448.243L1029.88 456.576V473.244L1021.06 481.577L1012.23 483.661L1003.4 481.577L998.983 473.244L994.568 464.91V456.575L985.739 448.241L976.91 439.908H968.081L959.252 442.686L950.423 448.241H932.764L923.935 439.908H915.106L906.277 448.243L897.448 451.021L891.562 456.576L888.619 458.241L879.79 463.519L875.375 464.909L870.961 467.686L862.131 473.242L853.302 476.022H844.472L835.643 477.41H809.156L804.741 473.244V464.91L800.327 460.744L795.912 456.576L791.497 454.493L782.669 453.799L773.839 448.243H765.01L760.596 456.576L756.181 464.91V473.244L751.767 481.577V489.91L753.236 498.244L756.18 502.41L760.594 506.578L765.008 510.745L773.838 514.911H809.155L817.983 517.689L823.869 523.245L826.813 526.023L832.699 531.578L835.641 534.356L841.528 539.911L842.264 548.245L844.471 556.578L853.3 560.745L862.129 559.356L870.958 556.578H879.788L888.616 559.356L897.446 560.745L906.277 564.912H915.106V589.912L919.52 598.246L923.935 602.412L928.35 606.579L932.764 614.912V623.246L923.935 631.579H906.277L897.448 627.412L888.619 623.246L879.79 621.163H870.961L862.131 623.246L853.302 627.412H835.643L826.814 623.246L817.985 620.468L809.156 617.69H800.327L795.912 614.912L791.497 610.746L787.083 606.579L782.669 603.801L773.839 598.246L765.01 594.079L756.181 589.912H747.352L738.523 592.689H729.694L720.864 594.079H712.036L703.206 598.246V614.916L707.621 623.249L712.036 627.416L714.978 631.583L720.864 637.139L725.279 639.916L729.694 648.249H747.352V656.583H720.864L712.036 661.583L708.504 664.913L706.15 673.247L705.414 681.58L703.206 685.747L694.377 689.913L685.548 694.079L676.718 698.246V706.579L673.776 714.913L676.718 723.246V731.58L685.548 739.913H694.377V773.246L685.548 781.58H650.231L641.403 773.246L636.988 764.913V756.58L632.573 752.413L628.159 748.246L623.745 744.08L619.33 739.913L614.915 735.746L610.501 731.58L606.086 723.246H597.257L588.427 714.913L579.598 723.246L570.769 731.58L561.94 739.913V748.246L553.111 756.58L544.282 764.913H526.624L517.795 756.58L508.965 748.246L504.551 739.913L500.137 735.746L495.723 731.58L491.308 723.246H482.477L473.648 714.913H464.82L455.991 710.746L447.162 709.358L442.748 706.579L438.333 702.413L433.918 698.246V681.579L429.504 673.246L420.675 664.913L411.846 660.746L407.431 656.579L403.017 648.246L394.187 639.912V631.579L385.358 627.412H358.871L354.457 631.579L350.042 635.746L341.213 639.912L332.384 648.246L323.554 656.579V664.913H314.725L305.896 656.579H288.238L279.409 664.913V673.246H261.751V664.913L257.336 656.579L258.806 648.246L261.748 639.912L270.578 631.579H288.236L297.065 627.412L305.894 623.246V614.916L310.309 606.583V589.916L314.723 585.749L323.552 581.583L332.381 573.249V556.578L323.553 548.245V539.908L332.382 537.13L341.211 535.742H350.04L358.869 534.353L367.699 531.575L376.527 523.245V514.911L367.699 510.745L363.284 506.578L358.869 503.8L350.04 498.244L347.833 489.91L347.097 481.577L350.04 478.799L358.869 473.244H385.357L389.771 464.91V448.243L385.357 444.076L376.527 439.909H358.871L350.042 437.131L344.155 431.576L341.213 427.409L336.798 423.243L332.384 419.075H323.553L314.724 416.575L305.894 414.91H279.407V381.574L270.578 373.241V364.908L261.748 356.574L252.919 348.24L244.09 339.907L235.263 342.688L229.377 348.243L226.434 352.41L222.019 356.576L217.603 364.908L208.776 373.241V398.242L213.191 406.575L214.66 414.909L213.191 423.243L208.776 431.576L204.361 439.909L199.947 448.243L191.118 456.575H182.289L173.46 453.797H155.801L151.386 456.575L146.972 459.353L138.143 464.909L133.728 473.242L129.314 481.576L133.728 489.909V498.242L132.259 506.576L129.32 514.91L120.485 523.245H111.653L102.823 514.911L93.9971 506.578H85.1685L76.3391 502.41L67.5097 503.8H41.023L32.1936 502.41L23.3642 498.244V489.91L32.1936 481.577L41.023 473.244V464.91L49.8516 456.575H58.6779L67.5066 448.241L69.7145 439.908L70.45 431.575L67.5066 423.241L58.6779 414.909L49.8516 406.575L58.6779 398.242V373.241H76.3391L85.1685 364.908V356.574L76.3391 352.407L67.5097 348.24V331.573L76.3391 328.242L85.1685 326.02H93.9971L102.827 327.409L107.241 331.576L111.653 335.737L120.481 339.904L129.311 344.071L133.725 339.904L138.14 335.737L142.555 331.57L146.969 327.403L151.383 323.236L155.798 319.07L160.213 314.903L164.628 310.739L167.571 306.573L164.628 298.239L155.801 289.907L146.972 285.741L142.558 281.573L138.143 278.796L129.314 273.24H120.485L111.653 264.904H102.827L93.9971 269.071H76.3391L67.5097 264.904L65.3025 256.57V248.237L67.5097 239.903L70.4531 231.569L76.3391 223.236V206.569L67.5097 198.235H58.6779L49.8516 201.012L41.023 202.402H32.1936L23.3642 201.012L18.9498 198.235L14.5355 194.068L10.1204 189.901V164.9L7.91327 156.566L5.70611 153.788L-0.1799 148.233L-3.1233 146.149L-9.74478 139.899L-11.9519 137.816L-18.5742 131.565L-20.7813 128.787L-26.6674 123.231L-29.61 119.065L-32.5534 114.898L-34.0228 106.564L-36.6715 98.2304L-38.4394 94.0623L-42.8537 89.8948V81.5615L-44.3231 73.2274L-47.2719 64.8954V56.5585L-49.4791 48.2251L-53.5779 39.891L-56.1005 34.3349L-57.5699 31.5569L-61.3957 23.2235L-62.7205 14.8894L-64.9276 12.1114L-71.9907 6.55607L-73.7563 5.16669L-82.5857 1H-87" stroke="#B7CEA5" stroke-width="2" stroke-linecap="round" stroke-linejoin="round"/>
</svg>
