<svg width="32" height="32" viewBox="0 0 32 32" fill="none" xmlns="http://www.w3.org/2000/svg">
<rect width="32" height="32" fill="white"/>
<g clip-path="url(#clip0_3780_4838)">
<path d="M9.69997 16.7555L4.27601 21.0026C3.45839 19.343 3 17.4758 3 15.5001C3 12.8152 3.84942 10.3268 5.29008 8.28931L6.87854 10.5644L9.79726 14.6843L10.3529 15.8312L9.69997 16.7555Z" fill="#50683C"/>
<path d="M11.556 15.3017V15.8743L11.3259 16.617L10.4783 17.6367L7.9581 19.8725L6.26487 22.7651L5.70171 23.2609C5.22648 22.664 4.80738 22.0223 4.44815 21.3431L9.9507 17.0343C9.96566 17.023 9.97876 17.0099 9.98812 16.995L10.7215 15.9584C10.7608 15.9023 10.7683 15.8293 10.7384 15.7676L10.1284 14.5066C10.1284 14.5066 10.1191 14.4897 10.1116 14.4804L7.18539 10.3493L5.52209 7.97124C5.8439 7.54466 6.1919 7.13866 6.5661 6.75885L7.11242 8.80944L11.1238 14.3082L11.556 15.3017Z" fill="#50683C"/>
<path d="M12.4896 16.0165L12.4914 15.1072L11.9395 13.8405L7.97115 8.39787L7.81586 7.81226L13.9508 16.3982L13.4082 16.8622L8.36967 21.0232L8.6896 20.4732L11.1256 18.3122L12.1659 17.0699L12.4896 16.0165Z" fill="#50683C"/>
<path d="M14.6636 15.7863L7.55951 5.84581C7.94306 5.52962 8.34532 5.23587 8.76629 4.96832L14.8488 13.4738L15.8367 14.8508L15.4737 15.0941L14.6636 15.7863Z" fill="#50683C"/>
<path d="M9.54284 21.7416L8.66348 21.9942L14.0107 17.5768L14.5103 17.1502L15.1988 18.0464L15.994 19.1016L15.5655 18.7761L14.4991 18.7555L13.0266 19.1372L9.54284 21.7416Z" fill="#50683C"/>
<path d="M18.3401 26.1534L15.5711 28.0001H15.5019C15.4551 28.0001 15.4083 28.0001 15.3634 27.9982C11.7824 27.9608 8.56428 26.4172 6.30975 23.9719L6.86356 23.4854L9.96751 22.5929L13.44 19.996L14.6094 19.6929L15.2418 19.706L18.0763 21.8633L20.3814 24.7932L18.6526 25.9457L15.5131 21.8838C15.4495 21.8015 15.3316 21.7866 15.2493 21.8502C15.1688 21.9138 15.1539 22.0317 15.2156 22.1121L18.3401 26.1534Z" fill="#50683C"/>
<path d="M20.6134 25.0889L21.6368 26.3911C20.0371 27.2966 18.2185 27.8579 16.2802 27.9758L18.7143 26.3536L20.6134 25.0889Z" fill="#50683C"/>
<path d="M16.3925 15.603L23.6051 25.0159C23.2346 25.3339 22.8455 25.6277 22.4395 25.899L18.7742 21.2365L15.9434 17.4814L15.2212 16.5403L16.0201 15.8537L16.3925 15.603Z" fill="#50683C"/>
<path d="M15.1258 5.44169L13.8797 3.40045L14.4466 3.04309C14.5402 3.03561 14.6356 3.02813 14.7292 3.02251C14.9836 3.00567 15.2418 3.00006 15.5019 3.00006C16.5309 3.00006 17.53 3.12542 18.4879 3.36116L15.1258 5.44169Z" fill="#50683C"/>
<path d="M19.7171 6.21814C19.6329 6.27801 19.6142 6.39401 19.6741 6.47821L21.8931 9.56532L22.6003 10.6018L20.1793 12.2446L19.4197 11.1407L18.6395 10.2052C18.6095 10.1696 18.5684 10.1453 18.5216 10.1397L17.6441 10.02L16.0987 7.89079C16.0388 7.8066 15.9209 7.78789 15.8386 7.84963C15.7544 7.9095 15.7357 8.02738 15.7956 8.11157L17.3878 10.3044C17.4177 10.3455 17.4645 10.3736 17.515 10.3792L18.3981 10.5008L19.1203 11.3671L19.8687 12.4541L16.7741 14.5533L15.6085 12.9293L9.57645 4.49123C10.8019 3.83077 12.1509 3.36677 13.5803 3.146L13.5242 3.18154C13.4381 3.23767 13.412 3.34993 13.4643 3.43787L14.9031 5.79717C14.9293 5.8402 14.9723 5.87014 15.021 5.88137C15.0341 5.88511 15.0491 5.88698 15.064 5.88698C15.0977 5.88698 15.1314 5.87762 15.1613 5.85891L18.9856 3.49213H18.9875C19.0118 3.49961 19.0361 3.50709 19.0604 3.51458C21.8351 4.33594 24.2056 6.09653 25.8072 8.42589L22.9109 10.3923L22.1999 9.35016L19.9791 6.26117C19.9192 6.17698 19.8013 6.1564 19.7171 6.21814Z" fill="#50683C"/>
<path d="M20.4394 16.183L27.3676 11.5635C27.6838 12.514 27.8878 13.5187 27.9645 14.559L22.0185 18.4824L20.4394 16.183Z" fill="#50683C"/>
<path d="M28 15.5001C28 18.9745 26.5856 22.114 24.2974 24.3816L18.0184 16.1886L16.9987 14.8546L26.0149 8.7384C26.5089 9.5055 26.9224 10.3287 27.2404 11.1987L20.0746 15.9753C20.0746 15.9753 20.0727 15.9772 20.0708 15.9772C20.0334 16.0034 20.0091 16.0427 19.9979 16.0839C19.9979 16.0876 19.9941 16.0913 19.9941 16.097C19.9904 16.1082 19.9941 16.1213 19.9941 16.1344C19.9941 16.1456 19.9923 16.1568 19.9941 16.1681C19.9941 16.1737 19.9997 16.1793 20.0016 16.1868C20.0053 16.2036 20.011 16.2204 20.0222 16.2354C20.0222 16.2354 20.0228 16.2367 20.0241 16.2392L21.8127 18.8454C21.8202 18.8566 21.8296 18.866 21.8389 18.8754C21.8408 18.8772 21.8408 18.8791 21.8426 18.8791C21.8483 18.8847 21.8557 18.8885 21.8632 18.8941C21.8932 18.9146 21.9306 18.9277 21.968 18.9277C22.0054 18.9277 22.0391 18.9184 22.0709 18.8959L27.9888 14.9912C27.9963 15.1596 28 15.3299 28 15.5001Z" fill="#50683C"/>
</g>
<defs>
<clipPath id="clip0_3780_4838">
<rect width="25" height="25" fill="white" transform="translate(3 3)"/>
</clipPath>
</defs>
</svg>
